G04 #@! TF.GenerationSoftware,KiCad,Pcbnew,(5.1.5-0-10_14)*
G04 #@! TF.CreationDate,2020-04-27T22:25:58+02:00*
G04 #@! TF.ProjectId,ESP12-Domo,45535031-322d-4446-9f6d-6f2e6b696361,rev?*
G04 #@! TF.SameCoordinates,Original*
G04 #@! TF.FileFunction,Legend,Bot*
G04 #@! TF.FilePolarity,Positive*
%FSLAX46Y46*%
G04 Gerber Fmt 4.6, Leading zero omitted, Abs format (unit mm)*
G04 Created by KiCad (PCBNEW (5.1.5-0-10_14)) date 2020-04-27 22:25:58*
%MOMM*%
%LPD*%
G04 APERTURE LIST*
%ADD10C,0.300000*%
G04 APERTURE END LIST*
D10*
X125285714Y-82678571D02*
X124785714Y-84178571D01*
X124285714Y-82678571D01*
X123000000Y-84178571D02*
X123857142Y-84178571D01*
X123428571Y-84178571D02*
X123428571Y-82678571D01*
X123571428Y-82892857D01*
X123714285Y-83035714D01*
X123857142Y-83107142D01*
X122357142Y-84035714D02*
X122285714Y-84107142D01*
X122357142Y-84178571D01*
X122428571Y-84107142D01*
X122357142Y-84035714D01*
X122357142Y-84178571D01*
X121357142Y-82678571D02*
X121214285Y-82678571D01*
X121071428Y-82750000D01*
X121000000Y-82821428D01*
X120928571Y-82964285D01*
X120857142Y-83250000D01*
X120857142Y-83607142D01*
X120928571Y-83892857D01*
X121000000Y-84035714D01*
X121071428Y-84107142D01*
X121214285Y-84178571D01*
X121357142Y-84178571D01*
X121500000Y-84107142D01*
X121571428Y-84035714D01*
X121642857Y-83892857D01*
X121714285Y-83607142D01*
X121714285Y-83250000D01*
X121642857Y-82964285D01*
X121571428Y-82821428D01*
X121500000Y-82750000D01*
X121357142Y-82678571D01*
X129892857Y-78792857D02*
X129392857Y-78792857D01*
X129178571Y-79578571D02*
X129892857Y-79578571D01*
X129892857Y-78078571D01*
X129178571Y-78078571D01*
X128607142Y-79507142D02*
X128392857Y-79578571D01*
X128035714Y-79578571D01*
X127892857Y-79507142D01*
X127821428Y-79435714D01*
X127750000Y-79292857D01*
X127750000Y-79150000D01*
X127821428Y-79007142D01*
X127892857Y-78935714D01*
X128035714Y-78864285D01*
X128321428Y-78792857D01*
X128464285Y-78721428D01*
X128535714Y-78650000D01*
X128607142Y-78507142D01*
X128607142Y-78364285D01*
X128535714Y-78221428D01*
X128464285Y-78150000D01*
X128321428Y-78078571D01*
X127964285Y-78078571D01*
X127750000Y-78150000D01*
X127107142Y-79578571D02*
X127107142Y-78078571D01*
X126535714Y-78078571D01*
X126392857Y-78150000D01*
X126321428Y-78221428D01*
X126250000Y-78364285D01*
X126250000Y-78578571D01*
X126321428Y-78721428D01*
X126392857Y-78792857D01*
X126535714Y-78864285D01*
X127107142Y-78864285D01*
X124821428Y-79578571D02*
X125678571Y-79578571D01*
X125250000Y-79578571D02*
X125250000Y-78078571D01*
X125392857Y-78292857D01*
X125535714Y-78435714D01*
X125678571Y-78507142D01*
X124250000Y-78221428D02*
X124178571Y-78150000D01*
X124035714Y-78078571D01*
X123678571Y-78078571D01*
X123535714Y-78150000D01*
X123464285Y-78221428D01*
X123392857Y-78364285D01*
X123392857Y-78507142D01*
X123464285Y-78721428D01*
X124321428Y-79578571D01*
X123392857Y-79578571D01*
X123107142Y-79721428D02*
X121964285Y-79721428D01*
X121607142Y-79578571D02*
X121607142Y-78078571D01*
X121250000Y-78078571D01*
X121035714Y-78150000D01*
X120892857Y-78292857D01*
X120821428Y-78435714D01*
X120750000Y-78721428D01*
X120750000Y-78935714D01*
X120821428Y-79221428D01*
X120892857Y-79364285D01*
X121035714Y-79507142D01*
X121250000Y-79578571D01*
X121607142Y-79578571D01*
X119892857Y-79578571D02*
X120035714Y-79507142D01*
X120107142Y-79435714D01*
X120178571Y-79292857D01*
X120178571Y-78864285D01*
X120107142Y-78721428D01*
X120035714Y-78650000D01*
X119892857Y-78578571D01*
X119678571Y-78578571D01*
X119535714Y-78650000D01*
X119464285Y-78721428D01*
X119392857Y-78864285D01*
X119392857Y-79292857D01*
X119464285Y-79435714D01*
X119535714Y-79507142D01*
X119678571Y-79578571D01*
X119892857Y-79578571D01*
X118750000Y-79578571D02*
X118750000Y-78578571D01*
X118750000Y-78721428D02*
X118678571Y-78650000D01*
X118535714Y-78578571D01*
X118321428Y-78578571D01*
X118178571Y-78650000D01*
X118107142Y-78792857D01*
X118107142Y-79578571D01*
X118107142Y-78792857D02*
X118035714Y-78650000D01*
X117892857Y-78578571D01*
X117678571Y-78578571D01*
X117535714Y-78650000D01*
X117464285Y-78792857D01*
X117464285Y-79578571D01*
X116535714Y-79578571D02*
X116678571Y-79507142D01*
X116750000Y-79435714D01*
X116821428Y-79292857D01*
X116821428Y-78864285D01*
X116750000Y-78721428D01*
X116678571Y-78650000D01*
X116535714Y-78578571D01*
X116321428Y-78578571D01*
X116178571Y-78650000D01*
X116107142Y-78721428D01*
X116035714Y-78864285D01*
X116035714Y-79292857D01*
X116107142Y-79435714D01*
X116178571Y-79507142D01*
X116321428Y-79578571D01*
X116535714Y-79578571D01*
X132300000Y-74250000D02*
X131585714Y-74250000D01*
X132442857Y-74678571D02*
X131942857Y-73178571D01*
X131442857Y-74678571D01*
X130942857Y-73678571D02*
X130942857Y-74678571D01*
X130942857Y-73821428D02*
X130871428Y-73750000D01*
X130728571Y-73678571D01*
X130514285Y-73678571D01*
X130371428Y-73750000D01*
X130300000Y-73892857D01*
X130300000Y-74678571D01*
X128942857Y-74678571D02*
X128942857Y-73178571D01*
X128942857Y-74607142D02*
X129085714Y-74678571D01*
X129371428Y-74678571D01*
X129514285Y-74607142D01*
X129585714Y-74535714D01*
X129657142Y-74392857D01*
X129657142Y-73964285D01*
X129585714Y-73821428D01*
X129514285Y-73750000D01*
X129371428Y-73678571D01*
X129085714Y-73678571D01*
X128942857Y-73750000D01*
X127657142Y-74607142D02*
X127800000Y-74678571D01*
X128085714Y-74678571D01*
X128228571Y-74607142D01*
X128300000Y-74464285D01*
X128300000Y-73892857D01*
X128228571Y-73750000D01*
X128085714Y-73678571D01*
X127800000Y-73678571D01*
X127657142Y-73750000D01*
X127585714Y-73892857D01*
X127585714Y-74035714D01*
X128300000Y-74178571D01*
X126942857Y-74678571D02*
X126942857Y-73678571D01*
X126942857Y-73964285D02*
X126871428Y-73821428D01*
X126800000Y-73750000D01*
X126657142Y-73678571D01*
X126514285Y-73678571D01*
X126085714Y-74607142D02*
X125942857Y-74678571D01*
X125657142Y-74678571D01*
X125514285Y-74607142D01*
X125442857Y-74464285D01*
X125442857Y-74392857D01*
X125514285Y-74250000D01*
X125657142Y-74178571D01*
X125871428Y-74178571D01*
X126014285Y-74107142D01*
X126085714Y-73964285D01*
X126085714Y-73892857D01*
X126014285Y-73750000D01*
X125871428Y-73678571D01*
X125657142Y-73678571D01*
X125514285Y-73750000D01*
X124585714Y-74678571D02*
X124728571Y-74607142D01*
X124800000Y-74535714D01*
X124871428Y-74392857D01*
X124871428Y-73964285D01*
X124800000Y-73821428D01*
X124728571Y-73750000D01*
X124585714Y-73678571D01*
X124371428Y-73678571D01*
X124228571Y-73750000D01*
X124157142Y-73821428D01*
X124085714Y-73964285D01*
X124085714Y-74392857D01*
X124157142Y-74535714D01*
X124228571Y-74607142D01*
X124371428Y-74678571D01*
X124585714Y-74678571D01*
X123442857Y-73678571D02*
X123442857Y-74678571D01*
X123442857Y-73821428D02*
X123371428Y-73750000D01*
X123228571Y-73678571D01*
X123014285Y-73678571D01*
X122871428Y-73750000D01*
X122800000Y-73892857D01*
X122800000Y-74678571D01*
X121442857Y-73178571D02*
X121728571Y-73178571D01*
X121871428Y-73250000D01*
X121942857Y-73321428D01*
X122085714Y-73535714D01*
X122157142Y-73821428D01*
X122157142Y-74392857D01*
X122085714Y-74535714D01*
X122014285Y-74607142D01*
X121871428Y-74678571D01*
X121585714Y-74678571D01*
X121442857Y-74607142D01*
X121371428Y-74535714D01*
X121300000Y-74392857D01*
X121300000Y-74035714D01*
X121371428Y-73892857D01*
X121442857Y-73821428D01*
X121585714Y-73750000D01*
X121871428Y-73750000D01*
X122014285Y-73821428D01*
X122085714Y-73892857D01*
X122157142Y-74035714D01*
X120585714Y-74678571D02*
X120300000Y-74678571D01*
X120157142Y-74607142D01*
X120085714Y-74535714D01*
X119942857Y-74321428D01*
X119871428Y-74035714D01*
X119871428Y-73464285D01*
X119942857Y-73321428D01*
X120014285Y-73250000D01*
X120157142Y-73178571D01*
X120442857Y-73178571D01*
X120585714Y-73250000D01*
X120657142Y-73321428D01*
X120728571Y-73464285D01*
X120728571Y-73821428D01*
X120657142Y-73964285D01*
X120585714Y-74035714D01*
X120442857Y-74107142D01*
X120157142Y-74107142D01*
X120014285Y-74035714D01*
X119942857Y-73964285D01*
X119871428Y-73821428D01*
X119300000Y-74607142D02*
X119157142Y-74678571D01*
X118871428Y-74678571D01*
X118728571Y-74607142D01*
X118657142Y-74464285D01*
X118657142Y-74392857D01*
X118728571Y-74250000D01*
X118871428Y-74178571D01*
X119085714Y-74178571D01*
X119228571Y-74107142D01*
X119300000Y-73964285D01*
X119300000Y-73892857D01*
X119228571Y-73750000D01*
X119085714Y-73678571D01*
X118871428Y-73678571D01*
X118728571Y-73750000D01*
X118014285Y-74535714D02*
X117942857Y-74607142D01*
X118014285Y-74678571D01*
X118085714Y-74607142D01*
X118014285Y-74535714D01*
X118014285Y-74678571D01*
X116657142Y-74607142D02*
X116800000Y-74678571D01*
X117085714Y-74678571D01*
X117228571Y-74607142D01*
X117300000Y-74535714D01*
X117371428Y-74392857D01*
X117371428Y-73964285D01*
X117300000Y-73821428D01*
X117228571Y-73750000D01*
X117085714Y-73678571D01*
X116800000Y-73678571D01*
X116657142Y-73750000D01*
X115800000Y-74678571D02*
X115942857Y-74607142D01*
X116014285Y-74535714D01*
X116085714Y-74392857D01*
X116085714Y-73964285D01*
X116014285Y-73821428D01*
X115942857Y-73750000D01*
X115800000Y-73678571D01*
X115585714Y-73678571D01*
X115442857Y-73750000D01*
X115371428Y-73821428D01*
X115300000Y-73964285D01*
X115300000Y-74392857D01*
X115371428Y-74535714D01*
X115442857Y-74607142D01*
X115585714Y-74678571D01*
X115800000Y-74678571D01*
X114657142Y-74678571D02*
X114657142Y-73678571D01*
X114657142Y-73821428D02*
X114585714Y-73750000D01*
X114442857Y-73678571D01*
X114228571Y-73678571D01*
X114085714Y-73750000D01*
X114014285Y-73892857D01*
X114014285Y-74678571D01*
X114014285Y-73892857D02*
X113942857Y-73750000D01*
X113800000Y-73678571D01*
X113585714Y-73678571D01*
X113442857Y-73750000D01*
X113371428Y-73892857D01*
X113371428Y-74678571D01*
M02*
