G04 #@! TF.GenerationSoftware,KiCad,Pcbnew,(5.1.5-0-10_14)*
G04 #@! TF.CreationDate,2020-04-27T22:25:58+02:00*
G04 #@! TF.ProjectId,ESP12-Domo,45535031-322d-4446-9f6d-6f2e6b696361,rev?*
G04 #@! TF.SameCoordinates,Original*
G04 #@! TF.FileFunction,Other,Comment*
%FSLAX46Y46*%
G04 Gerber Fmt 4.6, Leading zero omitted, Abs format (unit mm)*
G04 Created by KiCad (PCBNEW (5.1.5-0-10_14)) date 2020-04-27 22:25:58*
%MOMM*%
%LPD*%
G04 APERTURE LIST*
%ADD10C,0.300000*%
G04 APERTURE END LIST*
D10*
X125171428Y-48778571D02*
X124457142Y-48778571D01*
X124385714Y-49492857D01*
X124457142Y-49421428D01*
X124600000Y-49350000D01*
X124957142Y-49350000D01*
X125100000Y-49421428D01*
X125171428Y-49492857D01*
X125242857Y-49635714D01*
X125242857Y-49992857D01*
X125171428Y-50135714D01*
X125100000Y-50207142D01*
X124957142Y-50278571D01*
X124600000Y-50278571D01*
X124457142Y-50207142D01*
X124385714Y-50135714D01*
X125957142Y-50278571D02*
X126242857Y-50278571D01*
X126385714Y-50207142D01*
X126457142Y-50135714D01*
X126600000Y-49921428D01*
X126671428Y-49635714D01*
X126671428Y-49064285D01*
X126600000Y-48921428D01*
X126528571Y-48850000D01*
X126385714Y-48778571D01*
X126100000Y-48778571D01*
X125957142Y-48850000D01*
X125885714Y-48921428D01*
X125814285Y-49064285D01*
X125814285Y-49421428D01*
X125885714Y-49564285D01*
X125957142Y-49635714D01*
X126100000Y-49707142D01*
X126385714Y-49707142D01*
X126528571Y-49635714D01*
X126600000Y-49564285D01*
X126671428Y-49421428D01*
X127314285Y-50135714D02*
X127385714Y-50207142D01*
X127314285Y-50278571D01*
X127242857Y-50207142D01*
X127314285Y-50135714D01*
X127314285Y-50278571D01*
X128242857Y-49421428D02*
X128100000Y-49350000D01*
X128028571Y-49278571D01*
X127957142Y-49135714D01*
X127957142Y-49064285D01*
X128028571Y-48921428D01*
X128100000Y-48850000D01*
X128242857Y-48778571D01*
X128528571Y-48778571D01*
X128671428Y-48850000D01*
X128742857Y-48921428D01*
X128814285Y-49064285D01*
X128814285Y-49135714D01*
X128742857Y-49278571D01*
X128671428Y-49350000D01*
X128528571Y-49421428D01*
X128242857Y-49421428D01*
X128100000Y-49492857D01*
X128028571Y-49564285D01*
X127957142Y-49707142D01*
X127957142Y-49992857D01*
X128028571Y-50135714D01*
X128100000Y-50207142D01*
X128242857Y-50278571D01*
X128528571Y-50278571D01*
X128671428Y-50207142D01*
X128742857Y-50135714D01*
X128814285Y-49992857D01*
X128814285Y-49707142D01*
X128742857Y-49564285D01*
X128671428Y-49492857D01*
X128528571Y-49421428D01*
X129742857Y-48778571D02*
X129885714Y-48778571D01*
X130028571Y-48850000D01*
X130100000Y-48921428D01*
X130171428Y-49064285D01*
X130242857Y-49350000D01*
X130242857Y-49707142D01*
X130171428Y-49992857D01*
X130100000Y-50135714D01*
X130028571Y-50207142D01*
X129885714Y-50278571D01*
X129742857Y-50278571D01*
X129600000Y-50207142D01*
X129528571Y-50135714D01*
X129457142Y-49992857D01*
X129385714Y-49707142D01*
X129385714Y-49350000D01*
X129457142Y-49064285D01*
X129528571Y-48921428D01*
X129600000Y-48850000D01*
X129742857Y-48778571D01*
X131171428Y-48778571D02*
X131314285Y-48778571D01*
X131457142Y-48850000D01*
X131528571Y-48921428D01*
X131600000Y-49064285D01*
X131671428Y-49350000D01*
X131671428Y-49707142D01*
X131600000Y-49992857D01*
X131528571Y-50135714D01*
X131457142Y-50207142D01*
X131314285Y-50278571D01*
X131171428Y-50278571D01*
X131028571Y-50207142D01*
X130957142Y-50135714D01*
X130885714Y-49992857D01*
X130814285Y-49707142D01*
X130814285Y-49350000D01*
X130885714Y-49064285D01*
X130957142Y-48921428D01*
X131028571Y-48850000D01*
X131171428Y-48778571D01*
X133457142Y-50278571D02*
X133457142Y-49278571D01*
X133457142Y-49421428D02*
X133528571Y-49350000D01*
X133671428Y-49278571D01*
X133885714Y-49278571D01*
X134028571Y-49350000D01*
X134100000Y-49492857D01*
X134100000Y-50278571D01*
X134100000Y-49492857D02*
X134171428Y-49350000D01*
X134314285Y-49278571D01*
X134528571Y-49278571D01*
X134671428Y-49350000D01*
X134742857Y-49492857D01*
X134742857Y-50278571D01*
X135457142Y-50278571D02*
X135457142Y-49278571D01*
X135457142Y-49421428D02*
X135528571Y-49350000D01*
X135671428Y-49278571D01*
X135885714Y-49278571D01*
X136028571Y-49350000D01*
X136100000Y-49492857D01*
X136100000Y-50278571D01*
X136100000Y-49492857D02*
X136171428Y-49350000D01*
X136314285Y-49278571D01*
X136528571Y-49278571D01*
X136671428Y-49350000D01*
X136742857Y-49492857D01*
X136742857Y-50278571D01*
X100700000Y-51700000D02*
X160500000Y-51700000D01*
X100700000Y-63200000D02*
X100700000Y-51113579D01*
X160500000Y-63200000D02*
X160500000Y-51113579D01*
X160500000Y-51700000D02*
X159373496Y-52286421D01*
X160500000Y-51700000D02*
X159373496Y-51113579D01*
X100700000Y-51700000D02*
X101826504Y-52286421D01*
X100700000Y-51700000D02*
X101826504Y-51113579D01*
X165278571Y-89335714D02*
X165278571Y-88407142D01*
X165850000Y-88907142D01*
X165850000Y-88692857D01*
X165921428Y-88550000D01*
X165992857Y-88478571D01*
X166135714Y-88407142D01*
X166492857Y-88407142D01*
X166635714Y-88478571D01*
X166707142Y-88550000D01*
X166778571Y-88692857D01*
X166778571Y-89121428D01*
X166707142Y-89264285D01*
X166635714Y-89335714D01*
X166778571Y-87692857D02*
X166778571Y-87407142D01*
X166707142Y-87264285D01*
X166635714Y-87192857D01*
X166421428Y-87050000D01*
X166135714Y-86978571D01*
X165564285Y-86978571D01*
X165421428Y-87050000D01*
X165350000Y-87121428D01*
X165278571Y-87264285D01*
X165278571Y-87550000D01*
X165350000Y-87692857D01*
X165421428Y-87764285D01*
X165564285Y-87835714D01*
X165921428Y-87835714D01*
X166064285Y-87764285D01*
X166135714Y-87692857D01*
X166207142Y-87550000D01*
X166207142Y-87264285D01*
X166135714Y-87121428D01*
X166064285Y-87050000D01*
X165921428Y-86978571D01*
X166635714Y-86335714D02*
X166707142Y-86264285D01*
X166778571Y-86335714D01*
X166707142Y-86407142D01*
X166635714Y-86335714D01*
X166778571Y-86335714D01*
X165278571Y-85764285D02*
X165278571Y-84764285D01*
X166778571Y-85407142D01*
X165278571Y-83907142D02*
X165278571Y-83764285D01*
X165350000Y-83621428D01*
X165421428Y-83550000D01*
X165564285Y-83478571D01*
X165850000Y-83407142D01*
X166207142Y-83407142D01*
X166492857Y-83478571D01*
X166635714Y-83550000D01*
X166707142Y-83621428D01*
X166778571Y-83764285D01*
X166778571Y-83907142D01*
X166707142Y-84050000D01*
X166635714Y-84121428D01*
X166492857Y-84192857D01*
X166207142Y-84264285D01*
X165850000Y-84264285D01*
X165564285Y-84192857D01*
X165421428Y-84121428D01*
X165350000Y-84050000D01*
X165278571Y-83907142D01*
X165278571Y-82478571D02*
X165278571Y-82335714D01*
X165350000Y-82192857D01*
X165421428Y-82121428D01*
X165564285Y-82050000D01*
X165850000Y-81978571D01*
X166207142Y-81978571D01*
X166492857Y-82050000D01*
X166635714Y-82121428D01*
X166707142Y-82192857D01*
X166778571Y-82335714D01*
X166778571Y-82478571D01*
X166707142Y-82621428D01*
X166635714Y-82692857D01*
X166492857Y-82764285D01*
X166207142Y-82835714D01*
X165850000Y-82835714D01*
X165564285Y-82764285D01*
X165421428Y-82692857D01*
X165350000Y-82621428D01*
X165278571Y-82478571D01*
X166778571Y-80192857D02*
X165778571Y-80192857D01*
X165921428Y-80192857D02*
X165850000Y-80121428D01*
X165778571Y-79978571D01*
X165778571Y-79764285D01*
X165850000Y-79621428D01*
X165992857Y-79550000D01*
X166778571Y-79550000D01*
X165992857Y-79550000D02*
X165850000Y-79478571D01*
X165778571Y-79335714D01*
X165778571Y-79121428D01*
X165850000Y-78978571D01*
X165992857Y-78907142D01*
X166778571Y-78907142D01*
X166778571Y-78192857D02*
X165778571Y-78192857D01*
X165921428Y-78192857D02*
X165850000Y-78121428D01*
X165778571Y-77978571D01*
X165778571Y-77764285D01*
X165850000Y-77621428D01*
X165992857Y-77550000D01*
X166778571Y-77550000D01*
X165992857Y-77550000D02*
X165850000Y-77478571D01*
X165778571Y-77335714D01*
X165778571Y-77121428D01*
X165850000Y-76978571D01*
X165992857Y-76907142D01*
X166778571Y-76907142D01*
X164000000Y-102900000D02*
X164000000Y-63200000D01*
X160500000Y-102900000D02*
X164586421Y-102900000D01*
X160500000Y-63200000D02*
X164586421Y-63200000D01*
X164000000Y-63200000D02*
X164586421Y-64326504D01*
X164000000Y-63200000D02*
X163413579Y-64326504D01*
X164000000Y-102900000D02*
X164586421Y-101773496D01*
X164000000Y-102900000D02*
X163413579Y-101773496D01*
X125171428Y-111278571D02*
X124457142Y-111278571D01*
X124385714Y-111992857D01*
X124457142Y-111921428D01*
X124600000Y-111850000D01*
X124957142Y-111850000D01*
X125100000Y-111921428D01*
X125171428Y-111992857D01*
X125242857Y-112135714D01*
X125242857Y-112492857D01*
X125171428Y-112635714D01*
X125100000Y-112707142D01*
X124957142Y-112778571D01*
X124600000Y-112778571D01*
X124457142Y-112707142D01*
X124385714Y-112635714D01*
X125957142Y-112778571D02*
X126242857Y-112778571D01*
X126385714Y-112707142D01*
X126457142Y-112635714D01*
X126600000Y-112421428D01*
X126671428Y-112135714D01*
X126671428Y-111564285D01*
X126600000Y-111421428D01*
X126528571Y-111350000D01*
X126385714Y-111278571D01*
X126100000Y-111278571D01*
X125957142Y-111350000D01*
X125885714Y-111421428D01*
X125814285Y-111564285D01*
X125814285Y-111921428D01*
X125885714Y-112064285D01*
X125957142Y-112135714D01*
X126100000Y-112207142D01*
X126385714Y-112207142D01*
X126528571Y-112135714D01*
X126600000Y-112064285D01*
X126671428Y-111921428D01*
X127314285Y-112635714D02*
X127385714Y-112707142D01*
X127314285Y-112778571D01*
X127242857Y-112707142D01*
X127314285Y-112635714D01*
X127314285Y-112778571D01*
X128242857Y-111921428D02*
X128100000Y-111850000D01*
X128028571Y-111778571D01*
X127957142Y-111635714D01*
X127957142Y-111564285D01*
X128028571Y-111421428D01*
X128100000Y-111350000D01*
X128242857Y-111278571D01*
X128528571Y-111278571D01*
X128671428Y-111350000D01*
X128742857Y-111421428D01*
X128814285Y-111564285D01*
X128814285Y-111635714D01*
X128742857Y-111778571D01*
X128671428Y-111850000D01*
X128528571Y-111921428D01*
X128242857Y-111921428D01*
X128100000Y-111992857D01*
X128028571Y-112064285D01*
X127957142Y-112207142D01*
X127957142Y-112492857D01*
X128028571Y-112635714D01*
X128100000Y-112707142D01*
X128242857Y-112778571D01*
X128528571Y-112778571D01*
X128671428Y-112707142D01*
X128742857Y-112635714D01*
X128814285Y-112492857D01*
X128814285Y-112207142D01*
X128742857Y-112064285D01*
X128671428Y-111992857D01*
X128528571Y-111921428D01*
X129742857Y-111278571D02*
X129885714Y-111278571D01*
X130028571Y-111350000D01*
X130100000Y-111421428D01*
X130171428Y-111564285D01*
X130242857Y-111850000D01*
X130242857Y-112207142D01*
X130171428Y-112492857D01*
X130100000Y-112635714D01*
X130028571Y-112707142D01*
X129885714Y-112778571D01*
X129742857Y-112778571D01*
X129600000Y-112707142D01*
X129528571Y-112635714D01*
X129457142Y-112492857D01*
X129385714Y-112207142D01*
X129385714Y-111850000D01*
X129457142Y-111564285D01*
X129528571Y-111421428D01*
X129600000Y-111350000D01*
X129742857Y-111278571D01*
X131171428Y-111278571D02*
X131314285Y-111278571D01*
X131457142Y-111350000D01*
X131528571Y-111421428D01*
X131600000Y-111564285D01*
X131671428Y-111850000D01*
X131671428Y-112207142D01*
X131600000Y-112492857D01*
X131528571Y-112635714D01*
X131457142Y-112707142D01*
X131314285Y-112778571D01*
X131171428Y-112778571D01*
X131028571Y-112707142D01*
X130957142Y-112635714D01*
X130885714Y-112492857D01*
X130814285Y-112207142D01*
X130814285Y-111850000D01*
X130885714Y-111564285D01*
X130957142Y-111421428D01*
X131028571Y-111350000D01*
X131171428Y-111278571D01*
X133457142Y-112778571D02*
X133457142Y-111778571D01*
X133457142Y-111921428D02*
X133528571Y-111850000D01*
X133671428Y-111778571D01*
X133885714Y-111778571D01*
X134028571Y-111850000D01*
X134100000Y-111992857D01*
X134100000Y-112778571D01*
X134100000Y-111992857D02*
X134171428Y-111850000D01*
X134314285Y-111778571D01*
X134528571Y-111778571D01*
X134671428Y-111850000D01*
X134742857Y-111992857D01*
X134742857Y-112778571D01*
X135457142Y-112778571D02*
X135457142Y-111778571D01*
X135457142Y-111921428D02*
X135528571Y-111850000D01*
X135671428Y-111778571D01*
X135885714Y-111778571D01*
X136028571Y-111850000D01*
X136100000Y-111992857D01*
X136100000Y-112778571D01*
X136100000Y-111992857D02*
X136171428Y-111850000D01*
X136314285Y-111778571D01*
X136528571Y-111778571D01*
X136671428Y-111850000D01*
X136742857Y-111992857D01*
X136742857Y-112778571D01*
X100700000Y-110000000D02*
X160500000Y-110000000D01*
X100700000Y-102900000D02*
X100700000Y-110586421D01*
X160500000Y-102900000D02*
X160500000Y-110586421D01*
X160500000Y-110000000D02*
X159373496Y-110586421D01*
X160500000Y-110000000D02*
X159373496Y-109413579D01*
X100700000Y-110000000D02*
X101826504Y-110586421D01*
X100700000Y-110000000D02*
X101826504Y-109413579D01*
X89978571Y-89335714D02*
X89978571Y-88407142D01*
X90550000Y-88907142D01*
X90550000Y-88692857D01*
X90621428Y-88550000D01*
X90692857Y-88478571D01*
X90835714Y-88407142D01*
X91192857Y-88407142D01*
X91335714Y-88478571D01*
X91407142Y-88550000D01*
X91478571Y-88692857D01*
X91478571Y-89121428D01*
X91407142Y-89264285D01*
X91335714Y-89335714D01*
X91478571Y-87692857D02*
X91478571Y-87407142D01*
X91407142Y-87264285D01*
X91335714Y-87192857D01*
X91121428Y-87050000D01*
X90835714Y-86978571D01*
X90264285Y-86978571D01*
X90121428Y-87050000D01*
X90050000Y-87121428D01*
X89978571Y-87264285D01*
X89978571Y-87550000D01*
X90050000Y-87692857D01*
X90121428Y-87764285D01*
X90264285Y-87835714D01*
X90621428Y-87835714D01*
X90764285Y-87764285D01*
X90835714Y-87692857D01*
X90907142Y-87550000D01*
X90907142Y-87264285D01*
X90835714Y-87121428D01*
X90764285Y-87050000D01*
X90621428Y-86978571D01*
X91335714Y-86335714D02*
X91407142Y-86264285D01*
X91478571Y-86335714D01*
X91407142Y-86407142D01*
X91335714Y-86335714D01*
X91478571Y-86335714D01*
X89978571Y-85764285D02*
X89978571Y-84764285D01*
X91478571Y-85407142D01*
X89978571Y-83907142D02*
X89978571Y-83764285D01*
X90050000Y-83621428D01*
X90121428Y-83550000D01*
X90264285Y-83478571D01*
X90550000Y-83407142D01*
X90907142Y-83407142D01*
X91192857Y-83478571D01*
X91335714Y-83550000D01*
X91407142Y-83621428D01*
X91478571Y-83764285D01*
X91478571Y-83907142D01*
X91407142Y-84050000D01*
X91335714Y-84121428D01*
X91192857Y-84192857D01*
X90907142Y-84264285D01*
X90550000Y-84264285D01*
X90264285Y-84192857D01*
X90121428Y-84121428D01*
X90050000Y-84050000D01*
X89978571Y-83907142D01*
X89978571Y-82478571D02*
X89978571Y-82335714D01*
X90050000Y-82192857D01*
X90121428Y-82121428D01*
X90264285Y-82050000D01*
X90550000Y-81978571D01*
X90907142Y-81978571D01*
X91192857Y-82050000D01*
X91335714Y-82121428D01*
X91407142Y-82192857D01*
X91478571Y-82335714D01*
X91478571Y-82478571D01*
X91407142Y-82621428D01*
X91335714Y-82692857D01*
X91192857Y-82764285D01*
X90907142Y-82835714D01*
X90550000Y-82835714D01*
X90264285Y-82764285D01*
X90121428Y-82692857D01*
X90050000Y-82621428D01*
X89978571Y-82478571D01*
X91478571Y-80192857D02*
X90478571Y-80192857D01*
X90621428Y-80192857D02*
X90550000Y-80121428D01*
X90478571Y-79978571D01*
X90478571Y-79764285D01*
X90550000Y-79621428D01*
X90692857Y-79550000D01*
X91478571Y-79550000D01*
X90692857Y-79550000D02*
X90550000Y-79478571D01*
X90478571Y-79335714D01*
X90478571Y-79121428D01*
X90550000Y-78978571D01*
X90692857Y-78907142D01*
X91478571Y-78907142D01*
X91478571Y-78192857D02*
X90478571Y-78192857D01*
X90621428Y-78192857D02*
X90550000Y-78121428D01*
X90478571Y-77978571D01*
X90478571Y-77764285D01*
X90550000Y-77621428D01*
X90692857Y-77550000D01*
X91478571Y-77550000D01*
X90692857Y-77550000D02*
X90550000Y-77478571D01*
X90478571Y-77335714D01*
X90478571Y-77121428D01*
X90550000Y-76978571D01*
X90692857Y-76907142D01*
X91478571Y-76907142D01*
X92900000Y-102900000D02*
X92900000Y-63200000D01*
X100700000Y-102900000D02*
X92313579Y-102900000D01*
X100700000Y-63200000D02*
X92313579Y-63200000D01*
X92900000Y-63200000D02*
X93486421Y-64326504D01*
X92900000Y-63200000D02*
X92313579Y-64326504D01*
X92900000Y-102900000D02*
X93486421Y-101773496D01*
X92900000Y-102900000D02*
X92313579Y-101773496D01*
X116640429Y-52752013D02*
X116712167Y-52680896D01*
X116855334Y-52610089D01*
X117212473Y-52611642D01*
X117355018Y-52683691D01*
X117426136Y-52755429D01*
X117496942Y-52898596D01*
X117496321Y-53041451D01*
X117423962Y-53255424D01*
X116563100Y-54108833D01*
X117491663Y-54112870D01*
X117998180Y-52615058D02*
X118926743Y-52619095D01*
X118424263Y-53188344D01*
X118638547Y-53189276D01*
X118781092Y-53261325D01*
X118852209Y-53333064D01*
X118923016Y-53476230D01*
X118921463Y-53833369D01*
X118849414Y-53975915D01*
X118777676Y-54047032D01*
X118634509Y-54117839D01*
X118205942Y-54115975D01*
X118063397Y-54043926D01*
X117992279Y-53972188D01*
X119563693Y-53979020D02*
X119634810Y-54050759D01*
X119563072Y-54121876D01*
X119491955Y-54050137D01*
X119563693Y-53979020D01*
X119563072Y-54121876D01*
X120569584Y-52626238D02*
X120712440Y-52626859D01*
X120854985Y-52698908D01*
X120926103Y-52770646D01*
X120996909Y-52913813D01*
X121067095Y-53199835D01*
X121065542Y-53556974D01*
X120992872Y-53842375D01*
X120920823Y-53984921D01*
X120849085Y-54056038D01*
X120705918Y-54126845D01*
X120563063Y-54126224D01*
X120420517Y-54054175D01*
X120349400Y-53982436D01*
X120278593Y-53839270D01*
X120208408Y-53553248D01*
X120209960Y-53196108D01*
X120282630Y-52910707D01*
X120354679Y-52768162D01*
X120426418Y-52697045D01*
X120569584Y-52626238D01*
X121998142Y-52632449D02*
X122140998Y-52633070D01*
X122283543Y-52705119D01*
X122354661Y-52776858D01*
X122425467Y-52920024D01*
X122495653Y-53206046D01*
X122494100Y-53563186D01*
X122421430Y-53848587D01*
X122349381Y-53991132D01*
X122277643Y-54062249D01*
X122134476Y-54133056D01*
X121991620Y-54132435D01*
X121849075Y-54060386D01*
X121777958Y-53988647D01*
X121707151Y-53845481D01*
X121636965Y-53559459D01*
X121638518Y-53202319D01*
X121711188Y-52916918D01*
X121783237Y-52774373D01*
X121854976Y-52703256D01*
X121998142Y-52632449D01*
X123426700Y-52638660D02*
X123569556Y-52639281D01*
X123712101Y-52711330D01*
X123783218Y-52783069D01*
X123854025Y-52926235D01*
X123924211Y-53212257D01*
X123922658Y-53569397D01*
X123849988Y-53854798D01*
X123777939Y-53997343D01*
X123706201Y-54068460D01*
X123563034Y-54139267D01*
X123420178Y-54138646D01*
X123277633Y-54066597D01*
X123206516Y-53994859D01*
X123135709Y-53851692D01*
X123065523Y-53565670D01*
X123067076Y-53208531D01*
X123139746Y-52923130D01*
X123211795Y-52780584D01*
X123283534Y-52709467D01*
X123426700Y-52638660D01*
X125705871Y-54148584D02*
X125710219Y-53148593D01*
X125709598Y-53291449D02*
X125781336Y-53220332D01*
X125924503Y-53149525D01*
X126138786Y-53150457D01*
X126281331Y-53222506D01*
X126352138Y-53365672D01*
X126348722Y-54151379D01*
X126352138Y-53365672D02*
X126424187Y-53223127D01*
X126567354Y-53152320D01*
X126781637Y-53153252D01*
X126924183Y-53225301D01*
X126994989Y-53368467D01*
X126991573Y-54154174D01*
X127705852Y-54157279D02*
X127710200Y-53157289D01*
X127709579Y-53300145D02*
X127781317Y-53229027D01*
X127924484Y-53158220D01*
X128138767Y-53159152D01*
X128281313Y-53231201D01*
X128352119Y-53374367D01*
X128348703Y-54160074D01*
X128352119Y-53374367D02*
X128424168Y-53231822D01*
X128567335Y-53161015D01*
X128781618Y-53161947D01*
X128924164Y-53233996D01*
X128994970Y-53377162D01*
X128991554Y-54162869D01*
X111342576Y-55507577D02*
X134342576Y-55607577D01*
X111300000Y-65300000D02*
X111345125Y-54921161D01*
X134300000Y-65400000D02*
X134345125Y-55021161D01*
X134342576Y-55607577D02*
X133213533Y-56189094D01*
X134342576Y-55607577D02*
X133218633Y-55016264D01*
X111342576Y-55507577D02*
X112466519Y-56098890D01*
X111342576Y-55507577D02*
X112471619Y-54926060D01*
M02*
