G04 #@! TF.GenerationSoftware,KiCad,Pcbnew,(5.1.5-0-10_14)*
G04 #@! TF.CreationDate,2020-04-27T22:25:58+02:00*
G04 #@! TF.ProjectId,ESP12-Domo,45535031-322d-4446-9f6d-6f2e6b696361,rev?*
G04 #@! TF.SameCoordinates,Original*
G04 #@! TF.FileFunction,Copper,L1,Top*
G04 #@! TF.FilePolarity,Positive*
%FSLAX46Y46*%
G04 Gerber Fmt 4.6, Leading zero omitted, Abs format (unit mm)*
G04 Created by KiCad (PCBNEW (5.1.5-0-10_14)) date 2020-04-27 22:25:58*
%MOMM*%
%LPD*%
G04 APERTURE LIST*
%ADD10R,1.700000X1.700000*%
%ADD11O,1.700000X1.700000*%
%ADD12R,0.889000X1.397000*%
%ADD13R,1.397000X0.889000*%
%ADD14R,1.998980X1.600200*%
%ADD15C,0.800000*%
%ADD16C,0.250000*%
%ADD17C,0.254000*%
G04 APERTURE END LIST*
D10*
X140700000Y-88800000D03*
D11*
X140700000Y-86260000D03*
X140700000Y-83720000D03*
X140700000Y-81180000D03*
X140700000Y-78640000D03*
X140700000Y-76100000D03*
X140700000Y-73560000D03*
X140700000Y-71020000D03*
X140700000Y-68480000D03*
X140700000Y-65940000D03*
D10*
X105700000Y-65300000D03*
D11*
X105700000Y-67840000D03*
X105700000Y-70380000D03*
X105700000Y-72920000D03*
X105700000Y-75460000D03*
X105700000Y-78000000D03*
X105700000Y-80540000D03*
X105700000Y-83080000D03*
X105700000Y-85620000D03*
D10*
X105700000Y-93200000D03*
D11*
X105700000Y-95740000D03*
X105700000Y-98280000D03*
D10*
X111300000Y-65300000D03*
D11*
X111300000Y-67840000D03*
X111300000Y-70380000D03*
X111300000Y-72920000D03*
X111300000Y-75460000D03*
X111300000Y-78000000D03*
X111300000Y-80540000D03*
X111300000Y-83080000D03*
X111300000Y-85620000D03*
X111300000Y-88160000D03*
X111300000Y-90700000D03*
X111300000Y-93240000D03*
X111300000Y-95780000D03*
X111300000Y-98320000D03*
X111300000Y-100860000D03*
D10*
X150600000Y-66000000D03*
D11*
X153140000Y-66000000D03*
X155680000Y-66000000D03*
X158220000Y-66000000D03*
X134300000Y-65290000D03*
X134300000Y-67830000D03*
X134300000Y-70370000D03*
X134300000Y-72910000D03*
X134300000Y-75450000D03*
X134300000Y-77990000D03*
X134300000Y-80530000D03*
X134300000Y-83070000D03*
X134300000Y-85610000D03*
X134300000Y-88150000D03*
X134300000Y-90690000D03*
X134300000Y-93230000D03*
X134300000Y-95770000D03*
X134300000Y-98310000D03*
D10*
X134300000Y-100850000D03*
X143000000Y-93983500D03*
D11*
X145540000Y-93983500D03*
X143000000Y-96523500D03*
X145540000Y-96523500D03*
X143000000Y-99063500D03*
X145540000Y-99063500D03*
X155040000Y-99063500D03*
X152500000Y-99063500D03*
X155040000Y-96523500D03*
X152500000Y-96523500D03*
X155040000Y-93983500D03*
D10*
X152500000Y-93983500D03*
D12*
X105105000Y-89600000D03*
X103200000Y-89600000D03*
D13*
X149100000Y-93047500D03*
X149100000Y-94952500D03*
D14*
X156799740Y-73700000D03*
X150800260Y-73700000D03*
X150800260Y-81000000D03*
X156799740Y-81000000D03*
X156799740Y-88300000D03*
X150800260Y-88300000D03*
D15*
X106600000Y-89500000D03*
X149100000Y-97000000D03*
D16*
X106500000Y-89600000D02*
X106600000Y-89500000D01*
X105052500Y-89600000D02*
X106500000Y-89600000D01*
X149100000Y-94952500D02*
X149100000Y-97000000D01*
X105700000Y-65300000D02*
X111300000Y-65300000D01*
X106902081Y-67840000D02*
X111300000Y-67840000D01*
X105700000Y-67840000D02*
X106902081Y-67840000D01*
X105700000Y-70380000D02*
X111300000Y-70380000D01*
X105700000Y-72920000D02*
X111300000Y-72920000D01*
X105700000Y-75460000D02*
X111300000Y-75460000D01*
X105700000Y-78000000D02*
X111300000Y-78000000D01*
X105700000Y-80540000D02*
X111300000Y-80540000D01*
X105700000Y-83080000D02*
X111300000Y-83080000D01*
X105700000Y-85620000D02*
X111300000Y-85620000D01*
X140100000Y-88800000D02*
X140700000Y-88800000D01*
X137200000Y-94072081D02*
X137200000Y-91700000D01*
X135502081Y-95770000D02*
X137200000Y-94072081D01*
X137200000Y-91700000D02*
X140100000Y-88800000D01*
X134300000Y-95770000D02*
X135502081Y-95770000D01*
X138700000Y-88260000D02*
X140700000Y-86260000D01*
X136400000Y-90560000D02*
X138700000Y-88260000D01*
X136400000Y-92800000D02*
X136400000Y-90560000D01*
X134300000Y-93230000D02*
X135502081Y-93230000D01*
X135532081Y-93200000D02*
X136000000Y-93200000D01*
X135502081Y-93230000D02*
X135532081Y-93200000D01*
X136000000Y-93200000D02*
X136400000Y-92800000D01*
X137900000Y-86520000D02*
X140700000Y-83720000D01*
X137900000Y-87090000D02*
X137900000Y-86520000D01*
X134300000Y-90690000D02*
X137900000Y-87090000D01*
X137300000Y-84580000D02*
X140700000Y-81180000D01*
X137300000Y-85600000D02*
X137300000Y-84580000D01*
X134750000Y-88150000D02*
X137300000Y-85600000D01*
X134300000Y-88150000D02*
X134750000Y-88150000D01*
X136700000Y-83900000D02*
X136700000Y-82640000D01*
X136700000Y-82640000D02*
X140700000Y-78640000D01*
X134990000Y-85610000D02*
X136700000Y-83900000D01*
X134300000Y-85610000D02*
X134990000Y-85610000D01*
X137700000Y-79100000D02*
X140700000Y-76100000D01*
X137700000Y-80100000D02*
X137700000Y-79100000D01*
X134730000Y-83070000D02*
X137700000Y-80100000D01*
X134300000Y-83070000D02*
X134730000Y-83070000D01*
X148600000Y-87500000D02*
X149400000Y-88300000D01*
X141800000Y-76100000D02*
X148600000Y-82900000D01*
X149400000Y-88300000D02*
X150800260Y-88300000D01*
X148600000Y-82900000D02*
X148600000Y-87500000D01*
X140700000Y-76100000D02*
X141800000Y-76100000D01*
X134300000Y-75450000D02*
X136750000Y-75450000D01*
X138640000Y-73560000D02*
X140700000Y-73560000D01*
X136750000Y-75450000D02*
X138640000Y-73560000D01*
X149600000Y-81000000D02*
X150800260Y-81000000D01*
X142160000Y-73560000D02*
X149600000Y-81000000D01*
X140700000Y-73560000D02*
X142160000Y-73560000D01*
X134300000Y-72910000D02*
X136090000Y-72910000D01*
X137980000Y-71020000D02*
X140700000Y-71020000D01*
X136090000Y-72910000D02*
X137980000Y-71020000D01*
X140700000Y-71020000D02*
X146420000Y-71020000D01*
X149100000Y-73700000D02*
X150800260Y-73700000D01*
X146420000Y-71020000D02*
X149100000Y-73700000D01*
X134300000Y-70370000D02*
X136330000Y-70370000D01*
X138220000Y-68480000D02*
X140700000Y-68480000D01*
X136330000Y-70370000D02*
X138220000Y-68480000D01*
X151720000Y-68480000D02*
X153140000Y-67060000D01*
X153140000Y-67060000D02*
X153140000Y-66000000D01*
X140700000Y-68480000D02*
X151720000Y-68480000D01*
X134300000Y-67830000D02*
X136570000Y-67830000D01*
X138460000Y-65940000D02*
X140700000Y-65940000D01*
X136570000Y-67830000D02*
X138460000Y-65940000D01*
X111260000Y-93200000D02*
X111300000Y-93240000D01*
X105700000Y-93200000D02*
X111260000Y-93200000D01*
X111260000Y-95740000D02*
X111300000Y-95780000D01*
X105700000Y-95740000D02*
X111260000Y-95740000D01*
X108280000Y-100860000D02*
X111300000Y-100860000D01*
X105700000Y-98280000D02*
X108280000Y-100860000D01*
D17*
G36*
X104398815Y-63998815D02*
G01*
X104319463Y-64095506D01*
X104260498Y-64205820D01*
X104224188Y-64325518D01*
X104211928Y-64450000D01*
X104211928Y-66150000D01*
X104224188Y-66274482D01*
X104260498Y-66394180D01*
X104319463Y-66504494D01*
X104398815Y-66601185D01*
X104495506Y-66680537D01*
X104605820Y-66739502D01*
X104678380Y-66761513D01*
X104546525Y-66893368D01*
X104384010Y-67136589D01*
X104272068Y-67406842D01*
X104215000Y-67693740D01*
X104215000Y-67986260D01*
X104272068Y-68273158D01*
X104384010Y-68543411D01*
X104546525Y-68786632D01*
X104753368Y-68993475D01*
X104927760Y-69110000D01*
X104753368Y-69226525D01*
X104546525Y-69433368D01*
X104384010Y-69676589D01*
X104272068Y-69946842D01*
X104215000Y-70233740D01*
X104215000Y-70526260D01*
X104272068Y-70813158D01*
X104384010Y-71083411D01*
X104546525Y-71326632D01*
X104753368Y-71533475D01*
X104927760Y-71650000D01*
X104753368Y-71766525D01*
X104546525Y-71973368D01*
X104384010Y-72216589D01*
X104272068Y-72486842D01*
X104215000Y-72773740D01*
X104215000Y-73066260D01*
X104272068Y-73353158D01*
X104384010Y-73623411D01*
X104546525Y-73866632D01*
X104753368Y-74073475D01*
X104927760Y-74190000D01*
X104753368Y-74306525D01*
X104546525Y-74513368D01*
X104384010Y-74756589D01*
X104272068Y-75026842D01*
X104215000Y-75313740D01*
X104215000Y-75606260D01*
X104272068Y-75893158D01*
X104384010Y-76163411D01*
X104546525Y-76406632D01*
X104753368Y-76613475D01*
X104927760Y-76730000D01*
X104753368Y-76846525D01*
X104546525Y-77053368D01*
X104384010Y-77296589D01*
X104272068Y-77566842D01*
X104215000Y-77853740D01*
X104215000Y-78146260D01*
X104272068Y-78433158D01*
X104384010Y-78703411D01*
X104546525Y-78946632D01*
X104753368Y-79153475D01*
X104927760Y-79270000D01*
X104753368Y-79386525D01*
X104546525Y-79593368D01*
X104384010Y-79836589D01*
X104272068Y-80106842D01*
X104215000Y-80393740D01*
X104215000Y-80686260D01*
X104272068Y-80973158D01*
X104384010Y-81243411D01*
X104546525Y-81486632D01*
X104753368Y-81693475D01*
X104927760Y-81810000D01*
X104753368Y-81926525D01*
X104546525Y-82133368D01*
X104384010Y-82376589D01*
X104272068Y-82646842D01*
X104215000Y-82933740D01*
X104215000Y-83226260D01*
X104272068Y-83513158D01*
X104384010Y-83783411D01*
X104546525Y-84026632D01*
X104753368Y-84233475D01*
X104927760Y-84350000D01*
X104753368Y-84466525D01*
X104546525Y-84673368D01*
X104384010Y-84916589D01*
X104272068Y-85186842D01*
X104215000Y-85473740D01*
X104215000Y-85766260D01*
X104272068Y-86053158D01*
X104384010Y-86323411D01*
X104546525Y-86566632D01*
X104753368Y-86773475D01*
X104996589Y-86935990D01*
X105266842Y-87047932D01*
X105553740Y-87105000D01*
X105846260Y-87105000D01*
X106133158Y-87047932D01*
X106403411Y-86935990D01*
X106646632Y-86773475D01*
X106853475Y-86566632D01*
X106978178Y-86380000D01*
X110021822Y-86380000D01*
X110146525Y-86566632D01*
X110353368Y-86773475D01*
X110535534Y-86895195D01*
X110418645Y-86964822D01*
X110202412Y-87159731D01*
X110028359Y-87393080D01*
X109903175Y-87655901D01*
X109858524Y-87803110D01*
X109979845Y-88033000D01*
X111173000Y-88033000D01*
X111173000Y-88013000D01*
X111427000Y-88013000D01*
X111427000Y-88033000D01*
X112620155Y-88033000D01*
X112741476Y-87803110D01*
X112696825Y-87655901D01*
X112571641Y-87393080D01*
X112397588Y-87159731D01*
X112181355Y-86964822D01*
X112064466Y-86895195D01*
X112246632Y-86773475D01*
X112453475Y-86566632D01*
X112615990Y-86323411D01*
X112727932Y-86053158D01*
X112785000Y-85766260D01*
X112785000Y-85473740D01*
X112727932Y-85186842D01*
X112615990Y-84916589D01*
X112453475Y-84673368D01*
X112246632Y-84466525D01*
X112072240Y-84350000D01*
X112246632Y-84233475D01*
X112453475Y-84026632D01*
X112615990Y-83783411D01*
X112727932Y-83513158D01*
X112785000Y-83226260D01*
X112785000Y-82933740D01*
X112727932Y-82646842D01*
X112615990Y-82376589D01*
X112453475Y-82133368D01*
X112246632Y-81926525D01*
X112072240Y-81810000D01*
X112246632Y-81693475D01*
X112453475Y-81486632D01*
X112615990Y-81243411D01*
X112727932Y-80973158D01*
X112785000Y-80686260D01*
X112785000Y-80393740D01*
X112727932Y-80106842D01*
X112615990Y-79836589D01*
X112453475Y-79593368D01*
X112246632Y-79386525D01*
X112072240Y-79270000D01*
X112246632Y-79153475D01*
X112453475Y-78946632D01*
X112615990Y-78703411D01*
X112727932Y-78433158D01*
X112785000Y-78146260D01*
X112785000Y-77853740D01*
X112727932Y-77566842D01*
X112615990Y-77296589D01*
X112453475Y-77053368D01*
X112246632Y-76846525D01*
X112072240Y-76730000D01*
X112246632Y-76613475D01*
X112453475Y-76406632D01*
X112615990Y-76163411D01*
X112727932Y-75893158D01*
X112785000Y-75606260D01*
X112785000Y-75313740D01*
X112727932Y-75026842D01*
X112615990Y-74756589D01*
X112453475Y-74513368D01*
X112246632Y-74306525D01*
X112072240Y-74190000D01*
X112246632Y-74073475D01*
X112453475Y-73866632D01*
X112615990Y-73623411D01*
X112727932Y-73353158D01*
X112785000Y-73066260D01*
X112785000Y-72773740D01*
X112727932Y-72486842D01*
X112615990Y-72216589D01*
X112453475Y-71973368D01*
X112246632Y-71766525D01*
X112072240Y-71650000D01*
X112246632Y-71533475D01*
X112453475Y-71326632D01*
X112615990Y-71083411D01*
X112727932Y-70813158D01*
X112785000Y-70526260D01*
X112785000Y-70233740D01*
X112727932Y-69946842D01*
X112615990Y-69676589D01*
X112453475Y-69433368D01*
X112246632Y-69226525D01*
X112072240Y-69110000D01*
X112246632Y-68993475D01*
X112453475Y-68786632D01*
X112615990Y-68543411D01*
X112727932Y-68273158D01*
X112785000Y-67986260D01*
X112785000Y-67693740D01*
X112727932Y-67406842D01*
X112615990Y-67136589D01*
X112453475Y-66893368D01*
X112321620Y-66761513D01*
X112394180Y-66739502D01*
X112504494Y-66680537D01*
X112601185Y-66601185D01*
X112680537Y-66504494D01*
X112739502Y-66394180D01*
X112775812Y-66274482D01*
X112788072Y-66150000D01*
X112788072Y-64450000D01*
X112775812Y-64325518D01*
X112739502Y-64205820D01*
X112680537Y-64095506D01*
X112601185Y-63998815D01*
X112523426Y-63935000D01*
X133690768Y-63935000D01*
X133596589Y-63974010D01*
X133353368Y-64136525D01*
X133146525Y-64343368D01*
X132984010Y-64586589D01*
X132872068Y-64856842D01*
X132815000Y-65143740D01*
X132815000Y-65436260D01*
X132872068Y-65723158D01*
X132984010Y-65993411D01*
X133146525Y-66236632D01*
X133353368Y-66443475D01*
X133527760Y-66560000D01*
X133353368Y-66676525D01*
X133146525Y-66883368D01*
X132984010Y-67126589D01*
X132872068Y-67396842D01*
X132815000Y-67683740D01*
X132815000Y-67976260D01*
X132872068Y-68263158D01*
X132984010Y-68533411D01*
X133146525Y-68776632D01*
X133353368Y-68983475D01*
X133527760Y-69100000D01*
X133353368Y-69216525D01*
X133146525Y-69423368D01*
X132984010Y-69666589D01*
X132872068Y-69936842D01*
X132815000Y-70223740D01*
X132815000Y-70516260D01*
X132872068Y-70803158D01*
X132984010Y-71073411D01*
X133146525Y-71316632D01*
X133353368Y-71523475D01*
X133527760Y-71640000D01*
X133353368Y-71756525D01*
X133146525Y-71963368D01*
X132984010Y-72206589D01*
X132872068Y-72476842D01*
X132815000Y-72763740D01*
X132815000Y-73056260D01*
X132872068Y-73343158D01*
X132984010Y-73613411D01*
X133146525Y-73856632D01*
X133353368Y-74063475D01*
X133527760Y-74180000D01*
X133353368Y-74296525D01*
X133146525Y-74503368D01*
X132984010Y-74746589D01*
X132872068Y-75016842D01*
X132815000Y-75303740D01*
X132815000Y-75596260D01*
X132872068Y-75883158D01*
X132984010Y-76153411D01*
X133146525Y-76396632D01*
X133353368Y-76603475D01*
X133527760Y-76720000D01*
X133353368Y-76836525D01*
X133146525Y-77043368D01*
X132984010Y-77286589D01*
X132872068Y-77556842D01*
X132815000Y-77843740D01*
X132815000Y-78136260D01*
X132872068Y-78423158D01*
X132984010Y-78693411D01*
X133146525Y-78936632D01*
X133353368Y-79143475D01*
X133535534Y-79265195D01*
X133418645Y-79334822D01*
X133202412Y-79529731D01*
X133028359Y-79763080D01*
X132903175Y-80025901D01*
X132858524Y-80173110D01*
X132979845Y-80403000D01*
X134173000Y-80403000D01*
X134173000Y-80383000D01*
X134427000Y-80383000D01*
X134427000Y-80403000D01*
X135620155Y-80403000D01*
X135741476Y-80173110D01*
X135696825Y-80025901D01*
X135571641Y-79763080D01*
X135397588Y-79529731D01*
X135181355Y-79334822D01*
X135064466Y-79265195D01*
X135246632Y-79143475D01*
X135453475Y-78936632D01*
X135615990Y-78693411D01*
X135727932Y-78423158D01*
X135785000Y-78136260D01*
X135785000Y-77843740D01*
X135727932Y-77556842D01*
X135615990Y-77286589D01*
X135453475Y-77043368D01*
X135246632Y-76836525D01*
X135072240Y-76720000D01*
X135246632Y-76603475D01*
X135453475Y-76396632D01*
X135578178Y-76210000D01*
X136712678Y-76210000D01*
X136750000Y-76213676D01*
X136787322Y-76210000D01*
X136787333Y-76210000D01*
X136898986Y-76199003D01*
X137042247Y-76155546D01*
X137174276Y-76084974D01*
X137290001Y-75990001D01*
X137313804Y-75960997D01*
X138954802Y-74320000D01*
X139421822Y-74320000D01*
X139546525Y-74506632D01*
X139753368Y-74713475D01*
X139927760Y-74830000D01*
X139753368Y-74946525D01*
X139546525Y-75153368D01*
X139384010Y-75396589D01*
X139272068Y-75666842D01*
X139215000Y-75953740D01*
X139215000Y-76246260D01*
X139258790Y-76466408D01*
X137188998Y-78536201D01*
X137160000Y-78559999D01*
X137136202Y-78588997D01*
X137136201Y-78588998D01*
X137065026Y-78675724D01*
X136994454Y-78807754D01*
X136964180Y-78907558D01*
X136952328Y-78946632D01*
X136950998Y-78951015D01*
X136936324Y-79100000D01*
X136940001Y-79137332D01*
X136940000Y-79785198D01*
X135699318Y-81025881D01*
X135741476Y-80886890D01*
X135620155Y-80657000D01*
X134427000Y-80657000D01*
X134427000Y-80677000D01*
X134173000Y-80677000D01*
X134173000Y-80657000D01*
X132979845Y-80657000D01*
X132858524Y-80886890D01*
X132903175Y-81034099D01*
X133028359Y-81296920D01*
X133202412Y-81530269D01*
X133418645Y-81725178D01*
X133535534Y-81794805D01*
X133353368Y-81916525D01*
X133146525Y-82123368D01*
X132984010Y-82366589D01*
X132872068Y-82636842D01*
X132815000Y-82923740D01*
X132815000Y-83216260D01*
X132872068Y-83503158D01*
X132984010Y-83773411D01*
X133146525Y-84016632D01*
X133353368Y-84223475D01*
X133527760Y-84340000D01*
X133353368Y-84456525D01*
X133146525Y-84663368D01*
X132984010Y-84906589D01*
X132872068Y-85176842D01*
X132815000Y-85463740D01*
X132815000Y-85756260D01*
X132872068Y-86043158D01*
X132984010Y-86313411D01*
X133146525Y-86556632D01*
X133353368Y-86763475D01*
X133527760Y-86880000D01*
X133353368Y-86996525D01*
X133146525Y-87203368D01*
X132984010Y-87446589D01*
X132872068Y-87716842D01*
X132815000Y-88003740D01*
X132815000Y-88296260D01*
X132872068Y-88583158D01*
X132984010Y-88853411D01*
X133146525Y-89096632D01*
X133353368Y-89303475D01*
X133527760Y-89420000D01*
X133353368Y-89536525D01*
X133146525Y-89743368D01*
X132984010Y-89986589D01*
X132872068Y-90256842D01*
X132815000Y-90543740D01*
X132815000Y-90836260D01*
X132872068Y-91123158D01*
X132984010Y-91393411D01*
X133146525Y-91636632D01*
X133353368Y-91843475D01*
X133527760Y-91960000D01*
X133353368Y-92076525D01*
X133146525Y-92283368D01*
X132984010Y-92526589D01*
X132872068Y-92796842D01*
X132815000Y-93083740D01*
X132815000Y-93376260D01*
X132872068Y-93663158D01*
X132984010Y-93933411D01*
X133146525Y-94176632D01*
X133353368Y-94383475D01*
X133527760Y-94500000D01*
X133353368Y-94616525D01*
X133146525Y-94823368D01*
X132984010Y-95066589D01*
X132872068Y-95336842D01*
X132815000Y-95623740D01*
X132815000Y-95916260D01*
X132872068Y-96203158D01*
X132984010Y-96473411D01*
X133146525Y-96716632D01*
X133353368Y-96923475D01*
X133535534Y-97045195D01*
X133418645Y-97114822D01*
X133202412Y-97309731D01*
X133028359Y-97543080D01*
X132903175Y-97805901D01*
X132858524Y-97953110D01*
X132979845Y-98183000D01*
X134173000Y-98183000D01*
X134173000Y-98163000D01*
X134427000Y-98163000D01*
X134427000Y-98183000D01*
X135620155Y-98183000D01*
X135741476Y-97953110D01*
X135696825Y-97805901D01*
X135571641Y-97543080D01*
X135397588Y-97309731D01*
X135181355Y-97114822D01*
X135064466Y-97045195D01*
X135246632Y-96923475D01*
X135453475Y-96716632D01*
X135580909Y-96525913D01*
X135651067Y-96519003D01*
X135794328Y-96475546D01*
X135926357Y-96404974D01*
X136042082Y-96310001D01*
X136065885Y-96280997D01*
X137711004Y-94635879D01*
X137740001Y-94612082D01*
X137766332Y-94579998D01*
X137834974Y-94496358D01*
X137905546Y-94364328D01*
X137919743Y-94317526D01*
X137949003Y-94221067D01*
X137960000Y-94109414D01*
X137960000Y-94109405D01*
X137963676Y-94072082D01*
X137960000Y-94034759D01*
X137960000Y-93133500D01*
X141511928Y-93133500D01*
X141511928Y-94833500D01*
X141524188Y-94957982D01*
X141560498Y-95077680D01*
X141619463Y-95187994D01*
X141698815Y-95284685D01*
X141795506Y-95364037D01*
X141905820Y-95423002D01*
X141978380Y-95445013D01*
X141846525Y-95576868D01*
X141684010Y-95820089D01*
X141572068Y-96090342D01*
X141515000Y-96377240D01*
X141515000Y-96669760D01*
X141572068Y-96956658D01*
X141684010Y-97226911D01*
X141846525Y-97470132D01*
X142053368Y-97676975D01*
X142227760Y-97793500D01*
X142053368Y-97910025D01*
X141846525Y-98116868D01*
X141684010Y-98360089D01*
X141572068Y-98630342D01*
X141515000Y-98917240D01*
X141515000Y-99209760D01*
X141572068Y-99496658D01*
X141684010Y-99766911D01*
X141846525Y-100010132D01*
X142053368Y-100216975D01*
X142296589Y-100379490D01*
X142566842Y-100491432D01*
X142853740Y-100548500D01*
X143146260Y-100548500D01*
X143433158Y-100491432D01*
X143703411Y-100379490D01*
X143946632Y-100216975D01*
X144153475Y-100010132D01*
X144270000Y-99835740D01*
X144386525Y-100010132D01*
X144593368Y-100216975D01*
X144836589Y-100379490D01*
X145106842Y-100491432D01*
X145393740Y-100548500D01*
X145686260Y-100548500D01*
X145973158Y-100491432D01*
X146243411Y-100379490D01*
X146486632Y-100216975D01*
X146693475Y-100010132D01*
X146855990Y-99766911D01*
X146967932Y-99496658D01*
X146983102Y-99420390D01*
X151058524Y-99420390D01*
X151103175Y-99567599D01*
X151228359Y-99830420D01*
X151402412Y-100063769D01*
X151618645Y-100258678D01*
X151868748Y-100407657D01*
X152143109Y-100504981D01*
X152373000Y-100384314D01*
X152373000Y-99190500D01*
X152627000Y-99190500D01*
X152627000Y-100384314D01*
X152856891Y-100504981D01*
X153131252Y-100407657D01*
X153381355Y-100258678D01*
X153597588Y-100063769D01*
X153770000Y-99832620D01*
X153942412Y-100063769D01*
X154158645Y-100258678D01*
X154408748Y-100407657D01*
X154683109Y-100504981D01*
X154913000Y-100384314D01*
X154913000Y-99190500D01*
X155167000Y-99190500D01*
X155167000Y-100384314D01*
X155396891Y-100504981D01*
X155671252Y-100407657D01*
X155921355Y-100258678D01*
X156137588Y-100063769D01*
X156311641Y-99830420D01*
X156436825Y-99567599D01*
X156481476Y-99420390D01*
X156360155Y-99190500D01*
X155167000Y-99190500D01*
X154913000Y-99190500D01*
X152627000Y-99190500D01*
X152373000Y-99190500D01*
X151179845Y-99190500D01*
X151058524Y-99420390D01*
X146983102Y-99420390D01*
X147025000Y-99209760D01*
X147025000Y-98917240D01*
X146967932Y-98630342D01*
X146855990Y-98360089D01*
X146693475Y-98116868D01*
X146486632Y-97910025D01*
X146312240Y-97793500D01*
X146486632Y-97676975D01*
X146693475Y-97470132D01*
X146855990Y-97226911D01*
X146967932Y-96956658D01*
X147025000Y-96669760D01*
X147025000Y-96377240D01*
X146967932Y-96090342D01*
X146855990Y-95820089D01*
X146693475Y-95576868D01*
X146486632Y-95370025D01*
X146312240Y-95253500D01*
X146486632Y-95136975D01*
X146693475Y-94930132D01*
X146855990Y-94686911D01*
X146967932Y-94416658D01*
X147025000Y-94129760D01*
X147025000Y-93837240D01*
X146967932Y-93550342D01*
X146943767Y-93492000D01*
X147763428Y-93492000D01*
X147775688Y-93616482D01*
X147811998Y-93736180D01*
X147870963Y-93846494D01*
X147950315Y-93943185D01*
X148019544Y-94000000D01*
X147950315Y-94056815D01*
X147870963Y-94153506D01*
X147811998Y-94263820D01*
X147775688Y-94383518D01*
X147763428Y-94508000D01*
X147763428Y-95397000D01*
X147775688Y-95521482D01*
X147811998Y-95641180D01*
X147870963Y-95751494D01*
X147950315Y-95848185D01*
X148047006Y-95927537D01*
X148157320Y-95986502D01*
X148277018Y-96022812D01*
X148340001Y-96029015D01*
X148340001Y-96296288D01*
X148296063Y-96340226D01*
X148182795Y-96509744D01*
X148104774Y-96698102D01*
X148065000Y-96898061D01*
X148065000Y-97101939D01*
X148104774Y-97301898D01*
X148182795Y-97490256D01*
X148296063Y-97659774D01*
X148440226Y-97803937D01*
X148609744Y-97917205D01*
X148798102Y-97995226D01*
X148998061Y-98035000D01*
X149201939Y-98035000D01*
X149401898Y-97995226D01*
X149590256Y-97917205D01*
X149759774Y-97803937D01*
X149903937Y-97659774D01*
X150017205Y-97490256D01*
X150095226Y-97301898D01*
X150135000Y-97101939D01*
X150135000Y-96898061D01*
X150131486Y-96880390D01*
X151058524Y-96880390D01*
X151103175Y-97027599D01*
X151228359Y-97290420D01*
X151402412Y-97523769D01*
X151618645Y-97718678D01*
X151744255Y-97793500D01*
X151618645Y-97868322D01*
X151402412Y-98063231D01*
X151228359Y-98296580D01*
X151103175Y-98559401D01*
X151058524Y-98706610D01*
X151179845Y-98936500D01*
X152373000Y-98936500D01*
X152373000Y-96650500D01*
X152627000Y-96650500D01*
X152627000Y-98936500D01*
X154913000Y-98936500D01*
X154913000Y-96650500D01*
X155167000Y-96650500D01*
X155167000Y-98936500D01*
X156360155Y-98936500D01*
X156481476Y-98706610D01*
X156436825Y-98559401D01*
X156311641Y-98296580D01*
X156137588Y-98063231D01*
X155921355Y-97868322D01*
X155795745Y-97793500D01*
X155921355Y-97718678D01*
X156137588Y-97523769D01*
X156311641Y-97290420D01*
X156436825Y-97027599D01*
X156481476Y-96880390D01*
X156360155Y-96650500D01*
X155167000Y-96650500D01*
X154913000Y-96650500D01*
X152627000Y-96650500D01*
X152373000Y-96650500D01*
X151179845Y-96650500D01*
X151058524Y-96880390D01*
X150131486Y-96880390D01*
X150095226Y-96698102D01*
X150017205Y-96509744D01*
X149903937Y-96340226D01*
X149860000Y-96296289D01*
X149860000Y-96029015D01*
X149922982Y-96022812D01*
X150042680Y-95986502D01*
X150152994Y-95927537D01*
X150249685Y-95848185D01*
X150329037Y-95751494D01*
X150388002Y-95641180D01*
X150424312Y-95521482D01*
X150436572Y-95397000D01*
X150436572Y-94833500D01*
X151011928Y-94833500D01*
X151024188Y-94957982D01*
X151060498Y-95077680D01*
X151119463Y-95187994D01*
X151198815Y-95284685D01*
X151295506Y-95364037D01*
X151405820Y-95423002D01*
X151486466Y-95447466D01*
X151402412Y-95523231D01*
X151228359Y-95756580D01*
X151103175Y-96019401D01*
X151058524Y-96166610D01*
X151179845Y-96396500D01*
X152373000Y-96396500D01*
X152373000Y-94110500D01*
X152627000Y-94110500D01*
X152627000Y-96396500D01*
X154913000Y-96396500D01*
X154913000Y-94110500D01*
X155167000Y-94110500D01*
X155167000Y-96396500D01*
X156360155Y-96396500D01*
X156481476Y-96166610D01*
X156436825Y-96019401D01*
X156311641Y-95756580D01*
X156137588Y-95523231D01*
X155921355Y-95328322D01*
X155795745Y-95253500D01*
X155921355Y-95178678D01*
X156137588Y-94983769D01*
X156311641Y-94750420D01*
X156436825Y-94487599D01*
X156481476Y-94340390D01*
X156360155Y-94110500D01*
X155167000Y-94110500D01*
X154913000Y-94110500D01*
X152627000Y-94110500D01*
X152373000Y-94110500D01*
X151173750Y-94110500D01*
X151015000Y-94269250D01*
X151011928Y-94833500D01*
X150436572Y-94833500D01*
X150436572Y-94508000D01*
X150424312Y-94383518D01*
X150388002Y-94263820D01*
X150329037Y-94153506D01*
X150249685Y-94056815D01*
X150180456Y-94000000D01*
X150249685Y-93943185D01*
X150329037Y-93846494D01*
X150388002Y-93736180D01*
X150424312Y-93616482D01*
X150436572Y-93492000D01*
X150433500Y-93333250D01*
X150274750Y-93174500D01*
X149227000Y-93174500D01*
X149227000Y-93194500D01*
X148973000Y-93194500D01*
X148973000Y-93174500D01*
X147925250Y-93174500D01*
X147766500Y-93333250D01*
X147763428Y-93492000D01*
X146943767Y-93492000D01*
X146855990Y-93280089D01*
X146758043Y-93133500D01*
X151011928Y-93133500D01*
X151015000Y-93697750D01*
X151173750Y-93856500D01*
X152373000Y-93856500D01*
X152373000Y-92657250D01*
X152627000Y-92657250D01*
X152627000Y-93856500D01*
X154913000Y-93856500D01*
X154913000Y-92662686D01*
X155167000Y-92662686D01*
X155167000Y-93856500D01*
X156360155Y-93856500D01*
X156481476Y-93626610D01*
X156436825Y-93479401D01*
X156311641Y-93216580D01*
X156137588Y-92983231D01*
X155921355Y-92788322D01*
X155671252Y-92639343D01*
X155396891Y-92542019D01*
X155167000Y-92662686D01*
X154913000Y-92662686D01*
X154683109Y-92542019D01*
X154408748Y-92639343D01*
X154158645Y-92788322D01*
X153962498Y-92965126D01*
X153939502Y-92889320D01*
X153880537Y-92779006D01*
X153801185Y-92682315D01*
X153704494Y-92602963D01*
X153594180Y-92543998D01*
X153474482Y-92507688D01*
X153350000Y-92495428D01*
X152785750Y-92498500D01*
X152627000Y-92657250D01*
X152373000Y-92657250D01*
X152214250Y-92498500D01*
X151650000Y-92495428D01*
X151525518Y-92507688D01*
X151405820Y-92543998D01*
X151295506Y-92602963D01*
X151198815Y-92682315D01*
X151119463Y-92779006D01*
X151060498Y-92889320D01*
X151024188Y-93009018D01*
X151011928Y-93133500D01*
X146758043Y-93133500D01*
X146693475Y-93036868D01*
X146486632Y-92830025D01*
X146243411Y-92667510D01*
X146087670Y-92603000D01*
X147763428Y-92603000D01*
X147766500Y-92761750D01*
X147925250Y-92920500D01*
X148973000Y-92920500D01*
X148973000Y-92126750D01*
X149227000Y-92126750D01*
X149227000Y-92920500D01*
X150274750Y-92920500D01*
X150433500Y-92761750D01*
X150436572Y-92603000D01*
X150424312Y-92478518D01*
X150388002Y-92358820D01*
X150329037Y-92248506D01*
X150249685Y-92151815D01*
X150152994Y-92072463D01*
X150042680Y-92013498D01*
X149922982Y-91977188D01*
X149798500Y-91964928D01*
X149385750Y-91968000D01*
X149227000Y-92126750D01*
X148973000Y-92126750D01*
X148814250Y-91968000D01*
X148401500Y-91964928D01*
X148277018Y-91977188D01*
X148157320Y-92013498D01*
X148047006Y-92072463D01*
X147950315Y-92151815D01*
X147870963Y-92248506D01*
X147811998Y-92358820D01*
X147775688Y-92478518D01*
X147763428Y-92603000D01*
X146087670Y-92603000D01*
X145973158Y-92555568D01*
X145686260Y-92498500D01*
X145393740Y-92498500D01*
X145106842Y-92555568D01*
X144836589Y-92667510D01*
X144593368Y-92830025D01*
X144461513Y-92961880D01*
X144439502Y-92889320D01*
X144380537Y-92779006D01*
X144301185Y-92682315D01*
X144204494Y-92602963D01*
X144094180Y-92543998D01*
X143974482Y-92507688D01*
X143850000Y-92495428D01*
X142150000Y-92495428D01*
X142025518Y-92507688D01*
X141905820Y-92543998D01*
X141795506Y-92602963D01*
X141698815Y-92682315D01*
X141619463Y-92779006D01*
X141560498Y-92889320D01*
X141524188Y-93009018D01*
X141511928Y-93133500D01*
X137960000Y-93133500D01*
X137960000Y-92014801D01*
X139705164Y-90269638D01*
X139725518Y-90275812D01*
X139850000Y-90288072D01*
X141550000Y-90288072D01*
X141674482Y-90275812D01*
X141794180Y-90239502D01*
X141904494Y-90180537D01*
X142001185Y-90101185D01*
X142080537Y-90004494D01*
X142139502Y-89894180D01*
X142175812Y-89774482D01*
X142188072Y-89650000D01*
X142188072Y-87950000D01*
X142175812Y-87825518D01*
X142139502Y-87705820D01*
X142080537Y-87595506D01*
X142001185Y-87498815D01*
X141904494Y-87419463D01*
X141794180Y-87360498D01*
X141721620Y-87338487D01*
X141853475Y-87206632D01*
X142015990Y-86963411D01*
X142127932Y-86693158D01*
X142185000Y-86406260D01*
X142185000Y-86113740D01*
X142127932Y-85826842D01*
X142015990Y-85556589D01*
X141853475Y-85313368D01*
X141646632Y-85106525D01*
X141472240Y-84990000D01*
X141646632Y-84873475D01*
X141853475Y-84666632D01*
X142015990Y-84423411D01*
X142127932Y-84153158D01*
X142185000Y-83866260D01*
X142185000Y-83573740D01*
X142127932Y-83286842D01*
X142015990Y-83016589D01*
X141853475Y-82773368D01*
X141646632Y-82566525D01*
X141472240Y-82450000D01*
X141646632Y-82333475D01*
X141853475Y-82126632D01*
X142015990Y-81883411D01*
X142127932Y-81613158D01*
X142185000Y-81326260D01*
X142185000Y-81033740D01*
X142127932Y-80746842D01*
X142015990Y-80476589D01*
X141853475Y-80233368D01*
X141646632Y-80026525D01*
X141472240Y-79910000D01*
X141646632Y-79793475D01*
X141853475Y-79586632D01*
X142015990Y-79343411D01*
X142127932Y-79073158D01*
X142185000Y-78786260D01*
X142185000Y-78493740D01*
X142127932Y-78206842D01*
X142015990Y-77936589D01*
X141853475Y-77693368D01*
X141646632Y-77486525D01*
X141472240Y-77370000D01*
X141646632Y-77253475D01*
X141762653Y-77137454D01*
X147840000Y-83214802D01*
X147840001Y-87462668D01*
X147836324Y-87500000D01*
X147850998Y-87648985D01*
X147894454Y-87792246D01*
X147965026Y-87924276D01*
X148000708Y-87967754D01*
X148060000Y-88040001D01*
X148088998Y-88063799D01*
X148836201Y-88811002D01*
X148859999Y-88840001D01*
X148975724Y-88934974D01*
X149107753Y-89005546D01*
X149162698Y-89022213D01*
X149162698Y-89100100D01*
X149174958Y-89224582D01*
X149211268Y-89344280D01*
X149270233Y-89454594D01*
X149349585Y-89551285D01*
X149446276Y-89630637D01*
X149556590Y-89689602D01*
X149676288Y-89725912D01*
X149800770Y-89738172D01*
X151799750Y-89738172D01*
X151924232Y-89725912D01*
X152043930Y-89689602D01*
X152154244Y-89630637D01*
X152250935Y-89551285D01*
X152330287Y-89454594D01*
X152389252Y-89344280D01*
X152425562Y-89224582D01*
X152437822Y-89100100D01*
X155162178Y-89100100D01*
X155174438Y-89224582D01*
X155210748Y-89344280D01*
X155269713Y-89454594D01*
X155349065Y-89551285D01*
X155445756Y-89630637D01*
X155556070Y-89689602D01*
X155675768Y-89725912D01*
X155800250Y-89738172D01*
X156513990Y-89735100D01*
X156672740Y-89576350D01*
X156672740Y-88427000D01*
X156926740Y-88427000D01*
X156926740Y-89576350D01*
X157085490Y-89735100D01*
X157799230Y-89738172D01*
X157923712Y-89725912D01*
X158043410Y-89689602D01*
X158153724Y-89630637D01*
X158250415Y-89551285D01*
X158329767Y-89454594D01*
X158388732Y-89344280D01*
X158425042Y-89224582D01*
X158437302Y-89100100D01*
X158434230Y-88585750D01*
X158275480Y-88427000D01*
X156926740Y-88427000D01*
X156672740Y-88427000D01*
X155324000Y-88427000D01*
X155165250Y-88585750D01*
X155162178Y-89100100D01*
X152437822Y-89100100D01*
X152437822Y-87499900D01*
X155162178Y-87499900D01*
X155165250Y-88014250D01*
X155324000Y-88173000D01*
X156672740Y-88173000D01*
X156672740Y-87023650D01*
X156926740Y-87023650D01*
X156926740Y-88173000D01*
X158275480Y-88173000D01*
X158434230Y-88014250D01*
X158437302Y-87499900D01*
X158425042Y-87375418D01*
X158388732Y-87255720D01*
X158329767Y-87145406D01*
X158250415Y-87048715D01*
X158153724Y-86969363D01*
X158043410Y-86910398D01*
X157923712Y-86874088D01*
X157799230Y-86861828D01*
X157085490Y-86864900D01*
X156926740Y-87023650D01*
X156672740Y-87023650D01*
X156513990Y-86864900D01*
X155800250Y-86861828D01*
X155675768Y-86874088D01*
X155556070Y-86910398D01*
X155445756Y-86969363D01*
X155349065Y-87048715D01*
X155269713Y-87145406D01*
X155210748Y-87255720D01*
X155174438Y-87375418D01*
X155162178Y-87499900D01*
X152437822Y-87499900D01*
X152425562Y-87375418D01*
X152389252Y-87255720D01*
X152330287Y-87145406D01*
X152250935Y-87048715D01*
X152154244Y-86969363D01*
X152043930Y-86910398D01*
X151924232Y-86874088D01*
X151799750Y-86861828D01*
X149800770Y-86861828D01*
X149676288Y-86874088D01*
X149556590Y-86910398D01*
X149446276Y-86969363D01*
X149360000Y-87040168D01*
X149360000Y-82937322D01*
X149363676Y-82899999D01*
X149360000Y-82862676D01*
X149360000Y-82862667D01*
X149349003Y-82751014D01*
X149305546Y-82607753D01*
X149234974Y-82475724D01*
X149140001Y-82359999D01*
X149111004Y-82336202D01*
X142363804Y-75589003D01*
X142340001Y-75559999D01*
X142224276Y-75465026D01*
X142092247Y-75394454D01*
X141994815Y-75364899D01*
X141853475Y-75153368D01*
X141646632Y-74946525D01*
X141472240Y-74830000D01*
X141646632Y-74713475D01*
X141853475Y-74506632D01*
X141924914Y-74399715D01*
X149036201Y-81511003D01*
X149059999Y-81540001D01*
X149088997Y-81563799D01*
X149162698Y-81624285D01*
X149162698Y-81800100D01*
X149174958Y-81924582D01*
X149211268Y-82044280D01*
X149270233Y-82154594D01*
X149349585Y-82251285D01*
X149446276Y-82330637D01*
X149556590Y-82389602D01*
X149676288Y-82425912D01*
X149800770Y-82438172D01*
X151799750Y-82438172D01*
X151924232Y-82425912D01*
X152043930Y-82389602D01*
X152154244Y-82330637D01*
X152250935Y-82251285D01*
X152330287Y-82154594D01*
X152389252Y-82044280D01*
X152425562Y-81924582D01*
X152437822Y-81800100D01*
X155162178Y-81800100D01*
X155174438Y-81924582D01*
X155210748Y-82044280D01*
X155269713Y-82154594D01*
X155349065Y-82251285D01*
X155445756Y-82330637D01*
X155556070Y-82389602D01*
X155675768Y-82425912D01*
X155800250Y-82438172D01*
X156513990Y-82435100D01*
X156672740Y-82276350D01*
X156672740Y-81127000D01*
X156926740Y-81127000D01*
X156926740Y-82276350D01*
X157085490Y-82435100D01*
X157799230Y-82438172D01*
X157923712Y-82425912D01*
X158043410Y-82389602D01*
X158153724Y-82330637D01*
X158250415Y-82251285D01*
X158329767Y-82154594D01*
X158388732Y-82044280D01*
X158425042Y-81924582D01*
X158437302Y-81800100D01*
X158434230Y-81285750D01*
X158275480Y-81127000D01*
X156926740Y-81127000D01*
X156672740Y-81127000D01*
X155324000Y-81127000D01*
X155165250Y-81285750D01*
X155162178Y-81800100D01*
X152437822Y-81800100D01*
X152437822Y-80199900D01*
X155162178Y-80199900D01*
X155165250Y-80714250D01*
X155324000Y-80873000D01*
X156672740Y-80873000D01*
X156672740Y-79723650D01*
X156926740Y-79723650D01*
X156926740Y-80873000D01*
X158275480Y-80873000D01*
X158434230Y-80714250D01*
X158437302Y-80199900D01*
X158425042Y-80075418D01*
X158388732Y-79955720D01*
X158329767Y-79845406D01*
X158250415Y-79748715D01*
X158153724Y-79669363D01*
X158043410Y-79610398D01*
X157923712Y-79574088D01*
X157799230Y-79561828D01*
X157085490Y-79564900D01*
X156926740Y-79723650D01*
X156672740Y-79723650D01*
X156513990Y-79564900D01*
X155800250Y-79561828D01*
X155675768Y-79574088D01*
X155556070Y-79610398D01*
X155445756Y-79669363D01*
X155349065Y-79748715D01*
X155269713Y-79845406D01*
X155210748Y-79955720D01*
X155174438Y-80075418D01*
X155162178Y-80199900D01*
X152437822Y-80199900D01*
X152425562Y-80075418D01*
X152389252Y-79955720D01*
X152330287Y-79845406D01*
X152250935Y-79748715D01*
X152154244Y-79669363D01*
X152043930Y-79610398D01*
X151924232Y-79574088D01*
X151799750Y-79561828D01*
X149800770Y-79561828D01*
X149676288Y-79574088D01*
X149556590Y-79610398D01*
X149446276Y-79669363D01*
X149390192Y-79715390D01*
X142723804Y-73049003D01*
X142700001Y-73019999D01*
X142584276Y-72925026D01*
X142452247Y-72854454D01*
X142308986Y-72810997D01*
X142197333Y-72800000D01*
X142197322Y-72800000D01*
X142160000Y-72796324D01*
X142122678Y-72800000D01*
X141978178Y-72800000D01*
X141853475Y-72613368D01*
X141646632Y-72406525D01*
X141472240Y-72290000D01*
X141646632Y-72173475D01*
X141853475Y-71966632D01*
X141978178Y-71780000D01*
X146105199Y-71780000D01*
X148536201Y-74211003D01*
X148559999Y-74240001D01*
X148675724Y-74334974D01*
X148807753Y-74405546D01*
X148951014Y-74449003D01*
X149062667Y-74460000D01*
X149062676Y-74460000D01*
X149099999Y-74463676D01*
X149137322Y-74460000D01*
X149162698Y-74460000D01*
X149162698Y-74500100D01*
X149174958Y-74624582D01*
X149211268Y-74744280D01*
X149270233Y-74854594D01*
X149349585Y-74951285D01*
X149446276Y-75030637D01*
X149556590Y-75089602D01*
X149676288Y-75125912D01*
X149800770Y-75138172D01*
X151799750Y-75138172D01*
X151924232Y-75125912D01*
X152043930Y-75089602D01*
X152154244Y-75030637D01*
X152250935Y-74951285D01*
X152330287Y-74854594D01*
X152389252Y-74744280D01*
X152425562Y-74624582D01*
X152437822Y-74500100D01*
X155162178Y-74500100D01*
X155174438Y-74624582D01*
X155210748Y-74744280D01*
X155269713Y-74854594D01*
X155349065Y-74951285D01*
X155445756Y-75030637D01*
X155556070Y-75089602D01*
X155675768Y-75125912D01*
X155800250Y-75138172D01*
X156513990Y-75135100D01*
X156672740Y-74976350D01*
X156672740Y-73827000D01*
X156926740Y-73827000D01*
X156926740Y-74976350D01*
X157085490Y-75135100D01*
X157799230Y-75138172D01*
X157923712Y-75125912D01*
X158043410Y-75089602D01*
X158153724Y-75030637D01*
X158250415Y-74951285D01*
X158329767Y-74854594D01*
X158388732Y-74744280D01*
X158425042Y-74624582D01*
X158437302Y-74500100D01*
X158434230Y-73985750D01*
X158275480Y-73827000D01*
X156926740Y-73827000D01*
X156672740Y-73827000D01*
X155324000Y-73827000D01*
X155165250Y-73985750D01*
X155162178Y-74500100D01*
X152437822Y-74500100D01*
X152437822Y-72899900D01*
X155162178Y-72899900D01*
X155165250Y-73414250D01*
X155324000Y-73573000D01*
X156672740Y-73573000D01*
X156672740Y-72423650D01*
X156926740Y-72423650D01*
X156926740Y-73573000D01*
X158275480Y-73573000D01*
X158434230Y-73414250D01*
X158437302Y-72899900D01*
X158425042Y-72775418D01*
X158388732Y-72655720D01*
X158329767Y-72545406D01*
X158250415Y-72448715D01*
X158153724Y-72369363D01*
X158043410Y-72310398D01*
X157923712Y-72274088D01*
X157799230Y-72261828D01*
X157085490Y-72264900D01*
X156926740Y-72423650D01*
X156672740Y-72423650D01*
X156513990Y-72264900D01*
X155800250Y-72261828D01*
X155675768Y-72274088D01*
X155556070Y-72310398D01*
X155445756Y-72369363D01*
X155349065Y-72448715D01*
X155269713Y-72545406D01*
X155210748Y-72655720D01*
X155174438Y-72775418D01*
X155162178Y-72899900D01*
X152437822Y-72899900D01*
X152425562Y-72775418D01*
X152389252Y-72655720D01*
X152330287Y-72545406D01*
X152250935Y-72448715D01*
X152154244Y-72369363D01*
X152043930Y-72310398D01*
X151924232Y-72274088D01*
X151799750Y-72261828D01*
X149800770Y-72261828D01*
X149676288Y-72274088D01*
X149556590Y-72310398D01*
X149446276Y-72369363D01*
X149349585Y-72448715D01*
X149270233Y-72545406D01*
X149211268Y-72655720D01*
X149192475Y-72717673D01*
X146983804Y-70509003D01*
X146960001Y-70479999D01*
X146844276Y-70385026D01*
X146712247Y-70314454D01*
X146568986Y-70270997D01*
X146457333Y-70260000D01*
X146457322Y-70260000D01*
X146420000Y-70256324D01*
X146382678Y-70260000D01*
X141978178Y-70260000D01*
X141853475Y-70073368D01*
X141646632Y-69866525D01*
X141472240Y-69750000D01*
X141646632Y-69633475D01*
X141853475Y-69426632D01*
X141978178Y-69240000D01*
X151682678Y-69240000D01*
X151720000Y-69243676D01*
X151757322Y-69240000D01*
X151757333Y-69240000D01*
X151868986Y-69229003D01*
X152012247Y-69185546D01*
X152144276Y-69114974D01*
X152260001Y-69020001D01*
X152283804Y-68990997D01*
X153651004Y-67623798D01*
X153680001Y-67600001D01*
X153774974Y-67484276D01*
X153845546Y-67352247D01*
X153859883Y-67304984D01*
X154086632Y-67153475D01*
X154293475Y-66946632D01*
X154415195Y-66764466D01*
X154484822Y-66881355D01*
X154679731Y-67097588D01*
X154913080Y-67271641D01*
X155175901Y-67396825D01*
X155323110Y-67441476D01*
X155553000Y-67320155D01*
X155553000Y-66127000D01*
X155533000Y-66127000D01*
X155533000Y-65873000D01*
X155553000Y-65873000D01*
X155553000Y-64679845D01*
X155807000Y-64679845D01*
X155807000Y-65873000D01*
X155827000Y-65873000D01*
X155827000Y-66127000D01*
X155807000Y-66127000D01*
X155807000Y-67320155D01*
X156036890Y-67441476D01*
X156184099Y-67396825D01*
X156446920Y-67271641D01*
X156680269Y-67097588D01*
X156875178Y-66881355D01*
X156944805Y-66764466D01*
X157066525Y-66946632D01*
X157273368Y-67153475D01*
X157516589Y-67315990D01*
X157786842Y-67427932D01*
X158073740Y-67485000D01*
X158366260Y-67485000D01*
X158653158Y-67427932D01*
X158923411Y-67315990D01*
X159166632Y-67153475D01*
X159373475Y-66946632D01*
X159535990Y-66703411D01*
X159647932Y-66433158D01*
X159705000Y-66146260D01*
X159705000Y-65853740D01*
X159647932Y-65566842D01*
X159535990Y-65296589D01*
X159373475Y-65053368D01*
X159166632Y-64846525D01*
X158923411Y-64684010D01*
X158653158Y-64572068D01*
X158366260Y-64515000D01*
X158073740Y-64515000D01*
X157786842Y-64572068D01*
X157516589Y-64684010D01*
X157273368Y-64846525D01*
X157066525Y-65053368D01*
X156944805Y-65235534D01*
X156875178Y-65118645D01*
X156680269Y-64902412D01*
X156446920Y-64728359D01*
X156184099Y-64603175D01*
X156036890Y-64558524D01*
X155807000Y-64679845D01*
X155553000Y-64679845D01*
X155323110Y-64558524D01*
X155175901Y-64603175D01*
X154913080Y-64728359D01*
X154679731Y-64902412D01*
X154484822Y-65118645D01*
X154415195Y-65235534D01*
X154293475Y-65053368D01*
X154086632Y-64846525D01*
X153843411Y-64684010D01*
X153573158Y-64572068D01*
X153286260Y-64515000D01*
X152993740Y-64515000D01*
X152706842Y-64572068D01*
X152436589Y-64684010D01*
X152193368Y-64846525D01*
X152061513Y-64978380D01*
X152039502Y-64905820D01*
X151980537Y-64795506D01*
X151901185Y-64698815D01*
X151804494Y-64619463D01*
X151694180Y-64560498D01*
X151574482Y-64524188D01*
X151450000Y-64511928D01*
X149750000Y-64511928D01*
X149625518Y-64524188D01*
X149505820Y-64560498D01*
X149395506Y-64619463D01*
X149298815Y-64698815D01*
X149219463Y-64795506D01*
X149160498Y-64905820D01*
X149124188Y-65025518D01*
X149111928Y-65150000D01*
X149111928Y-66850000D01*
X149124188Y-66974482D01*
X149160498Y-67094180D01*
X149219463Y-67204494D01*
X149298815Y-67301185D01*
X149395506Y-67380537D01*
X149505820Y-67439502D01*
X149625518Y-67475812D01*
X149750000Y-67488072D01*
X151450000Y-67488072D01*
X151574482Y-67475812D01*
X151682003Y-67443196D01*
X151405199Y-67720000D01*
X141978178Y-67720000D01*
X141853475Y-67533368D01*
X141646632Y-67326525D01*
X141472240Y-67210000D01*
X141646632Y-67093475D01*
X141853475Y-66886632D01*
X142015990Y-66643411D01*
X142127932Y-66373158D01*
X142185000Y-66086260D01*
X142185000Y-65793740D01*
X142127932Y-65506842D01*
X142015990Y-65236589D01*
X141853475Y-64993368D01*
X141646632Y-64786525D01*
X141403411Y-64624010D01*
X141133158Y-64512068D01*
X140846260Y-64455000D01*
X140553740Y-64455000D01*
X140266842Y-64512068D01*
X139996589Y-64624010D01*
X139753368Y-64786525D01*
X139546525Y-64993368D01*
X139421822Y-65180000D01*
X138497325Y-65180000D01*
X138460000Y-65176324D01*
X138422675Y-65180000D01*
X138422667Y-65180000D01*
X138311014Y-65190997D01*
X138167753Y-65234454D01*
X138035724Y-65305026D01*
X137919999Y-65399999D01*
X137896201Y-65428997D01*
X136255199Y-67070000D01*
X135578178Y-67070000D01*
X135453475Y-66883368D01*
X135246632Y-66676525D01*
X135072240Y-66560000D01*
X135246632Y-66443475D01*
X135453475Y-66236632D01*
X135615990Y-65993411D01*
X135727932Y-65723158D01*
X135785000Y-65436260D01*
X135785000Y-65143740D01*
X135727932Y-64856842D01*
X135615990Y-64586589D01*
X135453475Y-64343368D01*
X135246632Y-64136525D01*
X135003411Y-63974010D01*
X134909232Y-63935000D01*
X159765000Y-63935000D01*
X159765001Y-102165000D01*
X135584351Y-102165000D01*
X135601185Y-102151185D01*
X135680537Y-102054494D01*
X135739502Y-101944180D01*
X135775812Y-101824482D01*
X135788072Y-101700000D01*
X135788072Y-100000000D01*
X135775812Y-99875518D01*
X135739502Y-99755820D01*
X135680537Y-99645506D01*
X135601185Y-99548815D01*
X135504494Y-99469463D01*
X135394180Y-99410498D01*
X135313534Y-99386034D01*
X135397588Y-99310269D01*
X135571641Y-99076920D01*
X135696825Y-98814099D01*
X135741476Y-98666890D01*
X135620155Y-98437000D01*
X134427000Y-98437000D01*
X134427000Y-98457000D01*
X134173000Y-98457000D01*
X134173000Y-98437000D01*
X132979845Y-98437000D01*
X132858524Y-98666890D01*
X132903175Y-98814099D01*
X133028359Y-99076920D01*
X133202412Y-99310269D01*
X133286466Y-99386034D01*
X133205820Y-99410498D01*
X133095506Y-99469463D01*
X132998815Y-99548815D01*
X132919463Y-99645506D01*
X132860498Y-99755820D01*
X132824188Y-99875518D01*
X132811928Y-100000000D01*
X132811928Y-101700000D01*
X132824188Y-101824482D01*
X132860498Y-101944180D01*
X132919463Y-102054494D01*
X132998815Y-102151185D01*
X133015649Y-102165000D01*
X112019859Y-102165000D01*
X112246632Y-102013475D01*
X112453475Y-101806632D01*
X112615990Y-101563411D01*
X112727932Y-101293158D01*
X112785000Y-101006260D01*
X112785000Y-100713740D01*
X112727932Y-100426842D01*
X112615990Y-100156589D01*
X112453475Y-99913368D01*
X112246632Y-99706525D01*
X112064466Y-99584805D01*
X112181355Y-99515178D01*
X112397588Y-99320269D01*
X112571641Y-99086920D01*
X112696825Y-98824099D01*
X112741476Y-98676890D01*
X112620155Y-98447000D01*
X111427000Y-98447000D01*
X111427000Y-98467000D01*
X111173000Y-98467000D01*
X111173000Y-98447000D01*
X109979845Y-98447000D01*
X109858524Y-98676890D01*
X109903175Y-98824099D01*
X110028359Y-99086920D01*
X110202412Y-99320269D01*
X110418645Y-99515178D01*
X110535534Y-99584805D01*
X110353368Y-99706525D01*
X110146525Y-99913368D01*
X110021822Y-100100000D01*
X108594802Y-100100000D01*
X107141209Y-98646408D01*
X107185000Y-98426260D01*
X107185000Y-98133740D01*
X107127932Y-97846842D01*
X107015990Y-97576589D01*
X106853475Y-97333368D01*
X106646632Y-97126525D01*
X106472240Y-97010000D01*
X106646632Y-96893475D01*
X106853475Y-96686632D01*
X106978178Y-96500000D01*
X109995094Y-96500000D01*
X110146525Y-96726632D01*
X110353368Y-96933475D01*
X110535534Y-97055195D01*
X110418645Y-97124822D01*
X110202412Y-97319731D01*
X110028359Y-97553080D01*
X109903175Y-97815901D01*
X109858524Y-97963110D01*
X109979845Y-98193000D01*
X111173000Y-98193000D01*
X111173000Y-98173000D01*
X111427000Y-98173000D01*
X111427000Y-98193000D01*
X112620155Y-98193000D01*
X112741476Y-97963110D01*
X112696825Y-97815901D01*
X112571641Y-97553080D01*
X112397588Y-97319731D01*
X112181355Y-97124822D01*
X112064466Y-97055195D01*
X112246632Y-96933475D01*
X112453475Y-96726632D01*
X112615990Y-96483411D01*
X112727932Y-96213158D01*
X112785000Y-95926260D01*
X112785000Y-95633740D01*
X112727932Y-95346842D01*
X112615990Y-95076589D01*
X112453475Y-94833368D01*
X112246632Y-94626525D01*
X112072240Y-94510000D01*
X112246632Y-94393475D01*
X112453475Y-94186632D01*
X112615990Y-93943411D01*
X112727932Y-93673158D01*
X112785000Y-93386260D01*
X112785000Y-93093740D01*
X112727932Y-92806842D01*
X112615990Y-92536589D01*
X112453475Y-92293368D01*
X112246632Y-92086525D01*
X112072240Y-91970000D01*
X112246632Y-91853475D01*
X112453475Y-91646632D01*
X112615990Y-91403411D01*
X112727932Y-91133158D01*
X112785000Y-90846260D01*
X112785000Y-90553740D01*
X112727932Y-90266842D01*
X112615990Y-89996589D01*
X112453475Y-89753368D01*
X112246632Y-89546525D01*
X112064466Y-89424805D01*
X112181355Y-89355178D01*
X112397588Y-89160269D01*
X112571641Y-88926920D01*
X112696825Y-88664099D01*
X112741476Y-88516890D01*
X112620155Y-88287000D01*
X111427000Y-88287000D01*
X111427000Y-88307000D01*
X111173000Y-88307000D01*
X111173000Y-88287000D01*
X109979845Y-88287000D01*
X109858524Y-88516890D01*
X109903175Y-88664099D01*
X110028359Y-88926920D01*
X110202412Y-89160269D01*
X110418645Y-89355178D01*
X110535534Y-89424805D01*
X110353368Y-89546525D01*
X110146525Y-89753368D01*
X109984010Y-89996589D01*
X109872068Y-90266842D01*
X109815000Y-90553740D01*
X109815000Y-90846260D01*
X109872068Y-91133158D01*
X109984010Y-91403411D01*
X110146525Y-91646632D01*
X110353368Y-91853475D01*
X110527760Y-91970000D01*
X110353368Y-92086525D01*
X110146525Y-92293368D01*
X110048549Y-92440000D01*
X107188072Y-92440000D01*
X107188072Y-92350000D01*
X107175812Y-92225518D01*
X107139502Y-92105820D01*
X107080537Y-91995506D01*
X107001185Y-91898815D01*
X106904494Y-91819463D01*
X106794180Y-91760498D01*
X106674482Y-91724188D01*
X106550000Y-91711928D01*
X104850000Y-91711928D01*
X104725518Y-91724188D01*
X104605820Y-91760498D01*
X104495506Y-91819463D01*
X104398815Y-91898815D01*
X104319463Y-91995506D01*
X104260498Y-92105820D01*
X104224188Y-92225518D01*
X104211928Y-92350000D01*
X104211928Y-94050000D01*
X104224188Y-94174482D01*
X104260498Y-94294180D01*
X104319463Y-94404494D01*
X104398815Y-94501185D01*
X104495506Y-94580537D01*
X104605820Y-94639502D01*
X104678380Y-94661513D01*
X104546525Y-94793368D01*
X104384010Y-95036589D01*
X104272068Y-95306842D01*
X104215000Y-95593740D01*
X104215000Y-95886260D01*
X104272068Y-96173158D01*
X104384010Y-96443411D01*
X104546525Y-96686632D01*
X104753368Y-96893475D01*
X104927760Y-97010000D01*
X104753368Y-97126525D01*
X104546525Y-97333368D01*
X104384010Y-97576589D01*
X104272068Y-97846842D01*
X104215000Y-98133740D01*
X104215000Y-98426260D01*
X104272068Y-98713158D01*
X104384010Y-98983411D01*
X104546525Y-99226632D01*
X104753368Y-99433475D01*
X104996589Y-99595990D01*
X105266842Y-99707932D01*
X105553740Y-99765000D01*
X105846260Y-99765000D01*
X106066408Y-99721209D01*
X107716201Y-101371003D01*
X107739999Y-101400001D01*
X107768997Y-101423799D01*
X107855723Y-101494974D01*
X107983759Y-101563411D01*
X107987753Y-101565546D01*
X108131014Y-101609003D01*
X108242667Y-101620000D01*
X108242677Y-101620000D01*
X108280000Y-101623676D01*
X108317322Y-101620000D01*
X110021822Y-101620000D01*
X110146525Y-101806632D01*
X110353368Y-102013475D01*
X110580141Y-102165000D01*
X101435000Y-102165000D01*
X101435000Y-90298500D01*
X102117428Y-90298500D01*
X102129688Y-90422982D01*
X102165998Y-90542680D01*
X102224963Y-90652994D01*
X102304315Y-90749685D01*
X102401006Y-90829037D01*
X102511320Y-90888002D01*
X102631018Y-90924312D01*
X102755500Y-90936572D01*
X102914250Y-90933500D01*
X103073000Y-90774750D01*
X103073000Y-89727000D01*
X102279250Y-89727000D01*
X102120500Y-89885750D01*
X102117428Y-90298500D01*
X101435000Y-90298500D01*
X101435000Y-88901500D01*
X102117428Y-88901500D01*
X102120500Y-89314250D01*
X102279250Y-89473000D01*
X103073000Y-89473000D01*
X103073000Y-88425250D01*
X103327000Y-88425250D01*
X103327000Y-89473000D01*
X103347000Y-89473000D01*
X103347000Y-89727000D01*
X103327000Y-89727000D01*
X103327000Y-90774750D01*
X103485750Y-90933500D01*
X103644500Y-90936572D01*
X103768982Y-90924312D01*
X103888680Y-90888002D01*
X103998994Y-90829037D01*
X104095685Y-90749685D01*
X104152500Y-90680456D01*
X104209315Y-90749685D01*
X104306006Y-90829037D01*
X104416320Y-90888002D01*
X104536018Y-90924312D01*
X104660500Y-90936572D01*
X105549500Y-90936572D01*
X105673982Y-90924312D01*
X105793680Y-90888002D01*
X105903994Y-90829037D01*
X106000685Y-90749685D01*
X106080037Y-90652994D01*
X106139002Y-90542680D01*
X106169550Y-90441978D01*
X106298102Y-90495226D01*
X106498061Y-90535000D01*
X106701939Y-90535000D01*
X106901898Y-90495226D01*
X107090256Y-90417205D01*
X107259774Y-90303937D01*
X107403937Y-90159774D01*
X107517205Y-89990256D01*
X107595226Y-89801898D01*
X107635000Y-89601939D01*
X107635000Y-89398061D01*
X107595226Y-89198102D01*
X107517205Y-89009744D01*
X107403937Y-88840226D01*
X107259774Y-88696063D01*
X107090256Y-88582795D01*
X106901898Y-88504774D01*
X106701939Y-88465000D01*
X106498061Y-88465000D01*
X106298102Y-88504774D01*
X106109744Y-88582795D01*
X106101950Y-88588002D01*
X106080037Y-88547006D01*
X106000685Y-88450315D01*
X105903994Y-88370963D01*
X105793680Y-88311998D01*
X105673982Y-88275688D01*
X105549500Y-88263428D01*
X104660500Y-88263428D01*
X104536018Y-88275688D01*
X104416320Y-88311998D01*
X104306006Y-88370963D01*
X104209315Y-88450315D01*
X104152500Y-88519544D01*
X104095685Y-88450315D01*
X103998994Y-88370963D01*
X103888680Y-88311998D01*
X103768982Y-88275688D01*
X103644500Y-88263428D01*
X103485750Y-88266500D01*
X103327000Y-88425250D01*
X103073000Y-88425250D01*
X102914250Y-88266500D01*
X102755500Y-88263428D01*
X102631018Y-88275688D01*
X102511320Y-88311998D01*
X102401006Y-88370963D01*
X102304315Y-88450315D01*
X102224963Y-88547006D01*
X102165998Y-88657320D01*
X102129688Y-88777018D01*
X102117428Y-88901500D01*
X101435000Y-88901500D01*
X101435000Y-63935000D01*
X104476574Y-63935000D01*
X104398815Y-63998815D01*
G37*
X104398815Y-63998815D02*
X104319463Y-64095506D01*
X104260498Y-64205820D01*
X104224188Y-64325518D01*
X104211928Y-64450000D01*
X104211928Y-66150000D01*
X104224188Y-66274482D01*
X104260498Y-66394180D01*
X104319463Y-66504494D01*
X104398815Y-66601185D01*
X104495506Y-66680537D01*
X104605820Y-66739502D01*
X104678380Y-66761513D01*
X104546525Y-66893368D01*
X104384010Y-67136589D01*
X104272068Y-67406842D01*
X104215000Y-67693740D01*
X104215000Y-67986260D01*
X104272068Y-68273158D01*
X104384010Y-68543411D01*
X104546525Y-68786632D01*
X104753368Y-68993475D01*
X104927760Y-69110000D01*
X104753368Y-69226525D01*
X104546525Y-69433368D01*
X104384010Y-69676589D01*
X104272068Y-69946842D01*
X104215000Y-70233740D01*
X104215000Y-70526260D01*
X104272068Y-70813158D01*
X104384010Y-71083411D01*
X104546525Y-71326632D01*
X104753368Y-71533475D01*
X104927760Y-71650000D01*
X104753368Y-71766525D01*
X104546525Y-71973368D01*
X104384010Y-72216589D01*
X104272068Y-72486842D01*
X104215000Y-72773740D01*
X104215000Y-73066260D01*
X104272068Y-73353158D01*
X104384010Y-73623411D01*
X104546525Y-73866632D01*
X104753368Y-74073475D01*
X104927760Y-74190000D01*
X104753368Y-74306525D01*
X104546525Y-74513368D01*
X104384010Y-74756589D01*
X104272068Y-75026842D01*
X104215000Y-75313740D01*
X104215000Y-75606260D01*
X104272068Y-75893158D01*
X104384010Y-76163411D01*
X104546525Y-76406632D01*
X104753368Y-76613475D01*
X104927760Y-76730000D01*
X104753368Y-76846525D01*
X104546525Y-77053368D01*
X104384010Y-77296589D01*
X104272068Y-77566842D01*
X104215000Y-77853740D01*
X104215000Y-78146260D01*
X104272068Y-78433158D01*
X104384010Y-78703411D01*
X104546525Y-78946632D01*
X104753368Y-79153475D01*
X104927760Y-79270000D01*
X104753368Y-79386525D01*
X104546525Y-79593368D01*
X104384010Y-79836589D01*
X104272068Y-80106842D01*
X104215000Y-80393740D01*
X104215000Y-80686260D01*
X104272068Y-80973158D01*
X104384010Y-81243411D01*
X104546525Y-81486632D01*
X104753368Y-81693475D01*
X104927760Y-81810000D01*
X104753368Y-81926525D01*
X104546525Y-82133368D01*
X104384010Y-82376589D01*
X104272068Y-82646842D01*
X104215000Y-82933740D01*
X104215000Y-83226260D01*
X104272068Y-83513158D01*
X104384010Y-83783411D01*
X104546525Y-84026632D01*
X104753368Y-84233475D01*
X104927760Y-84350000D01*
X104753368Y-84466525D01*
X104546525Y-84673368D01*
X104384010Y-84916589D01*
X104272068Y-85186842D01*
X104215000Y-85473740D01*
X104215000Y-85766260D01*
X104272068Y-86053158D01*
X104384010Y-86323411D01*
X104546525Y-86566632D01*
X104753368Y-86773475D01*
X104996589Y-86935990D01*
X105266842Y-87047932D01*
X105553740Y-87105000D01*
X105846260Y-87105000D01*
X106133158Y-87047932D01*
X106403411Y-86935990D01*
X106646632Y-86773475D01*
X106853475Y-86566632D01*
X106978178Y-86380000D01*
X110021822Y-86380000D01*
X110146525Y-86566632D01*
X110353368Y-86773475D01*
X110535534Y-86895195D01*
X110418645Y-86964822D01*
X110202412Y-87159731D01*
X110028359Y-87393080D01*
X109903175Y-87655901D01*
X109858524Y-87803110D01*
X109979845Y-88033000D01*
X111173000Y-88033000D01*
X111173000Y-88013000D01*
X111427000Y-88013000D01*
X111427000Y-88033000D01*
X112620155Y-88033000D01*
X112741476Y-87803110D01*
X112696825Y-87655901D01*
X112571641Y-87393080D01*
X112397588Y-87159731D01*
X112181355Y-86964822D01*
X112064466Y-86895195D01*
X112246632Y-86773475D01*
X112453475Y-86566632D01*
X112615990Y-86323411D01*
X112727932Y-86053158D01*
X112785000Y-85766260D01*
X112785000Y-85473740D01*
X112727932Y-85186842D01*
X112615990Y-84916589D01*
X112453475Y-84673368D01*
X112246632Y-84466525D01*
X112072240Y-84350000D01*
X112246632Y-84233475D01*
X112453475Y-84026632D01*
X112615990Y-83783411D01*
X112727932Y-83513158D01*
X112785000Y-83226260D01*
X112785000Y-82933740D01*
X112727932Y-82646842D01*
X112615990Y-82376589D01*
X112453475Y-82133368D01*
X112246632Y-81926525D01*
X112072240Y-81810000D01*
X112246632Y-81693475D01*
X112453475Y-81486632D01*
X112615990Y-81243411D01*
X112727932Y-80973158D01*
X112785000Y-80686260D01*
X112785000Y-80393740D01*
X112727932Y-80106842D01*
X112615990Y-79836589D01*
X112453475Y-79593368D01*
X112246632Y-79386525D01*
X112072240Y-79270000D01*
X112246632Y-79153475D01*
X112453475Y-78946632D01*
X112615990Y-78703411D01*
X112727932Y-78433158D01*
X112785000Y-78146260D01*
X112785000Y-77853740D01*
X112727932Y-77566842D01*
X112615990Y-77296589D01*
X112453475Y-77053368D01*
X112246632Y-76846525D01*
X112072240Y-76730000D01*
X112246632Y-76613475D01*
X112453475Y-76406632D01*
X112615990Y-76163411D01*
X112727932Y-75893158D01*
X112785000Y-75606260D01*
X112785000Y-75313740D01*
X112727932Y-75026842D01*
X112615990Y-74756589D01*
X112453475Y-74513368D01*
X112246632Y-74306525D01*
X112072240Y-74190000D01*
X112246632Y-74073475D01*
X112453475Y-73866632D01*
X112615990Y-73623411D01*
X112727932Y-73353158D01*
X112785000Y-73066260D01*
X112785000Y-72773740D01*
X112727932Y-72486842D01*
X112615990Y-72216589D01*
X112453475Y-71973368D01*
X112246632Y-71766525D01*
X112072240Y-71650000D01*
X112246632Y-71533475D01*
X112453475Y-71326632D01*
X112615990Y-71083411D01*
X112727932Y-70813158D01*
X112785000Y-70526260D01*
X112785000Y-70233740D01*
X112727932Y-69946842D01*
X112615990Y-69676589D01*
X112453475Y-69433368D01*
X112246632Y-69226525D01*
X112072240Y-69110000D01*
X112246632Y-68993475D01*
X112453475Y-68786632D01*
X112615990Y-68543411D01*
X112727932Y-68273158D01*
X112785000Y-67986260D01*
X112785000Y-67693740D01*
X112727932Y-67406842D01*
X112615990Y-67136589D01*
X112453475Y-66893368D01*
X112321620Y-66761513D01*
X112394180Y-66739502D01*
X112504494Y-66680537D01*
X112601185Y-66601185D01*
X112680537Y-66504494D01*
X112739502Y-66394180D01*
X112775812Y-66274482D01*
X112788072Y-66150000D01*
X112788072Y-64450000D01*
X112775812Y-64325518D01*
X112739502Y-64205820D01*
X112680537Y-64095506D01*
X112601185Y-63998815D01*
X112523426Y-63935000D01*
X133690768Y-63935000D01*
X133596589Y-63974010D01*
X133353368Y-64136525D01*
X133146525Y-64343368D01*
X132984010Y-64586589D01*
X132872068Y-64856842D01*
X132815000Y-65143740D01*
X132815000Y-65436260D01*
X132872068Y-65723158D01*
X132984010Y-65993411D01*
X133146525Y-66236632D01*
X133353368Y-66443475D01*
X133527760Y-66560000D01*
X133353368Y-66676525D01*
X133146525Y-66883368D01*
X132984010Y-67126589D01*
X132872068Y-67396842D01*
X132815000Y-67683740D01*
X132815000Y-67976260D01*
X132872068Y-68263158D01*
X132984010Y-68533411D01*
X133146525Y-68776632D01*
X133353368Y-68983475D01*
X133527760Y-69100000D01*
X133353368Y-69216525D01*
X133146525Y-69423368D01*
X132984010Y-69666589D01*
X132872068Y-69936842D01*
X132815000Y-70223740D01*
X132815000Y-70516260D01*
X132872068Y-70803158D01*
X132984010Y-71073411D01*
X133146525Y-71316632D01*
X133353368Y-71523475D01*
X133527760Y-71640000D01*
X133353368Y-71756525D01*
X133146525Y-71963368D01*
X132984010Y-72206589D01*
X132872068Y-72476842D01*
X132815000Y-72763740D01*
X132815000Y-73056260D01*
X132872068Y-73343158D01*
X132984010Y-73613411D01*
X133146525Y-73856632D01*
X133353368Y-74063475D01*
X133527760Y-74180000D01*
X133353368Y-74296525D01*
X133146525Y-74503368D01*
X132984010Y-74746589D01*
X132872068Y-75016842D01*
X132815000Y-75303740D01*
X132815000Y-75596260D01*
X132872068Y-75883158D01*
X132984010Y-76153411D01*
X133146525Y-76396632D01*
X133353368Y-76603475D01*
X133527760Y-76720000D01*
X133353368Y-76836525D01*
X133146525Y-77043368D01*
X132984010Y-77286589D01*
X132872068Y-77556842D01*
X132815000Y-77843740D01*
X132815000Y-78136260D01*
X132872068Y-78423158D01*
X132984010Y-78693411D01*
X133146525Y-78936632D01*
X133353368Y-79143475D01*
X133535534Y-79265195D01*
X133418645Y-79334822D01*
X133202412Y-79529731D01*
X133028359Y-79763080D01*
X132903175Y-80025901D01*
X132858524Y-80173110D01*
X132979845Y-80403000D01*
X134173000Y-80403000D01*
X134173000Y-80383000D01*
X134427000Y-80383000D01*
X134427000Y-80403000D01*
X135620155Y-80403000D01*
X135741476Y-80173110D01*
X135696825Y-80025901D01*
X135571641Y-79763080D01*
X135397588Y-79529731D01*
X135181355Y-79334822D01*
X135064466Y-79265195D01*
X135246632Y-79143475D01*
X135453475Y-78936632D01*
X135615990Y-78693411D01*
X135727932Y-78423158D01*
X135785000Y-78136260D01*
X135785000Y-77843740D01*
X135727932Y-77556842D01*
X135615990Y-77286589D01*
X135453475Y-77043368D01*
X135246632Y-76836525D01*
X135072240Y-76720000D01*
X135246632Y-76603475D01*
X135453475Y-76396632D01*
X135578178Y-76210000D01*
X136712678Y-76210000D01*
X136750000Y-76213676D01*
X136787322Y-76210000D01*
X136787333Y-76210000D01*
X136898986Y-76199003D01*
X137042247Y-76155546D01*
X137174276Y-76084974D01*
X137290001Y-75990001D01*
X137313804Y-75960997D01*
X138954802Y-74320000D01*
X139421822Y-74320000D01*
X139546525Y-74506632D01*
X139753368Y-74713475D01*
X139927760Y-74830000D01*
X139753368Y-74946525D01*
X139546525Y-75153368D01*
X139384010Y-75396589D01*
X139272068Y-75666842D01*
X139215000Y-75953740D01*
X139215000Y-76246260D01*
X139258790Y-76466408D01*
X137188998Y-78536201D01*
X137160000Y-78559999D01*
X137136202Y-78588997D01*
X137136201Y-78588998D01*
X137065026Y-78675724D01*
X136994454Y-78807754D01*
X136964180Y-78907558D01*
X136952328Y-78946632D01*
X136950998Y-78951015D01*
X136936324Y-79100000D01*
X136940001Y-79137332D01*
X136940000Y-79785198D01*
X135699318Y-81025881D01*
X135741476Y-80886890D01*
X135620155Y-80657000D01*
X134427000Y-80657000D01*
X134427000Y-80677000D01*
X134173000Y-80677000D01*
X134173000Y-80657000D01*
X132979845Y-80657000D01*
X132858524Y-80886890D01*
X132903175Y-81034099D01*
X133028359Y-81296920D01*
X133202412Y-81530269D01*
X133418645Y-81725178D01*
X133535534Y-81794805D01*
X133353368Y-81916525D01*
X133146525Y-82123368D01*
X132984010Y-82366589D01*
X132872068Y-82636842D01*
X132815000Y-82923740D01*
X132815000Y-83216260D01*
X132872068Y-83503158D01*
X132984010Y-83773411D01*
X133146525Y-84016632D01*
X133353368Y-84223475D01*
X133527760Y-84340000D01*
X133353368Y-84456525D01*
X133146525Y-84663368D01*
X132984010Y-84906589D01*
X132872068Y-85176842D01*
X132815000Y-85463740D01*
X132815000Y-85756260D01*
X132872068Y-86043158D01*
X132984010Y-86313411D01*
X133146525Y-86556632D01*
X133353368Y-86763475D01*
X133527760Y-86880000D01*
X133353368Y-86996525D01*
X133146525Y-87203368D01*
X132984010Y-87446589D01*
X132872068Y-87716842D01*
X132815000Y-88003740D01*
X132815000Y-88296260D01*
X132872068Y-88583158D01*
X132984010Y-88853411D01*
X133146525Y-89096632D01*
X133353368Y-89303475D01*
X133527760Y-89420000D01*
X133353368Y-89536525D01*
X133146525Y-89743368D01*
X132984010Y-89986589D01*
X132872068Y-90256842D01*
X132815000Y-90543740D01*
X132815000Y-90836260D01*
X132872068Y-91123158D01*
X132984010Y-91393411D01*
X133146525Y-91636632D01*
X133353368Y-91843475D01*
X133527760Y-91960000D01*
X133353368Y-92076525D01*
X133146525Y-92283368D01*
X132984010Y-92526589D01*
X132872068Y-92796842D01*
X132815000Y-93083740D01*
X132815000Y-93376260D01*
X132872068Y-93663158D01*
X132984010Y-93933411D01*
X133146525Y-94176632D01*
X133353368Y-94383475D01*
X133527760Y-94500000D01*
X133353368Y-94616525D01*
X133146525Y-94823368D01*
X132984010Y-95066589D01*
X132872068Y-95336842D01*
X132815000Y-95623740D01*
X132815000Y-95916260D01*
X132872068Y-96203158D01*
X132984010Y-96473411D01*
X133146525Y-96716632D01*
X133353368Y-96923475D01*
X133535534Y-97045195D01*
X133418645Y-97114822D01*
X133202412Y-97309731D01*
X133028359Y-97543080D01*
X132903175Y-97805901D01*
X132858524Y-97953110D01*
X132979845Y-98183000D01*
X134173000Y-98183000D01*
X134173000Y-98163000D01*
X134427000Y-98163000D01*
X134427000Y-98183000D01*
X135620155Y-98183000D01*
X135741476Y-97953110D01*
X135696825Y-97805901D01*
X135571641Y-97543080D01*
X135397588Y-97309731D01*
X135181355Y-97114822D01*
X135064466Y-97045195D01*
X135246632Y-96923475D01*
X135453475Y-96716632D01*
X135580909Y-96525913D01*
X135651067Y-96519003D01*
X135794328Y-96475546D01*
X135926357Y-96404974D01*
X136042082Y-96310001D01*
X136065885Y-96280997D01*
X137711004Y-94635879D01*
X137740001Y-94612082D01*
X137766332Y-94579998D01*
X137834974Y-94496358D01*
X137905546Y-94364328D01*
X137919743Y-94317526D01*
X137949003Y-94221067D01*
X137960000Y-94109414D01*
X137960000Y-94109405D01*
X137963676Y-94072082D01*
X137960000Y-94034759D01*
X137960000Y-93133500D01*
X141511928Y-93133500D01*
X141511928Y-94833500D01*
X141524188Y-94957982D01*
X141560498Y-95077680D01*
X141619463Y-95187994D01*
X141698815Y-95284685D01*
X141795506Y-95364037D01*
X141905820Y-95423002D01*
X141978380Y-95445013D01*
X141846525Y-95576868D01*
X141684010Y-95820089D01*
X141572068Y-96090342D01*
X141515000Y-96377240D01*
X141515000Y-96669760D01*
X141572068Y-96956658D01*
X141684010Y-97226911D01*
X141846525Y-97470132D01*
X142053368Y-97676975D01*
X142227760Y-97793500D01*
X142053368Y-97910025D01*
X141846525Y-98116868D01*
X141684010Y-98360089D01*
X141572068Y-98630342D01*
X141515000Y-98917240D01*
X141515000Y-99209760D01*
X141572068Y-99496658D01*
X141684010Y-99766911D01*
X141846525Y-100010132D01*
X142053368Y-100216975D01*
X142296589Y-100379490D01*
X142566842Y-100491432D01*
X142853740Y-100548500D01*
X143146260Y-100548500D01*
X143433158Y-100491432D01*
X143703411Y-100379490D01*
X143946632Y-100216975D01*
X144153475Y-100010132D01*
X144270000Y-99835740D01*
X144386525Y-100010132D01*
X144593368Y-100216975D01*
X144836589Y-100379490D01*
X145106842Y-100491432D01*
X145393740Y-100548500D01*
X145686260Y-100548500D01*
X145973158Y-100491432D01*
X146243411Y-100379490D01*
X146486632Y-100216975D01*
X146693475Y-100010132D01*
X146855990Y-99766911D01*
X146967932Y-99496658D01*
X146983102Y-99420390D01*
X151058524Y-99420390D01*
X151103175Y-99567599D01*
X151228359Y-99830420D01*
X151402412Y-100063769D01*
X151618645Y-100258678D01*
X151868748Y-100407657D01*
X152143109Y-100504981D01*
X152373000Y-100384314D01*
X152373000Y-99190500D01*
X152627000Y-99190500D01*
X152627000Y-100384314D01*
X152856891Y-100504981D01*
X153131252Y-100407657D01*
X153381355Y-100258678D01*
X153597588Y-100063769D01*
X153770000Y-99832620D01*
X153942412Y-100063769D01*
X154158645Y-100258678D01*
X154408748Y-100407657D01*
X154683109Y-100504981D01*
X154913000Y-100384314D01*
X154913000Y-99190500D01*
X155167000Y-99190500D01*
X155167000Y-100384314D01*
X155396891Y-100504981D01*
X155671252Y-100407657D01*
X155921355Y-100258678D01*
X156137588Y-100063769D01*
X156311641Y-99830420D01*
X156436825Y-99567599D01*
X156481476Y-99420390D01*
X156360155Y-99190500D01*
X155167000Y-99190500D01*
X154913000Y-99190500D01*
X152627000Y-99190500D01*
X152373000Y-99190500D01*
X151179845Y-99190500D01*
X151058524Y-99420390D01*
X146983102Y-99420390D01*
X147025000Y-99209760D01*
X147025000Y-98917240D01*
X146967932Y-98630342D01*
X146855990Y-98360089D01*
X146693475Y-98116868D01*
X146486632Y-97910025D01*
X146312240Y-97793500D01*
X146486632Y-97676975D01*
X146693475Y-97470132D01*
X146855990Y-97226911D01*
X146967932Y-96956658D01*
X147025000Y-96669760D01*
X147025000Y-96377240D01*
X146967932Y-96090342D01*
X146855990Y-95820089D01*
X146693475Y-95576868D01*
X146486632Y-95370025D01*
X146312240Y-95253500D01*
X146486632Y-95136975D01*
X146693475Y-94930132D01*
X146855990Y-94686911D01*
X146967932Y-94416658D01*
X147025000Y-94129760D01*
X147025000Y-93837240D01*
X146967932Y-93550342D01*
X146943767Y-93492000D01*
X147763428Y-93492000D01*
X147775688Y-93616482D01*
X147811998Y-93736180D01*
X147870963Y-93846494D01*
X147950315Y-93943185D01*
X148019544Y-94000000D01*
X147950315Y-94056815D01*
X147870963Y-94153506D01*
X147811998Y-94263820D01*
X147775688Y-94383518D01*
X147763428Y-94508000D01*
X147763428Y-95397000D01*
X147775688Y-95521482D01*
X147811998Y-95641180D01*
X147870963Y-95751494D01*
X147950315Y-95848185D01*
X148047006Y-95927537D01*
X148157320Y-95986502D01*
X148277018Y-96022812D01*
X148340001Y-96029015D01*
X148340001Y-96296288D01*
X148296063Y-96340226D01*
X148182795Y-96509744D01*
X148104774Y-96698102D01*
X148065000Y-96898061D01*
X148065000Y-97101939D01*
X148104774Y-97301898D01*
X148182795Y-97490256D01*
X148296063Y-97659774D01*
X148440226Y-97803937D01*
X148609744Y-97917205D01*
X148798102Y-97995226D01*
X148998061Y-98035000D01*
X149201939Y-98035000D01*
X149401898Y-97995226D01*
X149590256Y-97917205D01*
X149759774Y-97803937D01*
X149903937Y-97659774D01*
X150017205Y-97490256D01*
X150095226Y-97301898D01*
X150135000Y-97101939D01*
X150135000Y-96898061D01*
X150131486Y-96880390D01*
X151058524Y-96880390D01*
X151103175Y-97027599D01*
X151228359Y-97290420D01*
X151402412Y-97523769D01*
X151618645Y-97718678D01*
X151744255Y-97793500D01*
X151618645Y-97868322D01*
X151402412Y-98063231D01*
X151228359Y-98296580D01*
X151103175Y-98559401D01*
X151058524Y-98706610D01*
X151179845Y-98936500D01*
X152373000Y-98936500D01*
X152373000Y-96650500D01*
X152627000Y-96650500D01*
X152627000Y-98936500D01*
X154913000Y-98936500D01*
X154913000Y-96650500D01*
X155167000Y-96650500D01*
X155167000Y-98936500D01*
X156360155Y-98936500D01*
X156481476Y-98706610D01*
X156436825Y-98559401D01*
X156311641Y-98296580D01*
X156137588Y-98063231D01*
X155921355Y-97868322D01*
X155795745Y-97793500D01*
X155921355Y-97718678D01*
X156137588Y-97523769D01*
X156311641Y-97290420D01*
X156436825Y-97027599D01*
X156481476Y-96880390D01*
X156360155Y-96650500D01*
X155167000Y-96650500D01*
X154913000Y-96650500D01*
X152627000Y-96650500D01*
X152373000Y-96650500D01*
X151179845Y-96650500D01*
X151058524Y-96880390D01*
X150131486Y-96880390D01*
X150095226Y-96698102D01*
X150017205Y-96509744D01*
X149903937Y-96340226D01*
X149860000Y-96296289D01*
X149860000Y-96029015D01*
X149922982Y-96022812D01*
X150042680Y-95986502D01*
X150152994Y-95927537D01*
X150249685Y-95848185D01*
X150329037Y-95751494D01*
X150388002Y-95641180D01*
X150424312Y-95521482D01*
X150436572Y-95397000D01*
X150436572Y-94833500D01*
X151011928Y-94833500D01*
X151024188Y-94957982D01*
X151060498Y-95077680D01*
X151119463Y-95187994D01*
X151198815Y-95284685D01*
X151295506Y-95364037D01*
X151405820Y-95423002D01*
X151486466Y-95447466D01*
X151402412Y-95523231D01*
X151228359Y-95756580D01*
X151103175Y-96019401D01*
X151058524Y-96166610D01*
X151179845Y-96396500D01*
X152373000Y-96396500D01*
X152373000Y-94110500D01*
X152627000Y-94110500D01*
X152627000Y-96396500D01*
X154913000Y-96396500D01*
X154913000Y-94110500D01*
X155167000Y-94110500D01*
X155167000Y-96396500D01*
X156360155Y-96396500D01*
X156481476Y-96166610D01*
X156436825Y-96019401D01*
X156311641Y-95756580D01*
X156137588Y-95523231D01*
X155921355Y-95328322D01*
X155795745Y-95253500D01*
X155921355Y-95178678D01*
X156137588Y-94983769D01*
X156311641Y-94750420D01*
X156436825Y-94487599D01*
X156481476Y-94340390D01*
X156360155Y-94110500D01*
X155167000Y-94110500D01*
X154913000Y-94110500D01*
X152627000Y-94110500D01*
X152373000Y-94110500D01*
X151173750Y-94110500D01*
X151015000Y-94269250D01*
X151011928Y-94833500D01*
X150436572Y-94833500D01*
X150436572Y-94508000D01*
X150424312Y-94383518D01*
X150388002Y-94263820D01*
X150329037Y-94153506D01*
X150249685Y-94056815D01*
X150180456Y-94000000D01*
X150249685Y-93943185D01*
X150329037Y-93846494D01*
X150388002Y-93736180D01*
X150424312Y-93616482D01*
X150436572Y-93492000D01*
X150433500Y-93333250D01*
X150274750Y-93174500D01*
X149227000Y-93174500D01*
X149227000Y-93194500D01*
X148973000Y-93194500D01*
X148973000Y-93174500D01*
X147925250Y-93174500D01*
X147766500Y-93333250D01*
X147763428Y-93492000D01*
X146943767Y-93492000D01*
X146855990Y-93280089D01*
X146758043Y-93133500D01*
X151011928Y-93133500D01*
X151015000Y-93697750D01*
X151173750Y-93856500D01*
X152373000Y-93856500D01*
X152373000Y-92657250D01*
X152627000Y-92657250D01*
X152627000Y-93856500D01*
X154913000Y-93856500D01*
X154913000Y-92662686D01*
X155167000Y-92662686D01*
X155167000Y-93856500D01*
X156360155Y-93856500D01*
X156481476Y-93626610D01*
X156436825Y-93479401D01*
X156311641Y-93216580D01*
X156137588Y-92983231D01*
X155921355Y-92788322D01*
X155671252Y-92639343D01*
X155396891Y-92542019D01*
X155167000Y-92662686D01*
X154913000Y-92662686D01*
X154683109Y-92542019D01*
X154408748Y-92639343D01*
X154158645Y-92788322D01*
X153962498Y-92965126D01*
X153939502Y-92889320D01*
X153880537Y-92779006D01*
X153801185Y-92682315D01*
X153704494Y-92602963D01*
X153594180Y-92543998D01*
X153474482Y-92507688D01*
X153350000Y-92495428D01*
X152785750Y-92498500D01*
X152627000Y-92657250D01*
X152373000Y-92657250D01*
X152214250Y-92498500D01*
X151650000Y-92495428D01*
X151525518Y-92507688D01*
X151405820Y-92543998D01*
X151295506Y-92602963D01*
X151198815Y-92682315D01*
X151119463Y-92779006D01*
X151060498Y-92889320D01*
X151024188Y-93009018D01*
X151011928Y-93133500D01*
X146758043Y-93133500D01*
X146693475Y-93036868D01*
X146486632Y-92830025D01*
X146243411Y-92667510D01*
X146087670Y-92603000D01*
X147763428Y-92603000D01*
X147766500Y-92761750D01*
X147925250Y-92920500D01*
X148973000Y-92920500D01*
X148973000Y-92126750D01*
X149227000Y-92126750D01*
X149227000Y-92920500D01*
X150274750Y-92920500D01*
X150433500Y-92761750D01*
X150436572Y-92603000D01*
X150424312Y-92478518D01*
X150388002Y-92358820D01*
X150329037Y-92248506D01*
X150249685Y-92151815D01*
X150152994Y-92072463D01*
X150042680Y-92013498D01*
X149922982Y-91977188D01*
X149798500Y-91964928D01*
X149385750Y-91968000D01*
X149227000Y-92126750D01*
X148973000Y-92126750D01*
X148814250Y-91968000D01*
X148401500Y-91964928D01*
X148277018Y-91977188D01*
X148157320Y-92013498D01*
X148047006Y-92072463D01*
X147950315Y-92151815D01*
X147870963Y-92248506D01*
X147811998Y-92358820D01*
X147775688Y-92478518D01*
X147763428Y-92603000D01*
X146087670Y-92603000D01*
X145973158Y-92555568D01*
X145686260Y-92498500D01*
X145393740Y-92498500D01*
X145106842Y-92555568D01*
X144836589Y-92667510D01*
X144593368Y-92830025D01*
X144461513Y-92961880D01*
X144439502Y-92889320D01*
X144380537Y-92779006D01*
X144301185Y-92682315D01*
X144204494Y-92602963D01*
X144094180Y-92543998D01*
X143974482Y-92507688D01*
X143850000Y-92495428D01*
X142150000Y-92495428D01*
X142025518Y-92507688D01*
X141905820Y-92543998D01*
X141795506Y-92602963D01*
X141698815Y-92682315D01*
X141619463Y-92779006D01*
X141560498Y-92889320D01*
X141524188Y-93009018D01*
X141511928Y-93133500D01*
X137960000Y-93133500D01*
X137960000Y-92014801D01*
X139705164Y-90269638D01*
X139725518Y-90275812D01*
X139850000Y-90288072D01*
X141550000Y-90288072D01*
X141674482Y-90275812D01*
X141794180Y-90239502D01*
X141904494Y-90180537D01*
X142001185Y-90101185D01*
X142080537Y-90004494D01*
X142139502Y-89894180D01*
X142175812Y-89774482D01*
X142188072Y-89650000D01*
X142188072Y-87950000D01*
X142175812Y-87825518D01*
X142139502Y-87705820D01*
X142080537Y-87595506D01*
X142001185Y-87498815D01*
X141904494Y-87419463D01*
X141794180Y-87360498D01*
X141721620Y-87338487D01*
X141853475Y-87206632D01*
X142015990Y-86963411D01*
X142127932Y-86693158D01*
X142185000Y-86406260D01*
X142185000Y-86113740D01*
X142127932Y-85826842D01*
X142015990Y-85556589D01*
X141853475Y-85313368D01*
X141646632Y-85106525D01*
X141472240Y-84990000D01*
X141646632Y-84873475D01*
X141853475Y-84666632D01*
X142015990Y-84423411D01*
X142127932Y-84153158D01*
X142185000Y-83866260D01*
X142185000Y-83573740D01*
X142127932Y-83286842D01*
X142015990Y-83016589D01*
X141853475Y-82773368D01*
X141646632Y-82566525D01*
X141472240Y-82450000D01*
X141646632Y-82333475D01*
X141853475Y-82126632D01*
X142015990Y-81883411D01*
X142127932Y-81613158D01*
X142185000Y-81326260D01*
X142185000Y-81033740D01*
X142127932Y-80746842D01*
X142015990Y-80476589D01*
X141853475Y-80233368D01*
X141646632Y-80026525D01*
X141472240Y-79910000D01*
X141646632Y-79793475D01*
X141853475Y-79586632D01*
X142015990Y-79343411D01*
X142127932Y-79073158D01*
X142185000Y-78786260D01*
X142185000Y-78493740D01*
X142127932Y-78206842D01*
X142015990Y-77936589D01*
X141853475Y-77693368D01*
X141646632Y-77486525D01*
X141472240Y-77370000D01*
X141646632Y-77253475D01*
X141762653Y-77137454D01*
X147840000Y-83214802D01*
X147840001Y-87462668D01*
X147836324Y-87500000D01*
X147850998Y-87648985D01*
X147894454Y-87792246D01*
X147965026Y-87924276D01*
X148000708Y-87967754D01*
X148060000Y-88040001D01*
X148088998Y-88063799D01*
X148836201Y-88811002D01*
X148859999Y-88840001D01*
X148975724Y-88934974D01*
X149107753Y-89005546D01*
X149162698Y-89022213D01*
X149162698Y-89100100D01*
X149174958Y-89224582D01*
X149211268Y-89344280D01*
X149270233Y-89454594D01*
X149349585Y-89551285D01*
X149446276Y-89630637D01*
X149556590Y-89689602D01*
X149676288Y-89725912D01*
X149800770Y-89738172D01*
X151799750Y-89738172D01*
X151924232Y-89725912D01*
X152043930Y-89689602D01*
X152154244Y-89630637D01*
X152250935Y-89551285D01*
X152330287Y-89454594D01*
X152389252Y-89344280D01*
X152425562Y-89224582D01*
X152437822Y-89100100D01*
X155162178Y-89100100D01*
X155174438Y-89224582D01*
X155210748Y-89344280D01*
X155269713Y-89454594D01*
X155349065Y-89551285D01*
X155445756Y-89630637D01*
X155556070Y-89689602D01*
X155675768Y-89725912D01*
X155800250Y-89738172D01*
X156513990Y-89735100D01*
X156672740Y-89576350D01*
X156672740Y-88427000D01*
X156926740Y-88427000D01*
X156926740Y-89576350D01*
X157085490Y-89735100D01*
X157799230Y-89738172D01*
X157923712Y-89725912D01*
X158043410Y-89689602D01*
X158153724Y-89630637D01*
X158250415Y-89551285D01*
X158329767Y-89454594D01*
X158388732Y-89344280D01*
X158425042Y-89224582D01*
X158437302Y-89100100D01*
X158434230Y-88585750D01*
X158275480Y-88427000D01*
X156926740Y-88427000D01*
X156672740Y-88427000D01*
X155324000Y-88427000D01*
X155165250Y-88585750D01*
X155162178Y-89100100D01*
X152437822Y-89100100D01*
X152437822Y-87499900D01*
X155162178Y-87499900D01*
X155165250Y-88014250D01*
X155324000Y-88173000D01*
X156672740Y-88173000D01*
X156672740Y-87023650D01*
X156926740Y-87023650D01*
X156926740Y-88173000D01*
X158275480Y-88173000D01*
X158434230Y-88014250D01*
X158437302Y-87499900D01*
X158425042Y-87375418D01*
X158388732Y-87255720D01*
X158329767Y-87145406D01*
X158250415Y-87048715D01*
X158153724Y-86969363D01*
X158043410Y-86910398D01*
X157923712Y-86874088D01*
X157799230Y-86861828D01*
X157085490Y-86864900D01*
X156926740Y-87023650D01*
X156672740Y-87023650D01*
X156513990Y-86864900D01*
X155800250Y-86861828D01*
X155675768Y-86874088D01*
X155556070Y-86910398D01*
X155445756Y-86969363D01*
X155349065Y-87048715D01*
X155269713Y-87145406D01*
X155210748Y-87255720D01*
X155174438Y-87375418D01*
X155162178Y-87499900D01*
X152437822Y-87499900D01*
X152425562Y-87375418D01*
X152389252Y-87255720D01*
X152330287Y-87145406D01*
X152250935Y-87048715D01*
X152154244Y-86969363D01*
X152043930Y-86910398D01*
X151924232Y-86874088D01*
X151799750Y-86861828D01*
X149800770Y-86861828D01*
X149676288Y-86874088D01*
X149556590Y-86910398D01*
X149446276Y-86969363D01*
X149360000Y-87040168D01*
X149360000Y-82937322D01*
X149363676Y-82899999D01*
X149360000Y-82862676D01*
X149360000Y-82862667D01*
X149349003Y-82751014D01*
X149305546Y-82607753D01*
X149234974Y-82475724D01*
X149140001Y-82359999D01*
X149111004Y-82336202D01*
X142363804Y-75589003D01*
X142340001Y-75559999D01*
X142224276Y-75465026D01*
X142092247Y-75394454D01*
X141994815Y-75364899D01*
X141853475Y-75153368D01*
X141646632Y-74946525D01*
X141472240Y-74830000D01*
X141646632Y-74713475D01*
X141853475Y-74506632D01*
X141924914Y-74399715D01*
X149036201Y-81511003D01*
X149059999Y-81540001D01*
X149088997Y-81563799D01*
X149162698Y-81624285D01*
X149162698Y-81800100D01*
X149174958Y-81924582D01*
X149211268Y-82044280D01*
X149270233Y-82154594D01*
X149349585Y-82251285D01*
X149446276Y-82330637D01*
X149556590Y-82389602D01*
X149676288Y-82425912D01*
X149800770Y-82438172D01*
X151799750Y-82438172D01*
X151924232Y-82425912D01*
X152043930Y-82389602D01*
X152154244Y-82330637D01*
X152250935Y-82251285D01*
X152330287Y-82154594D01*
X152389252Y-82044280D01*
X152425562Y-81924582D01*
X152437822Y-81800100D01*
X155162178Y-81800100D01*
X155174438Y-81924582D01*
X155210748Y-82044280D01*
X155269713Y-82154594D01*
X155349065Y-82251285D01*
X155445756Y-82330637D01*
X155556070Y-82389602D01*
X155675768Y-82425912D01*
X155800250Y-82438172D01*
X156513990Y-82435100D01*
X156672740Y-82276350D01*
X156672740Y-81127000D01*
X156926740Y-81127000D01*
X156926740Y-82276350D01*
X157085490Y-82435100D01*
X157799230Y-82438172D01*
X157923712Y-82425912D01*
X158043410Y-82389602D01*
X158153724Y-82330637D01*
X158250415Y-82251285D01*
X158329767Y-82154594D01*
X158388732Y-82044280D01*
X158425042Y-81924582D01*
X158437302Y-81800100D01*
X158434230Y-81285750D01*
X158275480Y-81127000D01*
X156926740Y-81127000D01*
X156672740Y-81127000D01*
X155324000Y-81127000D01*
X155165250Y-81285750D01*
X155162178Y-81800100D01*
X152437822Y-81800100D01*
X152437822Y-80199900D01*
X155162178Y-80199900D01*
X155165250Y-80714250D01*
X155324000Y-80873000D01*
X156672740Y-80873000D01*
X156672740Y-79723650D01*
X156926740Y-79723650D01*
X156926740Y-80873000D01*
X158275480Y-80873000D01*
X158434230Y-80714250D01*
X158437302Y-80199900D01*
X158425042Y-80075418D01*
X158388732Y-79955720D01*
X158329767Y-79845406D01*
X158250415Y-79748715D01*
X158153724Y-79669363D01*
X158043410Y-79610398D01*
X157923712Y-79574088D01*
X157799230Y-79561828D01*
X157085490Y-79564900D01*
X156926740Y-79723650D01*
X156672740Y-79723650D01*
X156513990Y-79564900D01*
X155800250Y-79561828D01*
X155675768Y-79574088D01*
X155556070Y-79610398D01*
X155445756Y-79669363D01*
X155349065Y-79748715D01*
X155269713Y-79845406D01*
X155210748Y-79955720D01*
X155174438Y-80075418D01*
X155162178Y-80199900D01*
X152437822Y-80199900D01*
X152425562Y-80075418D01*
X152389252Y-79955720D01*
X152330287Y-79845406D01*
X152250935Y-79748715D01*
X152154244Y-79669363D01*
X152043930Y-79610398D01*
X151924232Y-79574088D01*
X151799750Y-79561828D01*
X149800770Y-79561828D01*
X149676288Y-79574088D01*
X149556590Y-79610398D01*
X149446276Y-79669363D01*
X149390192Y-79715390D01*
X142723804Y-73049003D01*
X142700001Y-73019999D01*
X142584276Y-72925026D01*
X142452247Y-72854454D01*
X142308986Y-72810997D01*
X142197333Y-72800000D01*
X142197322Y-72800000D01*
X142160000Y-72796324D01*
X142122678Y-72800000D01*
X141978178Y-72800000D01*
X141853475Y-72613368D01*
X141646632Y-72406525D01*
X141472240Y-72290000D01*
X141646632Y-72173475D01*
X141853475Y-71966632D01*
X141978178Y-71780000D01*
X146105199Y-71780000D01*
X148536201Y-74211003D01*
X148559999Y-74240001D01*
X148675724Y-74334974D01*
X148807753Y-74405546D01*
X148951014Y-74449003D01*
X149062667Y-74460000D01*
X149062676Y-74460000D01*
X149099999Y-74463676D01*
X149137322Y-74460000D01*
X149162698Y-74460000D01*
X149162698Y-74500100D01*
X149174958Y-74624582D01*
X149211268Y-74744280D01*
X149270233Y-74854594D01*
X149349585Y-74951285D01*
X149446276Y-75030637D01*
X149556590Y-75089602D01*
X149676288Y-75125912D01*
X149800770Y-75138172D01*
X151799750Y-75138172D01*
X151924232Y-75125912D01*
X152043930Y-75089602D01*
X152154244Y-75030637D01*
X152250935Y-74951285D01*
X152330287Y-74854594D01*
X152389252Y-74744280D01*
X152425562Y-74624582D01*
X152437822Y-74500100D01*
X155162178Y-74500100D01*
X155174438Y-74624582D01*
X155210748Y-74744280D01*
X155269713Y-74854594D01*
X155349065Y-74951285D01*
X155445756Y-75030637D01*
X155556070Y-75089602D01*
X155675768Y-75125912D01*
X155800250Y-75138172D01*
X156513990Y-75135100D01*
X156672740Y-74976350D01*
X156672740Y-73827000D01*
X156926740Y-73827000D01*
X156926740Y-74976350D01*
X157085490Y-75135100D01*
X157799230Y-75138172D01*
X157923712Y-75125912D01*
X158043410Y-75089602D01*
X158153724Y-75030637D01*
X158250415Y-74951285D01*
X158329767Y-74854594D01*
X158388732Y-74744280D01*
X158425042Y-74624582D01*
X158437302Y-74500100D01*
X158434230Y-73985750D01*
X158275480Y-73827000D01*
X156926740Y-73827000D01*
X156672740Y-73827000D01*
X155324000Y-73827000D01*
X155165250Y-73985750D01*
X155162178Y-74500100D01*
X152437822Y-74500100D01*
X152437822Y-72899900D01*
X155162178Y-72899900D01*
X155165250Y-73414250D01*
X155324000Y-73573000D01*
X156672740Y-73573000D01*
X156672740Y-72423650D01*
X156926740Y-72423650D01*
X156926740Y-73573000D01*
X158275480Y-73573000D01*
X158434230Y-73414250D01*
X158437302Y-72899900D01*
X158425042Y-72775418D01*
X158388732Y-72655720D01*
X158329767Y-72545406D01*
X158250415Y-72448715D01*
X158153724Y-72369363D01*
X158043410Y-72310398D01*
X157923712Y-72274088D01*
X157799230Y-72261828D01*
X157085490Y-72264900D01*
X156926740Y-72423650D01*
X156672740Y-72423650D01*
X156513990Y-72264900D01*
X155800250Y-72261828D01*
X155675768Y-72274088D01*
X155556070Y-72310398D01*
X155445756Y-72369363D01*
X155349065Y-72448715D01*
X155269713Y-72545406D01*
X155210748Y-72655720D01*
X155174438Y-72775418D01*
X155162178Y-72899900D01*
X152437822Y-72899900D01*
X152425562Y-72775418D01*
X152389252Y-72655720D01*
X152330287Y-72545406D01*
X152250935Y-72448715D01*
X152154244Y-72369363D01*
X152043930Y-72310398D01*
X151924232Y-72274088D01*
X151799750Y-72261828D01*
X149800770Y-72261828D01*
X149676288Y-72274088D01*
X149556590Y-72310398D01*
X149446276Y-72369363D01*
X149349585Y-72448715D01*
X149270233Y-72545406D01*
X149211268Y-72655720D01*
X149192475Y-72717673D01*
X146983804Y-70509003D01*
X146960001Y-70479999D01*
X146844276Y-70385026D01*
X146712247Y-70314454D01*
X146568986Y-70270997D01*
X146457333Y-70260000D01*
X146457322Y-70260000D01*
X146420000Y-70256324D01*
X146382678Y-70260000D01*
X141978178Y-70260000D01*
X141853475Y-70073368D01*
X141646632Y-69866525D01*
X141472240Y-69750000D01*
X141646632Y-69633475D01*
X141853475Y-69426632D01*
X141978178Y-69240000D01*
X151682678Y-69240000D01*
X151720000Y-69243676D01*
X151757322Y-69240000D01*
X151757333Y-69240000D01*
X151868986Y-69229003D01*
X152012247Y-69185546D01*
X152144276Y-69114974D01*
X152260001Y-69020001D01*
X152283804Y-68990997D01*
X153651004Y-67623798D01*
X153680001Y-67600001D01*
X153774974Y-67484276D01*
X153845546Y-67352247D01*
X153859883Y-67304984D01*
X154086632Y-67153475D01*
X154293475Y-66946632D01*
X154415195Y-66764466D01*
X154484822Y-66881355D01*
X154679731Y-67097588D01*
X154913080Y-67271641D01*
X155175901Y-67396825D01*
X155323110Y-67441476D01*
X155553000Y-67320155D01*
X155553000Y-66127000D01*
X155533000Y-66127000D01*
X155533000Y-65873000D01*
X155553000Y-65873000D01*
X155553000Y-64679845D01*
X155807000Y-64679845D01*
X155807000Y-65873000D01*
X155827000Y-65873000D01*
X155827000Y-66127000D01*
X155807000Y-66127000D01*
X155807000Y-67320155D01*
X156036890Y-67441476D01*
X156184099Y-67396825D01*
X156446920Y-67271641D01*
X156680269Y-67097588D01*
X156875178Y-66881355D01*
X156944805Y-66764466D01*
X157066525Y-66946632D01*
X157273368Y-67153475D01*
X157516589Y-67315990D01*
X157786842Y-67427932D01*
X158073740Y-67485000D01*
X158366260Y-67485000D01*
X158653158Y-67427932D01*
X158923411Y-67315990D01*
X159166632Y-67153475D01*
X159373475Y-66946632D01*
X159535990Y-66703411D01*
X159647932Y-66433158D01*
X159705000Y-66146260D01*
X159705000Y-65853740D01*
X159647932Y-65566842D01*
X159535990Y-65296589D01*
X159373475Y-65053368D01*
X159166632Y-64846525D01*
X158923411Y-64684010D01*
X158653158Y-64572068D01*
X158366260Y-64515000D01*
X158073740Y-64515000D01*
X157786842Y-64572068D01*
X157516589Y-64684010D01*
X157273368Y-64846525D01*
X157066525Y-65053368D01*
X156944805Y-65235534D01*
X156875178Y-65118645D01*
X156680269Y-64902412D01*
X156446920Y-64728359D01*
X156184099Y-64603175D01*
X156036890Y-64558524D01*
X155807000Y-64679845D01*
X155553000Y-64679845D01*
X155323110Y-64558524D01*
X155175901Y-64603175D01*
X154913080Y-64728359D01*
X154679731Y-64902412D01*
X154484822Y-65118645D01*
X154415195Y-65235534D01*
X154293475Y-65053368D01*
X154086632Y-64846525D01*
X153843411Y-64684010D01*
X153573158Y-64572068D01*
X153286260Y-64515000D01*
X152993740Y-64515000D01*
X152706842Y-64572068D01*
X152436589Y-64684010D01*
X152193368Y-64846525D01*
X152061513Y-64978380D01*
X152039502Y-64905820D01*
X151980537Y-64795506D01*
X151901185Y-64698815D01*
X151804494Y-64619463D01*
X151694180Y-64560498D01*
X151574482Y-64524188D01*
X151450000Y-64511928D01*
X149750000Y-64511928D01*
X149625518Y-64524188D01*
X149505820Y-64560498D01*
X149395506Y-64619463D01*
X149298815Y-64698815D01*
X149219463Y-64795506D01*
X149160498Y-64905820D01*
X149124188Y-65025518D01*
X149111928Y-65150000D01*
X149111928Y-66850000D01*
X149124188Y-66974482D01*
X149160498Y-67094180D01*
X149219463Y-67204494D01*
X149298815Y-67301185D01*
X149395506Y-67380537D01*
X149505820Y-67439502D01*
X149625518Y-67475812D01*
X149750000Y-67488072D01*
X151450000Y-67488072D01*
X151574482Y-67475812D01*
X151682003Y-67443196D01*
X151405199Y-67720000D01*
X141978178Y-67720000D01*
X141853475Y-67533368D01*
X141646632Y-67326525D01*
X141472240Y-67210000D01*
X141646632Y-67093475D01*
X141853475Y-66886632D01*
X142015990Y-66643411D01*
X142127932Y-66373158D01*
X142185000Y-66086260D01*
X142185000Y-65793740D01*
X142127932Y-65506842D01*
X142015990Y-65236589D01*
X141853475Y-64993368D01*
X141646632Y-64786525D01*
X141403411Y-64624010D01*
X141133158Y-64512068D01*
X140846260Y-64455000D01*
X140553740Y-64455000D01*
X140266842Y-64512068D01*
X139996589Y-64624010D01*
X139753368Y-64786525D01*
X139546525Y-64993368D01*
X139421822Y-65180000D01*
X138497325Y-65180000D01*
X138460000Y-65176324D01*
X138422675Y-65180000D01*
X138422667Y-65180000D01*
X138311014Y-65190997D01*
X138167753Y-65234454D01*
X138035724Y-65305026D01*
X137919999Y-65399999D01*
X137896201Y-65428997D01*
X136255199Y-67070000D01*
X135578178Y-67070000D01*
X135453475Y-66883368D01*
X135246632Y-66676525D01*
X135072240Y-66560000D01*
X135246632Y-66443475D01*
X135453475Y-66236632D01*
X135615990Y-65993411D01*
X135727932Y-65723158D01*
X135785000Y-65436260D01*
X135785000Y-65143740D01*
X135727932Y-64856842D01*
X135615990Y-64586589D01*
X135453475Y-64343368D01*
X135246632Y-64136525D01*
X135003411Y-63974010D01*
X134909232Y-63935000D01*
X159765000Y-63935000D01*
X159765001Y-102165000D01*
X135584351Y-102165000D01*
X135601185Y-102151185D01*
X135680537Y-102054494D01*
X135739502Y-101944180D01*
X135775812Y-101824482D01*
X135788072Y-101700000D01*
X135788072Y-100000000D01*
X135775812Y-99875518D01*
X135739502Y-99755820D01*
X135680537Y-99645506D01*
X135601185Y-99548815D01*
X135504494Y-99469463D01*
X135394180Y-99410498D01*
X135313534Y-99386034D01*
X135397588Y-99310269D01*
X135571641Y-99076920D01*
X135696825Y-98814099D01*
X135741476Y-98666890D01*
X135620155Y-98437000D01*
X134427000Y-98437000D01*
X134427000Y-98457000D01*
X134173000Y-98457000D01*
X134173000Y-98437000D01*
X132979845Y-98437000D01*
X132858524Y-98666890D01*
X132903175Y-98814099D01*
X133028359Y-99076920D01*
X133202412Y-99310269D01*
X133286466Y-99386034D01*
X133205820Y-99410498D01*
X133095506Y-99469463D01*
X132998815Y-99548815D01*
X132919463Y-99645506D01*
X132860498Y-99755820D01*
X132824188Y-99875518D01*
X132811928Y-100000000D01*
X132811928Y-101700000D01*
X132824188Y-101824482D01*
X132860498Y-101944180D01*
X132919463Y-102054494D01*
X132998815Y-102151185D01*
X133015649Y-102165000D01*
X112019859Y-102165000D01*
X112246632Y-102013475D01*
X112453475Y-101806632D01*
X112615990Y-101563411D01*
X112727932Y-101293158D01*
X112785000Y-101006260D01*
X112785000Y-100713740D01*
X112727932Y-100426842D01*
X112615990Y-100156589D01*
X112453475Y-99913368D01*
X112246632Y-99706525D01*
X112064466Y-99584805D01*
X112181355Y-99515178D01*
X112397588Y-99320269D01*
X112571641Y-99086920D01*
X112696825Y-98824099D01*
X112741476Y-98676890D01*
X112620155Y-98447000D01*
X111427000Y-98447000D01*
X111427000Y-98467000D01*
X111173000Y-98467000D01*
X111173000Y-98447000D01*
X109979845Y-98447000D01*
X109858524Y-98676890D01*
X109903175Y-98824099D01*
X110028359Y-99086920D01*
X110202412Y-99320269D01*
X110418645Y-99515178D01*
X110535534Y-99584805D01*
X110353368Y-99706525D01*
X110146525Y-99913368D01*
X110021822Y-100100000D01*
X108594802Y-100100000D01*
X107141209Y-98646408D01*
X107185000Y-98426260D01*
X107185000Y-98133740D01*
X107127932Y-97846842D01*
X107015990Y-97576589D01*
X106853475Y-97333368D01*
X106646632Y-97126525D01*
X106472240Y-97010000D01*
X106646632Y-96893475D01*
X106853475Y-96686632D01*
X106978178Y-96500000D01*
X109995094Y-96500000D01*
X110146525Y-96726632D01*
X110353368Y-96933475D01*
X110535534Y-97055195D01*
X110418645Y-97124822D01*
X110202412Y-97319731D01*
X110028359Y-97553080D01*
X109903175Y-97815901D01*
X109858524Y-97963110D01*
X109979845Y-98193000D01*
X111173000Y-98193000D01*
X111173000Y-98173000D01*
X111427000Y-98173000D01*
X111427000Y-98193000D01*
X112620155Y-98193000D01*
X112741476Y-97963110D01*
X112696825Y-97815901D01*
X112571641Y-97553080D01*
X112397588Y-97319731D01*
X112181355Y-97124822D01*
X112064466Y-97055195D01*
X112246632Y-96933475D01*
X112453475Y-96726632D01*
X112615990Y-96483411D01*
X112727932Y-96213158D01*
X112785000Y-95926260D01*
X112785000Y-95633740D01*
X112727932Y-95346842D01*
X112615990Y-95076589D01*
X112453475Y-94833368D01*
X112246632Y-94626525D01*
X112072240Y-94510000D01*
X112246632Y-94393475D01*
X112453475Y-94186632D01*
X112615990Y-93943411D01*
X112727932Y-93673158D01*
X112785000Y-93386260D01*
X112785000Y-93093740D01*
X112727932Y-92806842D01*
X112615990Y-92536589D01*
X112453475Y-92293368D01*
X112246632Y-92086525D01*
X112072240Y-91970000D01*
X112246632Y-91853475D01*
X112453475Y-91646632D01*
X112615990Y-91403411D01*
X112727932Y-91133158D01*
X112785000Y-90846260D01*
X112785000Y-90553740D01*
X112727932Y-90266842D01*
X112615990Y-89996589D01*
X112453475Y-89753368D01*
X112246632Y-89546525D01*
X112064466Y-89424805D01*
X112181355Y-89355178D01*
X112397588Y-89160269D01*
X112571641Y-88926920D01*
X112696825Y-88664099D01*
X112741476Y-88516890D01*
X112620155Y-88287000D01*
X111427000Y-88287000D01*
X111427000Y-88307000D01*
X111173000Y-88307000D01*
X111173000Y-88287000D01*
X109979845Y-88287000D01*
X109858524Y-88516890D01*
X109903175Y-88664099D01*
X110028359Y-88926920D01*
X110202412Y-89160269D01*
X110418645Y-89355178D01*
X110535534Y-89424805D01*
X110353368Y-89546525D01*
X110146525Y-89753368D01*
X109984010Y-89996589D01*
X109872068Y-90266842D01*
X109815000Y-90553740D01*
X109815000Y-90846260D01*
X109872068Y-91133158D01*
X109984010Y-91403411D01*
X110146525Y-91646632D01*
X110353368Y-91853475D01*
X110527760Y-91970000D01*
X110353368Y-92086525D01*
X110146525Y-92293368D01*
X110048549Y-92440000D01*
X107188072Y-92440000D01*
X107188072Y-92350000D01*
X107175812Y-92225518D01*
X107139502Y-92105820D01*
X107080537Y-91995506D01*
X107001185Y-91898815D01*
X106904494Y-91819463D01*
X106794180Y-91760498D01*
X106674482Y-91724188D01*
X106550000Y-91711928D01*
X104850000Y-91711928D01*
X104725518Y-91724188D01*
X104605820Y-91760498D01*
X104495506Y-91819463D01*
X104398815Y-91898815D01*
X104319463Y-91995506D01*
X104260498Y-92105820D01*
X104224188Y-92225518D01*
X104211928Y-92350000D01*
X104211928Y-94050000D01*
X104224188Y-94174482D01*
X104260498Y-94294180D01*
X104319463Y-94404494D01*
X104398815Y-94501185D01*
X104495506Y-94580537D01*
X104605820Y-94639502D01*
X104678380Y-94661513D01*
X104546525Y-94793368D01*
X104384010Y-95036589D01*
X104272068Y-95306842D01*
X104215000Y-95593740D01*
X104215000Y-95886260D01*
X104272068Y-96173158D01*
X104384010Y-96443411D01*
X104546525Y-96686632D01*
X104753368Y-96893475D01*
X104927760Y-97010000D01*
X104753368Y-97126525D01*
X104546525Y-97333368D01*
X104384010Y-97576589D01*
X104272068Y-97846842D01*
X104215000Y-98133740D01*
X104215000Y-98426260D01*
X104272068Y-98713158D01*
X104384010Y-98983411D01*
X104546525Y-99226632D01*
X104753368Y-99433475D01*
X104996589Y-99595990D01*
X105266842Y-99707932D01*
X105553740Y-99765000D01*
X105846260Y-99765000D01*
X106066408Y-99721209D01*
X107716201Y-101371003D01*
X107739999Y-101400001D01*
X107768997Y-101423799D01*
X107855723Y-101494974D01*
X107983759Y-101563411D01*
X107987753Y-101565546D01*
X108131014Y-101609003D01*
X108242667Y-101620000D01*
X108242677Y-101620000D01*
X108280000Y-101623676D01*
X108317322Y-101620000D01*
X110021822Y-101620000D01*
X110146525Y-101806632D01*
X110353368Y-102013475D01*
X110580141Y-102165000D01*
X101435000Y-102165000D01*
X101435000Y-90298500D01*
X102117428Y-90298500D01*
X102129688Y-90422982D01*
X102165998Y-90542680D01*
X102224963Y-90652994D01*
X102304315Y-90749685D01*
X102401006Y-90829037D01*
X102511320Y-90888002D01*
X102631018Y-90924312D01*
X102755500Y-90936572D01*
X102914250Y-90933500D01*
X103073000Y-90774750D01*
X103073000Y-89727000D01*
X102279250Y-89727000D01*
X102120500Y-89885750D01*
X102117428Y-90298500D01*
X101435000Y-90298500D01*
X101435000Y-88901500D01*
X102117428Y-88901500D01*
X102120500Y-89314250D01*
X102279250Y-89473000D01*
X103073000Y-89473000D01*
X103073000Y-88425250D01*
X103327000Y-88425250D01*
X103327000Y-89473000D01*
X103347000Y-89473000D01*
X103347000Y-89727000D01*
X103327000Y-89727000D01*
X103327000Y-90774750D01*
X103485750Y-90933500D01*
X103644500Y-90936572D01*
X103768982Y-90924312D01*
X103888680Y-90888002D01*
X103998994Y-90829037D01*
X104095685Y-90749685D01*
X104152500Y-90680456D01*
X104209315Y-90749685D01*
X104306006Y-90829037D01*
X104416320Y-90888002D01*
X104536018Y-90924312D01*
X104660500Y-90936572D01*
X105549500Y-90936572D01*
X105673982Y-90924312D01*
X105793680Y-90888002D01*
X105903994Y-90829037D01*
X106000685Y-90749685D01*
X106080037Y-90652994D01*
X106139002Y-90542680D01*
X106169550Y-90441978D01*
X106298102Y-90495226D01*
X106498061Y-90535000D01*
X106701939Y-90535000D01*
X106901898Y-90495226D01*
X107090256Y-90417205D01*
X107259774Y-90303937D01*
X107403937Y-90159774D01*
X107517205Y-89990256D01*
X107595226Y-89801898D01*
X107635000Y-89601939D01*
X107635000Y-89398061D01*
X107595226Y-89198102D01*
X107517205Y-89009744D01*
X107403937Y-88840226D01*
X107259774Y-88696063D01*
X107090256Y-88582795D01*
X106901898Y-88504774D01*
X106701939Y-88465000D01*
X106498061Y-88465000D01*
X106298102Y-88504774D01*
X106109744Y-88582795D01*
X106101950Y-88588002D01*
X106080037Y-88547006D01*
X106000685Y-88450315D01*
X105903994Y-88370963D01*
X105793680Y-88311998D01*
X105673982Y-88275688D01*
X105549500Y-88263428D01*
X104660500Y-88263428D01*
X104536018Y-88275688D01*
X104416320Y-88311998D01*
X104306006Y-88370963D01*
X104209315Y-88450315D01*
X104152500Y-88519544D01*
X104095685Y-88450315D01*
X103998994Y-88370963D01*
X103888680Y-88311998D01*
X103768982Y-88275688D01*
X103644500Y-88263428D01*
X103485750Y-88266500D01*
X103327000Y-88425250D01*
X103073000Y-88425250D01*
X102914250Y-88266500D01*
X102755500Y-88263428D01*
X102631018Y-88275688D01*
X102511320Y-88311998D01*
X102401006Y-88370963D01*
X102304315Y-88450315D01*
X102224963Y-88547006D01*
X102165998Y-88657320D01*
X102129688Y-88777018D01*
X102117428Y-88901500D01*
X101435000Y-88901500D01*
X101435000Y-63935000D01*
X104476574Y-63935000D01*
X104398815Y-63998815D01*
M02*
