%FSLAX45Y45*%
G04 Gerber Fmt 4.5, Leading zero omitted, Abs format (unit mm)*
G04 Created by KiCad (PCBNEW (5.1.5-0-10_14)) date 2020-04-27 22:26:07*
%MOMM*%
%LPD*%
G04 APERTURE LIST*
%TA.AperFunction,Profile*%
%ADD10C,0.200000*%
%TD*%
%ADD11C,0.200000*%
%ADD12C,0.300000*%
G04 APERTURE END LIST*
D10*
X16050000Y-6320000D02*
X16050000Y-10290000D01*
X10070000Y-6320000D02*
X16050000Y-6320000D01*
X10070000Y-10290000D02*
X16050000Y-10290000D01*
X10070000Y-6320000D02*
X10070000Y-10290000D01*
D11*
X10640000Y-8930000D02*
X10680000Y-8970000D01*
X10680000Y-8930000D02*
X10640000Y-8970000D01*
X14890000Y-9680000D02*
X14930000Y-9720000D01*
X14930000Y-9680000D02*
X14890000Y-9720000D01*
X10620000Y-6530000D02*
G75*
G03X10620000Y-6530000I-50000J0D01*
G01*
X10620000Y-6784000D02*
G75*
G03X10620000Y-6784000I-50000J0D01*
G01*
X10620000Y-7038000D02*
G75*
G03X10620000Y-7038000I-50000J0D01*
G01*
X10620000Y-7292000D02*
G75*
G03X10620000Y-7292000I-50000J0D01*
G01*
X10620000Y-7546000D02*
G75*
G03X10620000Y-7546000I-50000J0D01*
G01*
X10620000Y-7800000D02*
G75*
G03X10620000Y-7800000I-50000J0D01*
G01*
X10620000Y-8054000D02*
G75*
G03X10620000Y-8054000I-50000J0D01*
G01*
X10620000Y-8308000D02*
G75*
G03X10620000Y-8308000I-50000J0D01*
G01*
X10620000Y-8562000D02*
G75*
G03X10620000Y-8562000I-50000J0D01*
G01*
X13480000Y-6529000D02*
G75*
G03X13480000Y-6529000I-50000J0D01*
G01*
X13480000Y-6783000D02*
G75*
G03X13480000Y-6783000I-50000J0D01*
G01*
X13480000Y-7037000D02*
G75*
G03X13480000Y-7037000I-50000J0D01*
G01*
X13480000Y-7291000D02*
G75*
G03X13480000Y-7291000I-50000J0D01*
G01*
X13480000Y-7545000D02*
G75*
G03X13480000Y-7545000I-50000J0D01*
G01*
X13480000Y-7799000D02*
G75*
G03X13480000Y-7799000I-50000J0D01*
G01*
X13480000Y-8053000D02*
G75*
G03X13480000Y-8053000I-50000J0D01*
G01*
X13480000Y-8307000D02*
G75*
G03X13480000Y-8307000I-50000J0D01*
G01*
X13480000Y-8561000D02*
G75*
G03X13480000Y-8561000I-50000J0D01*
G01*
X13480000Y-8815000D02*
G75*
G03X13480000Y-8815000I-50000J0D01*
G01*
X13480000Y-9069000D02*
G75*
G03X13480000Y-9069000I-50000J0D01*
G01*
X13480000Y-9323000D02*
G75*
G03X13480000Y-9323000I-50000J0D01*
G01*
X13480000Y-9577000D02*
G75*
G03X13480000Y-9577000I-50000J0D01*
G01*
X13480000Y-9831000D02*
G75*
G03X13480000Y-9831000I-50000J0D01*
G01*
X13480000Y-10085000D02*
G75*
G03X13480000Y-10085000I-50000J0D01*
G01*
X15110000Y-6600000D02*
G75*
G03X15110000Y-6600000I-50000J0D01*
G01*
X15364000Y-6600000D02*
G75*
G03X15364000Y-6600000I-50000J0D01*
G01*
X15618000Y-6600000D02*
G75*
G03X15618000Y-6600000I-50000J0D01*
G01*
X15872000Y-6600000D02*
G75*
G03X15872000Y-6600000I-50000J0D01*
G01*
X15300000Y-9398350D02*
G75*
G03X15300000Y-9398350I-50000J0D01*
G01*
X15300000Y-9652350D02*
G75*
G03X15300000Y-9652350I-50000J0D01*
G01*
X15300000Y-9906350D02*
G75*
G03X15300000Y-9906350I-50000J0D01*
G01*
X15554000Y-9398350D02*
G75*
G03X15554000Y-9398350I-50000J0D01*
G01*
X15554000Y-9652350D02*
G75*
G03X15554000Y-9652350I-50000J0D01*
G01*
X15554000Y-9906350D02*
G75*
G03X15554000Y-9906350I-50000J0D01*
G01*
X11180000Y-6530000D02*
G75*
G03X11180000Y-6530000I-50000J0D01*
G01*
X11180000Y-6784000D02*
G75*
G03X11180000Y-6784000I-50000J0D01*
G01*
X11180000Y-7038000D02*
G75*
G03X11180000Y-7038000I-50000J0D01*
G01*
X11180000Y-7292000D02*
G75*
G03X11180000Y-7292000I-50000J0D01*
G01*
X11180000Y-7546000D02*
G75*
G03X11180000Y-7546000I-50000J0D01*
G01*
X11180000Y-7800000D02*
G75*
G03X11180000Y-7800000I-50000J0D01*
G01*
X11180000Y-8054000D02*
G75*
G03X11180000Y-8054000I-50000J0D01*
G01*
X11180000Y-8308000D02*
G75*
G03X11180000Y-8308000I-50000J0D01*
G01*
X11180000Y-8562000D02*
G75*
G03X11180000Y-8562000I-50000J0D01*
G01*
X11180000Y-8816000D02*
G75*
G03X11180000Y-8816000I-50000J0D01*
G01*
X11180000Y-9070000D02*
G75*
G03X11180000Y-9070000I-50000J0D01*
G01*
X11180000Y-9324000D02*
G75*
G03X11180000Y-9324000I-50000J0D01*
G01*
X11180000Y-9578000D02*
G75*
G03X11180000Y-9578000I-50000J0D01*
G01*
X11180000Y-9832000D02*
G75*
G03X11180000Y-9832000I-50000J0D01*
G01*
X11180000Y-10086000D02*
G75*
G03X11180000Y-10086000I-50000J0D01*
G01*
X14120000Y-6594000D02*
G75*
G03X14120000Y-6594000I-50000J0D01*
G01*
X14120000Y-6848000D02*
G75*
G03X14120000Y-6848000I-50000J0D01*
G01*
X14120000Y-7102000D02*
G75*
G03X14120000Y-7102000I-50000J0D01*
G01*
X14120000Y-7356000D02*
G75*
G03X14120000Y-7356000I-50000J0D01*
G01*
X14120000Y-7610000D02*
G75*
G03X14120000Y-7610000I-50000J0D01*
G01*
X14120000Y-7864000D02*
G75*
G03X14120000Y-7864000I-50000J0D01*
G01*
X14120000Y-8118000D02*
G75*
G03X14120000Y-8118000I-50000J0D01*
G01*
X14120000Y-8372000D02*
G75*
G03X14120000Y-8372000I-50000J0D01*
G01*
X14120000Y-8626000D02*
G75*
G03X14120000Y-8626000I-50000J0D01*
G01*
X14120000Y-8880000D02*
G75*
G03X14120000Y-8880000I-50000J0D01*
G01*
X14350000Y-9398350D02*
G75*
G03X14350000Y-9398350I-50000J0D01*
G01*
X14350000Y-9652350D02*
G75*
G03X14350000Y-9652350I-50000J0D01*
G01*
X14350000Y-9906350D02*
G75*
G03X14350000Y-9906350I-50000J0D01*
G01*
X14604000Y-9398350D02*
G75*
G03X14604000Y-9398350I-50000J0D01*
G01*
X14604000Y-9652350D02*
G75*
G03X14604000Y-9652350I-50000J0D01*
G01*
X14604000Y-9906350D02*
G75*
G03X14604000Y-9906350I-50000J0D01*
G01*
X10620000Y-9320000D02*
G75*
G03X10620000Y-9320000I-50000J0D01*
G01*
X10620000Y-9574000D02*
G75*
G03X10620000Y-9574000I-50000J0D01*
G01*
X10620000Y-9828000D02*
G75*
G03X10620000Y-9828000I-50000J0D01*
G01*
D12*
X10346428Y-10765714D02*
X10346428Y-10465714D01*
X10417857Y-10465714D01*
X10460714Y-10480000D01*
X10489286Y-10508572D01*
X10503571Y-10537143D01*
X10517857Y-10594286D01*
X10517857Y-10637143D01*
X10503571Y-10694286D01*
X10489286Y-10722857D01*
X10460714Y-10751429D01*
X10417857Y-10765714D01*
X10346428Y-10765714D01*
X10646428Y-10765714D02*
X10646428Y-10565714D01*
X10646428Y-10622857D02*
X10660714Y-10594286D01*
X10675000Y-10580000D01*
X10703571Y-10565714D01*
X10732143Y-10565714D01*
X10832143Y-10765714D02*
X10832143Y-10565714D01*
X10832143Y-10465714D02*
X10817857Y-10480000D01*
X10832143Y-10494286D01*
X10846428Y-10480000D01*
X10832143Y-10465714D01*
X10832143Y-10494286D01*
X11017857Y-10765714D02*
X10989286Y-10751429D01*
X10975000Y-10722857D01*
X10975000Y-10465714D01*
X11175000Y-10765714D02*
X11146428Y-10751429D01*
X11132143Y-10722857D01*
X11132143Y-10465714D01*
X11517857Y-10765714D02*
X11517857Y-10465714D01*
X11617857Y-10680000D01*
X11717857Y-10465714D01*
X11717857Y-10765714D01*
X11989286Y-10765714D02*
X11989286Y-10608572D01*
X11975000Y-10580000D01*
X11946428Y-10565714D01*
X11889286Y-10565714D01*
X11860714Y-10580000D01*
X11989286Y-10751429D02*
X11960714Y-10765714D01*
X11889286Y-10765714D01*
X11860714Y-10751429D01*
X11846428Y-10722857D01*
X11846428Y-10694286D01*
X11860714Y-10665714D01*
X11889286Y-10651429D01*
X11960714Y-10651429D01*
X11989286Y-10637143D01*
X12132143Y-10565714D02*
X12132143Y-10865714D01*
X12132143Y-10580000D02*
X12160714Y-10565714D01*
X12217857Y-10565714D01*
X12246428Y-10580000D01*
X12260714Y-10594286D01*
X12275000Y-10622857D01*
X12275000Y-10708572D01*
X12260714Y-10737143D01*
X12246428Y-10751429D01*
X12217857Y-10765714D01*
X12160714Y-10765714D01*
X12132143Y-10751429D01*
X12403571Y-10737143D02*
X12417857Y-10751429D01*
X12403571Y-10765714D01*
X12389286Y-10751429D01*
X12403571Y-10737143D01*
X12403571Y-10765714D01*
X12403571Y-10580000D02*
X12417857Y-10594286D01*
X12403571Y-10608572D01*
X12389286Y-10594286D01*
X12403571Y-10580000D01*
X12403571Y-10608572D01*
X10020000Y-11240000D02*
X10060000Y-11280000D01*
X10060000Y-11240000D02*
X10020000Y-11280000D01*
X10403571Y-11095714D02*
X10432143Y-11095714D01*
X10460714Y-11110000D01*
X10475000Y-11124286D01*
X10489286Y-11152857D01*
X10503571Y-11210000D01*
X10503571Y-11281429D01*
X10489286Y-11338571D01*
X10475000Y-11367143D01*
X10460714Y-11381429D01*
X10432143Y-11395714D01*
X10403571Y-11395714D01*
X10375000Y-11381429D01*
X10360714Y-11367143D01*
X10346428Y-11338571D01*
X10332143Y-11281429D01*
X10332143Y-11210000D01*
X10346428Y-11152857D01*
X10360714Y-11124286D01*
X10375000Y-11110000D01*
X10403571Y-11095714D01*
X10632143Y-11367143D02*
X10646428Y-11381429D01*
X10632143Y-11395714D01*
X10617857Y-11381429D01*
X10632143Y-11367143D01*
X10632143Y-11395714D01*
X10903571Y-11195714D02*
X10903571Y-11395714D01*
X10832143Y-11081429D02*
X10760714Y-11295714D01*
X10946428Y-11295714D01*
X11117857Y-11095714D02*
X11146428Y-11095714D01*
X11175000Y-11110000D01*
X11189286Y-11124286D01*
X11203571Y-11152857D01*
X11217857Y-11210000D01*
X11217857Y-11281429D01*
X11203571Y-11338571D01*
X11189286Y-11367143D01*
X11175000Y-11381429D01*
X11146428Y-11395714D01*
X11117857Y-11395714D01*
X11089286Y-11381429D01*
X11075000Y-11367143D01*
X11060714Y-11338571D01*
X11046428Y-11281429D01*
X11046428Y-11210000D01*
X11060714Y-11152857D01*
X11075000Y-11124286D01*
X11089286Y-11110000D01*
X11117857Y-11095714D01*
X11346428Y-11395714D02*
X11346428Y-11195714D01*
X11346428Y-11224286D02*
X11360714Y-11210000D01*
X11389286Y-11195714D01*
X11432143Y-11195714D01*
X11460714Y-11210000D01*
X11475000Y-11238571D01*
X11475000Y-11395714D01*
X11475000Y-11238571D02*
X11489286Y-11210000D01*
X11517857Y-11195714D01*
X11560714Y-11195714D01*
X11589286Y-11210000D01*
X11603571Y-11238571D01*
X11603571Y-11395714D01*
X11746428Y-11395714D02*
X11746428Y-11195714D01*
X11746428Y-11224286D02*
X11760714Y-11210000D01*
X11789286Y-11195714D01*
X11832143Y-11195714D01*
X11860714Y-11210000D01*
X11875000Y-11238571D01*
X11875000Y-11395714D01*
X11875000Y-11238571D02*
X11889286Y-11210000D01*
X11917857Y-11195714D01*
X11960714Y-11195714D01*
X11989286Y-11210000D01*
X12003571Y-11238571D01*
X12003571Y-11395714D01*
X12589286Y-11081429D02*
X12332143Y-11467143D01*
X12975000Y-11095714D02*
X13003571Y-11095714D01*
X13032143Y-11110000D01*
X13046428Y-11124286D01*
X13060714Y-11152857D01*
X13075000Y-11210000D01*
X13075000Y-11281429D01*
X13060714Y-11338571D01*
X13046428Y-11367143D01*
X13032143Y-11381429D01*
X13003571Y-11395714D01*
X12975000Y-11395714D01*
X12946428Y-11381429D01*
X12932143Y-11367143D01*
X12917857Y-11338571D01*
X12903571Y-11281429D01*
X12903571Y-11210000D01*
X12917857Y-11152857D01*
X12932143Y-11124286D01*
X12946428Y-11110000D01*
X12975000Y-11095714D01*
X13203571Y-11367143D02*
X13217857Y-11381429D01*
X13203571Y-11395714D01*
X13189286Y-11381429D01*
X13203571Y-11367143D01*
X13203571Y-11395714D01*
X13403571Y-11095714D02*
X13432143Y-11095714D01*
X13460714Y-11110000D01*
X13475000Y-11124286D01*
X13489286Y-11152857D01*
X13503571Y-11210000D01*
X13503571Y-11281429D01*
X13489286Y-11338571D01*
X13475000Y-11367143D01*
X13460714Y-11381429D01*
X13432143Y-11395714D01*
X13403571Y-11395714D01*
X13375000Y-11381429D01*
X13360714Y-11367143D01*
X13346428Y-11338571D01*
X13332143Y-11281429D01*
X13332143Y-11210000D01*
X13346428Y-11152857D01*
X13360714Y-11124286D01*
X13375000Y-11110000D01*
X13403571Y-11095714D01*
X13789286Y-11395714D02*
X13617857Y-11395714D01*
X13703571Y-11395714D02*
X13703571Y-11095714D01*
X13675000Y-11138572D01*
X13646428Y-11167143D01*
X13617857Y-11181429D01*
X14046428Y-11095714D02*
X13989286Y-11095714D01*
X13960714Y-11110000D01*
X13946428Y-11124286D01*
X13917857Y-11167143D01*
X13903571Y-11224286D01*
X13903571Y-11338571D01*
X13917857Y-11367143D01*
X13932143Y-11381429D01*
X13960714Y-11395714D01*
X14017857Y-11395714D01*
X14046428Y-11381429D01*
X14060714Y-11367143D01*
X14075000Y-11338571D01*
X14075000Y-11267143D01*
X14060714Y-11238571D01*
X14046428Y-11224286D01*
X14017857Y-11210000D01*
X13960714Y-11210000D01*
X13932143Y-11224286D01*
X13917857Y-11238571D01*
X13903571Y-11267143D01*
X14189286Y-11095714D02*
X14189286Y-11152857D01*
X14303571Y-11095714D02*
X14303571Y-11152857D01*
X14746428Y-11510000D02*
X14732143Y-11495714D01*
X14703571Y-11452857D01*
X14689286Y-11424286D01*
X14675000Y-11381429D01*
X14660714Y-11310000D01*
X14660714Y-11252857D01*
X14675000Y-11181429D01*
X14689286Y-11138572D01*
X14703571Y-11110000D01*
X14732143Y-11067143D01*
X14746428Y-11052857D01*
X14846428Y-11124286D02*
X14860714Y-11110000D01*
X14889286Y-11095714D01*
X14960714Y-11095714D01*
X14989286Y-11110000D01*
X15003571Y-11124286D01*
X15017857Y-11152857D01*
X15017857Y-11181429D01*
X15003571Y-11224286D01*
X14832143Y-11395714D01*
X15017857Y-11395714D01*
X15375000Y-11395714D02*
X15375000Y-11095714D01*
X15503571Y-11395714D02*
X15503571Y-11238571D01*
X15489286Y-11210000D01*
X15460714Y-11195714D01*
X15417857Y-11195714D01*
X15389286Y-11210000D01*
X15375000Y-11224286D01*
X15689286Y-11395714D02*
X15660714Y-11381429D01*
X15646428Y-11367143D01*
X15632143Y-11338571D01*
X15632143Y-11252857D01*
X15646428Y-11224286D01*
X15660714Y-11210000D01*
X15689286Y-11195714D01*
X15732143Y-11195714D01*
X15760714Y-11210000D01*
X15775000Y-11224286D01*
X15789286Y-11252857D01*
X15789286Y-11338571D01*
X15775000Y-11367143D01*
X15760714Y-11381429D01*
X15732143Y-11395714D01*
X15689286Y-11395714D01*
X15960714Y-11395714D02*
X15932143Y-11381429D01*
X15917857Y-11352857D01*
X15917857Y-11095714D01*
X16189286Y-11381429D02*
X16160714Y-11395714D01*
X16103571Y-11395714D01*
X16075000Y-11381429D01*
X16060714Y-11352857D01*
X16060714Y-11238571D01*
X16075000Y-11210000D01*
X16103571Y-11195714D01*
X16160714Y-11195714D01*
X16189286Y-11210000D01*
X16203571Y-11238571D01*
X16203571Y-11267143D01*
X16060714Y-11295714D01*
X16317857Y-11381429D02*
X16346428Y-11395714D01*
X16403571Y-11395714D01*
X16432143Y-11381429D01*
X16446428Y-11352857D01*
X16446428Y-11338571D01*
X16432143Y-11310000D01*
X16403571Y-11295714D01*
X16360714Y-11295714D01*
X16332143Y-11281429D01*
X16317857Y-11252857D01*
X16317857Y-11238571D01*
X16332143Y-11210000D01*
X16360714Y-11195714D01*
X16403571Y-11195714D01*
X16432143Y-11210000D01*
X16546428Y-11510000D02*
X16560714Y-11495714D01*
X16589286Y-11452857D01*
X16603571Y-11424286D01*
X16617857Y-11381429D01*
X16632143Y-11310000D01*
X16632143Y-11252857D01*
X16617857Y-11181429D01*
X16603571Y-11138572D01*
X16589286Y-11110000D01*
X16560714Y-11067143D01*
X16546428Y-11052857D01*
X10060000Y-11656000D02*
G75*
G03X10060000Y-11656000I-50000J0D01*
G01*
X10503571Y-11791714D02*
X10332143Y-11791714D01*
X10417857Y-11791714D02*
X10417857Y-11491714D01*
X10389286Y-11534571D01*
X10360714Y-11563143D01*
X10332143Y-11577429D01*
X10632143Y-11763143D02*
X10646428Y-11777429D01*
X10632143Y-11791714D01*
X10617857Y-11777429D01*
X10632143Y-11763143D01*
X10632143Y-11791714D01*
X10832143Y-11491714D02*
X10860714Y-11491714D01*
X10889286Y-11506000D01*
X10903571Y-11520286D01*
X10917857Y-11548857D01*
X10932143Y-11606000D01*
X10932143Y-11677429D01*
X10917857Y-11734571D01*
X10903571Y-11763143D01*
X10889286Y-11777429D01*
X10860714Y-11791714D01*
X10832143Y-11791714D01*
X10803571Y-11777429D01*
X10789286Y-11763143D01*
X10775000Y-11734571D01*
X10760714Y-11677429D01*
X10760714Y-11606000D01*
X10775000Y-11548857D01*
X10789286Y-11520286D01*
X10803571Y-11506000D01*
X10832143Y-11491714D01*
X11117857Y-11491714D02*
X11146428Y-11491714D01*
X11175000Y-11506000D01*
X11189286Y-11520286D01*
X11203571Y-11548857D01*
X11217857Y-11606000D01*
X11217857Y-11677429D01*
X11203571Y-11734571D01*
X11189286Y-11763143D01*
X11175000Y-11777429D01*
X11146428Y-11791714D01*
X11117857Y-11791714D01*
X11089286Y-11777429D01*
X11075000Y-11763143D01*
X11060714Y-11734571D01*
X11046428Y-11677429D01*
X11046428Y-11606000D01*
X11060714Y-11548857D01*
X11075000Y-11520286D01*
X11089286Y-11506000D01*
X11117857Y-11491714D01*
X11346428Y-11791714D02*
X11346428Y-11591714D01*
X11346428Y-11620286D02*
X11360714Y-11606000D01*
X11389286Y-11591714D01*
X11432143Y-11591714D01*
X11460714Y-11606000D01*
X11475000Y-11634571D01*
X11475000Y-11791714D01*
X11475000Y-11634571D02*
X11489286Y-11606000D01*
X11517857Y-11591714D01*
X11560714Y-11591714D01*
X11589286Y-11606000D01*
X11603571Y-11634571D01*
X11603571Y-11791714D01*
X11746428Y-11791714D02*
X11746428Y-11591714D01*
X11746428Y-11620286D02*
X11760714Y-11606000D01*
X11789286Y-11591714D01*
X11832143Y-11591714D01*
X11860714Y-11606000D01*
X11875000Y-11634571D01*
X11875000Y-11791714D01*
X11875000Y-11634571D02*
X11889286Y-11606000D01*
X11917857Y-11591714D01*
X11960714Y-11591714D01*
X11989286Y-11606000D01*
X12003571Y-11634571D01*
X12003571Y-11791714D01*
X12589286Y-11477429D02*
X12332143Y-11863143D01*
X12975000Y-11491714D02*
X13003571Y-11491714D01*
X13032143Y-11506000D01*
X13046428Y-11520286D01*
X13060714Y-11548857D01*
X13075000Y-11606000D01*
X13075000Y-11677429D01*
X13060714Y-11734571D01*
X13046428Y-11763143D01*
X13032143Y-11777429D01*
X13003571Y-11791714D01*
X12975000Y-11791714D01*
X12946428Y-11777429D01*
X12932143Y-11763143D01*
X12917857Y-11734571D01*
X12903571Y-11677429D01*
X12903571Y-11606000D01*
X12917857Y-11548857D01*
X12932143Y-11520286D01*
X12946428Y-11506000D01*
X12975000Y-11491714D01*
X13203571Y-11763143D02*
X13217857Y-11777429D01*
X13203571Y-11791714D01*
X13189286Y-11777429D01*
X13203571Y-11763143D01*
X13203571Y-11791714D01*
X13403571Y-11491714D02*
X13432143Y-11491714D01*
X13460714Y-11506000D01*
X13475000Y-11520286D01*
X13489286Y-11548857D01*
X13503571Y-11606000D01*
X13503571Y-11677429D01*
X13489286Y-11734571D01*
X13475000Y-11763143D01*
X13460714Y-11777429D01*
X13432143Y-11791714D01*
X13403571Y-11791714D01*
X13375000Y-11777429D01*
X13360714Y-11763143D01*
X13346428Y-11734571D01*
X13332143Y-11677429D01*
X13332143Y-11606000D01*
X13346428Y-11548857D01*
X13360714Y-11520286D01*
X13375000Y-11506000D01*
X13403571Y-11491714D01*
X13603571Y-11491714D02*
X13789286Y-11491714D01*
X13689286Y-11606000D01*
X13732143Y-11606000D01*
X13760714Y-11620286D01*
X13775000Y-11634571D01*
X13789286Y-11663143D01*
X13789286Y-11734571D01*
X13775000Y-11763143D01*
X13760714Y-11777429D01*
X13732143Y-11791714D01*
X13646428Y-11791714D01*
X13617857Y-11777429D01*
X13603571Y-11763143D01*
X13932143Y-11791714D02*
X13989286Y-11791714D01*
X14017857Y-11777429D01*
X14032143Y-11763143D01*
X14060714Y-11720286D01*
X14075000Y-11663143D01*
X14075000Y-11548857D01*
X14060714Y-11520286D01*
X14046428Y-11506000D01*
X14017857Y-11491714D01*
X13960714Y-11491714D01*
X13932143Y-11506000D01*
X13917857Y-11520286D01*
X13903571Y-11548857D01*
X13903571Y-11620286D01*
X13917857Y-11648857D01*
X13932143Y-11663143D01*
X13960714Y-11677429D01*
X14017857Y-11677429D01*
X14046428Y-11663143D01*
X14060714Y-11648857D01*
X14075000Y-11620286D01*
X14189286Y-11491714D02*
X14189286Y-11548857D01*
X14303571Y-11491714D02*
X14303571Y-11548857D01*
X14746428Y-11906000D02*
X14732143Y-11891714D01*
X14703571Y-11848857D01*
X14689286Y-11820286D01*
X14675000Y-11777429D01*
X14660714Y-11706000D01*
X14660714Y-11648857D01*
X14675000Y-11577429D01*
X14689286Y-11534571D01*
X14703571Y-11506000D01*
X14732143Y-11463143D01*
X14746428Y-11448857D01*
X14989286Y-11491714D02*
X14932143Y-11491714D01*
X14903571Y-11506000D01*
X14889286Y-11520286D01*
X14860714Y-11563143D01*
X14846428Y-11620286D01*
X14846428Y-11734571D01*
X14860714Y-11763143D01*
X14875000Y-11777429D01*
X14903571Y-11791714D01*
X14960714Y-11791714D01*
X14989286Y-11777429D01*
X15003571Y-11763143D01*
X15017857Y-11734571D01*
X15017857Y-11663143D01*
X15003571Y-11634571D01*
X14989286Y-11620286D01*
X14960714Y-11606000D01*
X14903571Y-11606000D01*
X14875000Y-11620286D01*
X14860714Y-11634571D01*
X14846428Y-11663143D01*
X15189286Y-11620286D02*
X15160714Y-11606000D01*
X15146428Y-11591714D01*
X15132143Y-11563143D01*
X15132143Y-11548857D01*
X15146428Y-11520286D01*
X15160714Y-11506000D01*
X15189286Y-11491714D01*
X15246428Y-11491714D01*
X15275000Y-11506000D01*
X15289286Y-11520286D01*
X15303571Y-11548857D01*
X15303571Y-11563143D01*
X15289286Y-11591714D01*
X15275000Y-11606000D01*
X15246428Y-11620286D01*
X15189286Y-11620286D01*
X15160714Y-11634571D01*
X15146428Y-11648857D01*
X15132143Y-11677429D01*
X15132143Y-11734571D01*
X15146428Y-11763143D01*
X15160714Y-11777429D01*
X15189286Y-11791714D01*
X15246428Y-11791714D01*
X15275000Y-11777429D01*
X15289286Y-11763143D01*
X15303571Y-11734571D01*
X15303571Y-11677429D01*
X15289286Y-11648857D01*
X15275000Y-11634571D01*
X15246428Y-11620286D01*
X15660714Y-11791714D02*
X15660714Y-11491714D01*
X15789286Y-11791714D02*
X15789286Y-11634571D01*
X15775000Y-11606000D01*
X15746428Y-11591714D01*
X15703571Y-11591714D01*
X15675000Y-11606000D01*
X15660714Y-11620286D01*
X15975000Y-11791714D02*
X15946428Y-11777429D01*
X15932143Y-11763143D01*
X15917857Y-11734571D01*
X15917857Y-11648857D01*
X15932143Y-11620286D01*
X15946428Y-11606000D01*
X15975000Y-11591714D01*
X16017857Y-11591714D01*
X16046428Y-11606000D01*
X16060714Y-11620286D01*
X16075000Y-11648857D01*
X16075000Y-11734571D01*
X16060714Y-11763143D01*
X16046428Y-11777429D01*
X16017857Y-11791714D01*
X15975000Y-11791714D01*
X16246428Y-11791714D02*
X16217857Y-11777429D01*
X16203571Y-11748857D01*
X16203571Y-11491714D01*
X16475000Y-11777429D02*
X16446428Y-11791714D01*
X16389286Y-11791714D01*
X16360714Y-11777429D01*
X16346428Y-11748857D01*
X16346428Y-11634571D01*
X16360714Y-11606000D01*
X16389286Y-11591714D01*
X16446428Y-11591714D01*
X16475000Y-11606000D01*
X16489286Y-11634571D01*
X16489286Y-11663143D01*
X16346428Y-11691714D01*
X16603571Y-11777429D02*
X16632143Y-11791714D01*
X16689286Y-11791714D01*
X16717857Y-11777429D01*
X16732143Y-11748857D01*
X16732143Y-11734571D01*
X16717857Y-11706000D01*
X16689286Y-11691714D01*
X16646428Y-11691714D01*
X16617857Y-11677429D01*
X16603571Y-11648857D01*
X16603571Y-11634571D01*
X16617857Y-11606000D01*
X16646428Y-11591714D01*
X16689286Y-11591714D01*
X16717857Y-11606000D01*
X16832143Y-11906000D02*
X16846428Y-11891714D01*
X16875000Y-11848857D01*
X16889286Y-11820286D01*
X16903571Y-11777429D01*
X16917857Y-11706000D01*
X16917857Y-11648857D01*
X16903571Y-11577429D01*
X16889286Y-11534571D01*
X16875000Y-11506000D01*
X16846428Y-11463143D01*
X16832143Y-11448857D01*
M02*
