G04 #@! TF.GenerationSoftware,KiCad,Pcbnew,(5.1.5-0-10_14)*
G04 #@! TF.CreationDate,2020-04-27T22:25:58+02:00*
G04 #@! TF.ProjectId,ESP12-Domo,45535031-322d-4446-9f6d-6f2e6b696361,rev?*
G04 #@! TF.SameCoordinates,Original*
G04 #@! TF.FileFunction,Soldermask,Bot*
G04 #@! TF.FilePolarity,Negative*
%FSLAX46Y46*%
G04 Gerber Fmt 4.6, Leading zero omitted, Abs format (unit mm)*
G04 Created by KiCad (PCBNEW (5.1.5-0-10_14)) date 2020-04-27 22:25:58*
%MOMM*%
%LPD*%
G04 APERTURE LIST*
%ADD10R,2.100000X2.100000*%
%ADD11O,2.100000X2.100000*%
G04 APERTURE END LIST*
D10*
X140700000Y-88800000D03*
D11*
X140700000Y-86260000D03*
X140700000Y-83720000D03*
X140700000Y-81180000D03*
X140700000Y-78640000D03*
X140700000Y-76100000D03*
X140700000Y-73560000D03*
X140700000Y-71020000D03*
X140700000Y-68480000D03*
X140700000Y-65940000D03*
D10*
X105700000Y-65300000D03*
D11*
X105700000Y-67840000D03*
X105700000Y-70380000D03*
X105700000Y-72920000D03*
X105700000Y-75460000D03*
X105700000Y-78000000D03*
X105700000Y-80540000D03*
X105700000Y-83080000D03*
X105700000Y-85620000D03*
D10*
X105700000Y-93200000D03*
D11*
X105700000Y-95740000D03*
X105700000Y-98280000D03*
D10*
X111300000Y-65300000D03*
D11*
X111300000Y-67840000D03*
X111300000Y-70380000D03*
X111300000Y-72920000D03*
X111300000Y-75460000D03*
X111300000Y-78000000D03*
X111300000Y-80540000D03*
X111300000Y-83080000D03*
X111300000Y-85620000D03*
X111300000Y-88160000D03*
X111300000Y-90700000D03*
X111300000Y-93240000D03*
X111300000Y-95780000D03*
X111300000Y-98320000D03*
X111300000Y-100860000D03*
D10*
X150600000Y-66000000D03*
D11*
X153140000Y-66000000D03*
X155680000Y-66000000D03*
X158220000Y-66000000D03*
X134300000Y-65290000D03*
X134300000Y-67830000D03*
X134300000Y-70370000D03*
X134300000Y-72910000D03*
X134300000Y-75450000D03*
X134300000Y-77990000D03*
X134300000Y-80530000D03*
X134300000Y-83070000D03*
X134300000Y-85610000D03*
X134300000Y-88150000D03*
X134300000Y-90690000D03*
X134300000Y-93230000D03*
X134300000Y-95770000D03*
X134300000Y-98310000D03*
D10*
X134300000Y-100850000D03*
X143000000Y-93983500D03*
D11*
X145540000Y-93983500D03*
X143000000Y-96523500D03*
X145540000Y-96523500D03*
X143000000Y-99063500D03*
X145540000Y-99063500D03*
X155040000Y-99063500D03*
X152500000Y-99063500D03*
X155040000Y-96523500D03*
X152500000Y-96523500D03*
X155040000Y-93983500D03*
D10*
X152500000Y-93983500D03*
M02*
