G04 #@! TF.GenerationSoftware,KiCad,Pcbnew,(5.1.5-0-10_14)*
G04 #@! TF.CreationDate,2020-04-27T22:25:58+02:00*
G04 #@! TF.ProjectId,ESP12-Domo,45535031-322d-4446-9f6d-6f2e6b696361,rev?*
G04 #@! TF.SameCoordinates,Original*
G04 #@! TF.FileFunction,Copper,L2,Bot*
G04 #@! TF.FilePolarity,Positive*
%FSLAX46Y46*%
G04 Gerber Fmt 4.6, Leading zero omitted, Abs format (unit mm)*
G04 Created by KiCad (PCBNEW (5.1.5-0-10_14)) date 2020-04-27 22:25:58*
%MOMM*%
%LPD*%
G04 APERTURE LIST*
%ADD10R,1.700000X1.700000*%
%ADD11O,1.700000X1.700000*%
%ADD12C,0.800000*%
%ADD13C,0.250000*%
%ADD14C,0.254000*%
G04 APERTURE END LIST*
D10*
X140700000Y-88800000D03*
D11*
X140700000Y-86260000D03*
X140700000Y-83720000D03*
X140700000Y-81180000D03*
X140700000Y-78640000D03*
X140700000Y-76100000D03*
X140700000Y-73560000D03*
X140700000Y-71020000D03*
X140700000Y-68480000D03*
X140700000Y-65940000D03*
D10*
X105700000Y-65300000D03*
D11*
X105700000Y-67840000D03*
X105700000Y-70380000D03*
X105700000Y-72920000D03*
X105700000Y-75460000D03*
X105700000Y-78000000D03*
X105700000Y-80540000D03*
X105700000Y-83080000D03*
X105700000Y-85620000D03*
D10*
X105700000Y-93200000D03*
D11*
X105700000Y-95740000D03*
X105700000Y-98280000D03*
D10*
X111300000Y-65300000D03*
D11*
X111300000Y-67840000D03*
X111300000Y-70380000D03*
X111300000Y-72920000D03*
X111300000Y-75460000D03*
X111300000Y-78000000D03*
X111300000Y-80540000D03*
X111300000Y-83080000D03*
X111300000Y-85620000D03*
X111300000Y-88160000D03*
X111300000Y-90700000D03*
X111300000Y-93240000D03*
X111300000Y-95780000D03*
X111300000Y-98320000D03*
X111300000Y-100860000D03*
D10*
X150600000Y-66000000D03*
D11*
X153140000Y-66000000D03*
X155680000Y-66000000D03*
X158220000Y-66000000D03*
X134300000Y-65290000D03*
X134300000Y-67830000D03*
X134300000Y-70370000D03*
X134300000Y-72910000D03*
X134300000Y-75450000D03*
X134300000Y-77990000D03*
X134300000Y-80530000D03*
X134300000Y-83070000D03*
X134300000Y-85610000D03*
X134300000Y-88150000D03*
X134300000Y-90690000D03*
X134300000Y-93230000D03*
X134300000Y-95770000D03*
X134300000Y-98310000D03*
D10*
X134300000Y-100850000D03*
X143000000Y-93983500D03*
D11*
X145540000Y-93983500D03*
X143000000Y-96523500D03*
X145540000Y-96523500D03*
X143000000Y-99063500D03*
X145540000Y-99063500D03*
X155040000Y-99063500D03*
X152500000Y-99063500D03*
X155040000Y-96523500D03*
X152500000Y-96523500D03*
X155040000Y-93983500D03*
D10*
X152500000Y-93983500D03*
D12*
X106600000Y-89500000D03*
X149100000Y-97000000D03*
D13*
X148800000Y-69800000D02*
X154420000Y-69800000D01*
X154420000Y-69800000D02*
X158220000Y-66000000D01*
X144940000Y-65940000D02*
X148800000Y-69800000D01*
X140700000Y-65940000D02*
X144940000Y-65940000D01*
D14*
G36*
X104398815Y-63998815D02*
G01*
X104319463Y-64095506D01*
X104260498Y-64205820D01*
X104224188Y-64325518D01*
X104211928Y-64450000D01*
X104211928Y-66150000D01*
X104224188Y-66274482D01*
X104260498Y-66394180D01*
X104319463Y-66504494D01*
X104398815Y-66601185D01*
X104495506Y-66680537D01*
X104605820Y-66739502D01*
X104678380Y-66761513D01*
X104546525Y-66893368D01*
X104384010Y-67136589D01*
X104272068Y-67406842D01*
X104215000Y-67693740D01*
X104215000Y-67986260D01*
X104272068Y-68273158D01*
X104384010Y-68543411D01*
X104546525Y-68786632D01*
X104753368Y-68993475D01*
X104927760Y-69110000D01*
X104753368Y-69226525D01*
X104546525Y-69433368D01*
X104384010Y-69676589D01*
X104272068Y-69946842D01*
X104215000Y-70233740D01*
X104215000Y-70526260D01*
X104272068Y-70813158D01*
X104384010Y-71083411D01*
X104546525Y-71326632D01*
X104753368Y-71533475D01*
X104927760Y-71650000D01*
X104753368Y-71766525D01*
X104546525Y-71973368D01*
X104384010Y-72216589D01*
X104272068Y-72486842D01*
X104215000Y-72773740D01*
X104215000Y-73066260D01*
X104272068Y-73353158D01*
X104384010Y-73623411D01*
X104546525Y-73866632D01*
X104753368Y-74073475D01*
X104927760Y-74190000D01*
X104753368Y-74306525D01*
X104546525Y-74513368D01*
X104384010Y-74756589D01*
X104272068Y-75026842D01*
X104215000Y-75313740D01*
X104215000Y-75606260D01*
X104272068Y-75893158D01*
X104384010Y-76163411D01*
X104546525Y-76406632D01*
X104753368Y-76613475D01*
X104927760Y-76730000D01*
X104753368Y-76846525D01*
X104546525Y-77053368D01*
X104384010Y-77296589D01*
X104272068Y-77566842D01*
X104215000Y-77853740D01*
X104215000Y-78146260D01*
X104272068Y-78433158D01*
X104384010Y-78703411D01*
X104546525Y-78946632D01*
X104753368Y-79153475D01*
X104927760Y-79270000D01*
X104753368Y-79386525D01*
X104546525Y-79593368D01*
X104384010Y-79836589D01*
X104272068Y-80106842D01*
X104215000Y-80393740D01*
X104215000Y-80686260D01*
X104272068Y-80973158D01*
X104384010Y-81243411D01*
X104546525Y-81486632D01*
X104753368Y-81693475D01*
X104927760Y-81810000D01*
X104753368Y-81926525D01*
X104546525Y-82133368D01*
X104384010Y-82376589D01*
X104272068Y-82646842D01*
X104215000Y-82933740D01*
X104215000Y-83226260D01*
X104272068Y-83513158D01*
X104384010Y-83783411D01*
X104546525Y-84026632D01*
X104753368Y-84233475D01*
X104927760Y-84350000D01*
X104753368Y-84466525D01*
X104546525Y-84673368D01*
X104384010Y-84916589D01*
X104272068Y-85186842D01*
X104215000Y-85473740D01*
X104215000Y-85766260D01*
X104272068Y-86053158D01*
X104384010Y-86323411D01*
X104546525Y-86566632D01*
X104753368Y-86773475D01*
X104996589Y-86935990D01*
X105266842Y-87047932D01*
X105553740Y-87105000D01*
X105846260Y-87105000D01*
X106133158Y-87047932D01*
X106403411Y-86935990D01*
X106646632Y-86773475D01*
X106853475Y-86566632D01*
X107015990Y-86323411D01*
X107127932Y-86053158D01*
X107185000Y-85766260D01*
X107185000Y-85473740D01*
X107127932Y-85186842D01*
X107015990Y-84916589D01*
X106853475Y-84673368D01*
X106646632Y-84466525D01*
X106472240Y-84350000D01*
X106646632Y-84233475D01*
X106853475Y-84026632D01*
X107015990Y-83783411D01*
X107127932Y-83513158D01*
X107185000Y-83226260D01*
X107185000Y-82933740D01*
X107127932Y-82646842D01*
X107015990Y-82376589D01*
X106853475Y-82133368D01*
X106646632Y-81926525D01*
X106472240Y-81810000D01*
X106646632Y-81693475D01*
X106853475Y-81486632D01*
X107015990Y-81243411D01*
X107127932Y-80973158D01*
X107185000Y-80686260D01*
X107185000Y-80393740D01*
X107127932Y-80106842D01*
X107015990Y-79836589D01*
X106853475Y-79593368D01*
X106646632Y-79386525D01*
X106472240Y-79270000D01*
X106646632Y-79153475D01*
X106853475Y-78946632D01*
X107015990Y-78703411D01*
X107127932Y-78433158D01*
X107185000Y-78146260D01*
X107185000Y-77853740D01*
X107127932Y-77566842D01*
X107015990Y-77296589D01*
X106853475Y-77053368D01*
X106646632Y-76846525D01*
X106472240Y-76730000D01*
X106646632Y-76613475D01*
X106853475Y-76406632D01*
X107015990Y-76163411D01*
X107127932Y-75893158D01*
X107185000Y-75606260D01*
X107185000Y-75313740D01*
X107127932Y-75026842D01*
X107015990Y-74756589D01*
X106853475Y-74513368D01*
X106646632Y-74306525D01*
X106472240Y-74190000D01*
X106646632Y-74073475D01*
X106853475Y-73866632D01*
X107015990Y-73623411D01*
X107127932Y-73353158D01*
X107185000Y-73066260D01*
X107185000Y-72773740D01*
X107127932Y-72486842D01*
X107015990Y-72216589D01*
X106853475Y-71973368D01*
X106646632Y-71766525D01*
X106472240Y-71650000D01*
X106646632Y-71533475D01*
X106853475Y-71326632D01*
X107015990Y-71083411D01*
X107127932Y-70813158D01*
X107185000Y-70526260D01*
X107185000Y-70233740D01*
X107127932Y-69946842D01*
X107015990Y-69676589D01*
X106853475Y-69433368D01*
X106646632Y-69226525D01*
X106472240Y-69110000D01*
X106646632Y-68993475D01*
X106853475Y-68786632D01*
X107015990Y-68543411D01*
X107127932Y-68273158D01*
X107185000Y-67986260D01*
X107185000Y-67693740D01*
X107127932Y-67406842D01*
X107015990Y-67136589D01*
X106853475Y-66893368D01*
X106721620Y-66761513D01*
X106794180Y-66739502D01*
X106904494Y-66680537D01*
X107001185Y-66601185D01*
X107080537Y-66504494D01*
X107139502Y-66394180D01*
X107175812Y-66274482D01*
X107188072Y-66150000D01*
X107188072Y-64450000D01*
X107175812Y-64325518D01*
X107139502Y-64205820D01*
X107080537Y-64095506D01*
X107001185Y-63998815D01*
X106923426Y-63935000D01*
X110076574Y-63935000D01*
X109998815Y-63998815D01*
X109919463Y-64095506D01*
X109860498Y-64205820D01*
X109824188Y-64325518D01*
X109811928Y-64450000D01*
X109811928Y-66150000D01*
X109824188Y-66274482D01*
X109860498Y-66394180D01*
X109919463Y-66504494D01*
X109998815Y-66601185D01*
X110095506Y-66680537D01*
X110205820Y-66739502D01*
X110278380Y-66761513D01*
X110146525Y-66893368D01*
X109984010Y-67136589D01*
X109872068Y-67406842D01*
X109815000Y-67693740D01*
X109815000Y-67986260D01*
X109872068Y-68273158D01*
X109984010Y-68543411D01*
X110146525Y-68786632D01*
X110353368Y-68993475D01*
X110527760Y-69110000D01*
X110353368Y-69226525D01*
X110146525Y-69433368D01*
X109984010Y-69676589D01*
X109872068Y-69946842D01*
X109815000Y-70233740D01*
X109815000Y-70526260D01*
X109872068Y-70813158D01*
X109984010Y-71083411D01*
X110146525Y-71326632D01*
X110353368Y-71533475D01*
X110527760Y-71650000D01*
X110353368Y-71766525D01*
X110146525Y-71973368D01*
X109984010Y-72216589D01*
X109872068Y-72486842D01*
X109815000Y-72773740D01*
X109815000Y-73066260D01*
X109872068Y-73353158D01*
X109984010Y-73623411D01*
X110146525Y-73866632D01*
X110353368Y-74073475D01*
X110527760Y-74190000D01*
X110353368Y-74306525D01*
X110146525Y-74513368D01*
X109984010Y-74756589D01*
X109872068Y-75026842D01*
X109815000Y-75313740D01*
X109815000Y-75606260D01*
X109872068Y-75893158D01*
X109984010Y-76163411D01*
X110146525Y-76406632D01*
X110353368Y-76613475D01*
X110527760Y-76730000D01*
X110353368Y-76846525D01*
X110146525Y-77053368D01*
X109984010Y-77296589D01*
X109872068Y-77566842D01*
X109815000Y-77853740D01*
X109815000Y-78146260D01*
X109872068Y-78433158D01*
X109984010Y-78703411D01*
X110146525Y-78946632D01*
X110353368Y-79153475D01*
X110527760Y-79270000D01*
X110353368Y-79386525D01*
X110146525Y-79593368D01*
X109984010Y-79836589D01*
X109872068Y-80106842D01*
X109815000Y-80393740D01*
X109815000Y-80686260D01*
X109872068Y-80973158D01*
X109984010Y-81243411D01*
X110146525Y-81486632D01*
X110353368Y-81693475D01*
X110527760Y-81810000D01*
X110353368Y-81926525D01*
X110146525Y-82133368D01*
X109984010Y-82376589D01*
X109872068Y-82646842D01*
X109815000Y-82933740D01*
X109815000Y-83226260D01*
X109872068Y-83513158D01*
X109984010Y-83783411D01*
X110146525Y-84026632D01*
X110353368Y-84233475D01*
X110527760Y-84350000D01*
X110353368Y-84466525D01*
X110146525Y-84673368D01*
X109984010Y-84916589D01*
X109872068Y-85186842D01*
X109815000Y-85473740D01*
X109815000Y-85766260D01*
X109872068Y-86053158D01*
X109984010Y-86323411D01*
X110146525Y-86566632D01*
X110353368Y-86773475D01*
X110527760Y-86890000D01*
X110353368Y-87006525D01*
X110146525Y-87213368D01*
X109984010Y-87456589D01*
X109872068Y-87726842D01*
X109815000Y-88013740D01*
X109815000Y-88306260D01*
X109872068Y-88593158D01*
X109984010Y-88863411D01*
X110146525Y-89106632D01*
X110353368Y-89313475D01*
X110535534Y-89435195D01*
X110418645Y-89504822D01*
X110202412Y-89699731D01*
X110028359Y-89933080D01*
X109903175Y-90195901D01*
X109858524Y-90343110D01*
X109979845Y-90573000D01*
X111173000Y-90573000D01*
X111173000Y-90553000D01*
X111427000Y-90553000D01*
X111427000Y-90573000D01*
X112620155Y-90573000D01*
X112741476Y-90343110D01*
X112696825Y-90195901D01*
X112571641Y-89933080D01*
X112397588Y-89699731D01*
X112181355Y-89504822D01*
X112064466Y-89435195D01*
X112246632Y-89313475D01*
X112453475Y-89106632D01*
X112615990Y-88863411D01*
X112727932Y-88593158D01*
X112785000Y-88306260D01*
X112785000Y-88013740D01*
X112727932Y-87726842D01*
X112615990Y-87456589D01*
X112453475Y-87213368D01*
X112246632Y-87006525D01*
X112072240Y-86890000D01*
X112246632Y-86773475D01*
X112453475Y-86566632D01*
X112615990Y-86323411D01*
X112727932Y-86053158D01*
X112785000Y-85766260D01*
X112785000Y-85473740D01*
X112727932Y-85186842D01*
X112615990Y-84916589D01*
X112453475Y-84673368D01*
X112246632Y-84466525D01*
X112072240Y-84350000D01*
X112246632Y-84233475D01*
X112453475Y-84026632D01*
X112615990Y-83783411D01*
X112727932Y-83513158D01*
X112785000Y-83226260D01*
X112785000Y-82933740D01*
X112727932Y-82646842D01*
X112615990Y-82376589D01*
X112453475Y-82133368D01*
X112246632Y-81926525D01*
X112072240Y-81810000D01*
X112246632Y-81693475D01*
X112453475Y-81486632D01*
X112615990Y-81243411D01*
X112727932Y-80973158D01*
X112785000Y-80686260D01*
X112785000Y-80393740D01*
X112727932Y-80106842D01*
X112615990Y-79836589D01*
X112453475Y-79593368D01*
X112246632Y-79386525D01*
X112072240Y-79270000D01*
X112246632Y-79153475D01*
X112453475Y-78946632D01*
X112615990Y-78703411D01*
X112727932Y-78433158D01*
X112785000Y-78146260D01*
X112785000Y-77853740D01*
X112727932Y-77566842D01*
X112615990Y-77296589D01*
X112453475Y-77053368D01*
X112246632Y-76846525D01*
X112072240Y-76730000D01*
X112246632Y-76613475D01*
X112453475Y-76406632D01*
X112615990Y-76163411D01*
X112727932Y-75893158D01*
X112785000Y-75606260D01*
X112785000Y-75313740D01*
X112727932Y-75026842D01*
X112615990Y-74756589D01*
X112453475Y-74513368D01*
X112246632Y-74306525D01*
X112072240Y-74190000D01*
X112246632Y-74073475D01*
X112453475Y-73866632D01*
X112615990Y-73623411D01*
X112727932Y-73353158D01*
X112785000Y-73066260D01*
X112785000Y-72773740D01*
X112727932Y-72486842D01*
X112615990Y-72216589D01*
X112453475Y-71973368D01*
X112246632Y-71766525D01*
X112072240Y-71650000D01*
X112246632Y-71533475D01*
X112453475Y-71326632D01*
X112615990Y-71083411D01*
X112727932Y-70813158D01*
X112785000Y-70526260D01*
X112785000Y-70233740D01*
X112727932Y-69946842D01*
X112615990Y-69676589D01*
X112453475Y-69433368D01*
X112246632Y-69226525D01*
X112072240Y-69110000D01*
X112246632Y-68993475D01*
X112453475Y-68786632D01*
X112615990Y-68543411D01*
X112727932Y-68273158D01*
X112785000Y-67986260D01*
X112785000Y-67693740D01*
X112727932Y-67406842D01*
X112615990Y-67136589D01*
X112453475Y-66893368D01*
X112321620Y-66761513D01*
X112394180Y-66739502D01*
X112504494Y-66680537D01*
X112601185Y-66601185D01*
X112680537Y-66504494D01*
X112739502Y-66394180D01*
X112775812Y-66274482D01*
X112788072Y-66150000D01*
X112788072Y-64450000D01*
X112775812Y-64325518D01*
X112739502Y-64205820D01*
X112680537Y-64095506D01*
X112601185Y-63998815D01*
X112523426Y-63935000D01*
X133690768Y-63935000D01*
X133596589Y-63974010D01*
X133353368Y-64136525D01*
X133146525Y-64343368D01*
X132984010Y-64586589D01*
X132872068Y-64856842D01*
X132815000Y-65143740D01*
X132815000Y-65436260D01*
X132872068Y-65723158D01*
X132984010Y-65993411D01*
X133146525Y-66236632D01*
X133353368Y-66443475D01*
X133527760Y-66560000D01*
X133353368Y-66676525D01*
X133146525Y-66883368D01*
X132984010Y-67126589D01*
X132872068Y-67396842D01*
X132815000Y-67683740D01*
X132815000Y-67976260D01*
X132872068Y-68263158D01*
X132984010Y-68533411D01*
X133146525Y-68776632D01*
X133353368Y-68983475D01*
X133527760Y-69100000D01*
X133353368Y-69216525D01*
X133146525Y-69423368D01*
X132984010Y-69666589D01*
X132872068Y-69936842D01*
X132815000Y-70223740D01*
X132815000Y-70516260D01*
X132872068Y-70803158D01*
X132984010Y-71073411D01*
X133146525Y-71316632D01*
X133353368Y-71523475D01*
X133527760Y-71640000D01*
X133353368Y-71756525D01*
X133146525Y-71963368D01*
X132984010Y-72206589D01*
X132872068Y-72476842D01*
X132815000Y-72763740D01*
X132815000Y-73056260D01*
X132872068Y-73343158D01*
X132984010Y-73613411D01*
X133146525Y-73856632D01*
X133353368Y-74063475D01*
X133527760Y-74180000D01*
X133353368Y-74296525D01*
X133146525Y-74503368D01*
X132984010Y-74746589D01*
X132872068Y-75016842D01*
X132815000Y-75303740D01*
X132815000Y-75596260D01*
X132872068Y-75883158D01*
X132984010Y-76153411D01*
X133146525Y-76396632D01*
X133353368Y-76603475D01*
X133535534Y-76725195D01*
X133418645Y-76794822D01*
X133202412Y-76989731D01*
X133028359Y-77223080D01*
X132903175Y-77485901D01*
X132858524Y-77633110D01*
X132979845Y-77863000D01*
X134173000Y-77863000D01*
X134173000Y-77843000D01*
X134427000Y-77843000D01*
X134427000Y-77863000D01*
X135620155Y-77863000D01*
X135741476Y-77633110D01*
X135696825Y-77485901D01*
X135571641Y-77223080D01*
X135397588Y-76989731D01*
X135181355Y-76794822D01*
X135064466Y-76725195D01*
X135246632Y-76603475D01*
X135453475Y-76396632D01*
X135615990Y-76153411D01*
X135727932Y-75883158D01*
X135785000Y-75596260D01*
X135785000Y-75303740D01*
X135727932Y-75016842D01*
X135615990Y-74746589D01*
X135453475Y-74503368D01*
X135246632Y-74296525D01*
X135072240Y-74180000D01*
X135246632Y-74063475D01*
X135453475Y-73856632D01*
X135615990Y-73613411D01*
X135727932Y-73343158D01*
X135785000Y-73056260D01*
X135785000Y-72763740D01*
X135727932Y-72476842D01*
X135615990Y-72206589D01*
X135453475Y-71963368D01*
X135246632Y-71756525D01*
X135072240Y-71640000D01*
X135246632Y-71523475D01*
X135453475Y-71316632D01*
X135615990Y-71073411D01*
X135727932Y-70803158D01*
X135785000Y-70516260D01*
X135785000Y-70223740D01*
X135727932Y-69936842D01*
X135615990Y-69666589D01*
X135453475Y-69423368D01*
X135246632Y-69216525D01*
X135072240Y-69100000D01*
X135246632Y-68983475D01*
X135453475Y-68776632D01*
X135615990Y-68533411D01*
X135727932Y-68263158D01*
X135785000Y-67976260D01*
X135785000Y-67683740D01*
X135727932Y-67396842D01*
X135615990Y-67126589D01*
X135453475Y-66883368D01*
X135246632Y-66676525D01*
X135072240Y-66560000D01*
X135246632Y-66443475D01*
X135453475Y-66236632D01*
X135615990Y-65993411D01*
X135727932Y-65723158D01*
X135785000Y-65436260D01*
X135785000Y-65143740D01*
X135727932Y-64856842D01*
X135615990Y-64586589D01*
X135453475Y-64343368D01*
X135246632Y-64136525D01*
X135003411Y-63974010D01*
X134909232Y-63935000D01*
X159765000Y-63935000D01*
X159765001Y-102165000D01*
X135584351Y-102165000D01*
X135601185Y-102151185D01*
X135680537Y-102054494D01*
X135739502Y-101944180D01*
X135775812Y-101824482D01*
X135788072Y-101700000D01*
X135785000Y-101135750D01*
X135626250Y-100977000D01*
X134427000Y-100977000D01*
X134427000Y-100997000D01*
X134173000Y-100997000D01*
X134173000Y-100977000D01*
X132973750Y-100977000D01*
X132815000Y-101135750D01*
X132811928Y-101700000D01*
X132824188Y-101824482D01*
X132860498Y-101944180D01*
X132919463Y-102054494D01*
X132998815Y-102151185D01*
X133015649Y-102165000D01*
X112019859Y-102165000D01*
X112246632Y-102013475D01*
X112453475Y-101806632D01*
X112615990Y-101563411D01*
X112727932Y-101293158D01*
X112785000Y-101006260D01*
X112785000Y-100713740D01*
X112727932Y-100426842D01*
X112615990Y-100156589D01*
X112511361Y-100000000D01*
X132811928Y-100000000D01*
X132815000Y-100564250D01*
X132973750Y-100723000D01*
X134173000Y-100723000D01*
X134173000Y-100703000D01*
X134427000Y-100703000D01*
X134427000Y-100723000D01*
X135626250Y-100723000D01*
X135785000Y-100564250D01*
X135788072Y-100000000D01*
X135775812Y-99875518D01*
X135739502Y-99755820D01*
X135680537Y-99645506D01*
X135601185Y-99548815D01*
X135504494Y-99469463D01*
X135412687Y-99420390D01*
X141558524Y-99420390D01*
X141603175Y-99567599D01*
X141728359Y-99830420D01*
X141902412Y-100063769D01*
X142118645Y-100258678D01*
X142368748Y-100407657D01*
X142643109Y-100504981D01*
X142873000Y-100384314D01*
X142873000Y-99190500D01*
X143127000Y-99190500D01*
X143127000Y-100384314D01*
X143356891Y-100504981D01*
X143631252Y-100407657D01*
X143881355Y-100258678D01*
X144097588Y-100063769D01*
X144270000Y-99832620D01*
X144442412Y-100063769D01*
X144658645Y-100258678D01*
X144908748Y-100407657D01*
X145183109Y-100504981D01*
X145413000Y-100384314D01*
X145413000Y-99190500D01*
X145667000Y-99190500D01*
X145667000Y-100384314D01*
X145896891Y-100504981D01*
X146171252Y-100407657D01*
X146421355Y-100258678D01*
X146637588Y-100063769D01*
X146811641Y-99830420D01*
X146936825Y-99567599D01*
X146981476Y-99420390D01*
X146860155Y-99190500D01*
X145667000Y-99190500D01*
X145413000Y-99190500D01*
X143127000Y-99190500D01*
X142873000Y-99190500D01*
X141679845Y-99190500D01*
X141558524Y-99420390D01*
X135412687Y-99420390D01*
X135394180Y-99410498D01*
X135321620Y-99388487D01*
X135453475Y-99256632D01*
X135615990Y-99013411D01*
X135727932Y-98743158D01*
X135785000Y-98456260D01*
X135785000Y-98163740D01*
X135727932Y-97876842D01*
X135615990Y-97606589D01*
X135453475Y-97363368D01*
X135246632Y-97156525D01*
X135072240Y-97040000D01*
X135246632Y-96923475D01*
X135289717Y-96880390D01*
X141558524Y-96880390D01*
X141603175Y-97027599D01*
X141728359Y-97290420D01*
X141902412Y-97523769D01*
X142118645Y-97718678D01*
X142244255Y-97793500D01*
X142118645Y-97868322D01*
X141902412Y-98063231D01*
X141728359Y-98296580D01*
X141603175Y-98559401D01*
X141558524Y-98706610D01*
X141679845Y-98936500D01*
X142873000Y-98936500D01*
X142873000Y-96650500D01*
X143127000Y-96650500D01*
X143127000Y-98936500D01*
X145413000Y-98936500D01*
X145413000Y-96650500D01*
X145667000Y-96650500D01*
X145667000Y-98936500D01*
X146860155Y-98936500D01*
X146981476Y-98706610D01*
X146936825Y-98559401D01*
X146811641Y-98296580D01*
X146637588Y-98063231D01*
X146421355Y-97868322D01*
X146295745Y-97793500D01*
X146421355Y-97718678D01*
X146637588Y-97523769D01*
X146811641Y-97290420D01*
X146936825Y-97027599D01*
X146981476Y-96880390D01*
X146860155Y-96650500D01*
X145667000Y-96650500D01*
X145413000Y-96650500D01*
X143127000Y-96650500D01*
X142873000Y-96650500D01*
X141679845Y-96650500D01*
X141558524Y-96880390D01*
X135289717Y-96880390D01*
X135453475Y-96716632D01*
X135615990Y-96473411D01*
X135727932Y-96203158D01*
X135785000Y-95916260D01*
X135785000Y-95623740D01*
X135727932Y-95336842D01*
X135615990Y-95066589D01*
X135460245Y-94833500D01*
X141511928Y-94833500D01*
X141524188Y-94957982D01*
X141560498Y-95077680D01*
X141619463Y-95187994D01*
X141698815Y-95284685D01*
X141795506Y-95364037D01*
X141905820Y-95423002D01*
X141986466Y-95447466D01*
X141902412Y-95523231D01*
X141728359Y-95756580D01*
X141603175Y-96019401D01*
X141558524Y-96166610D01*
X141679845Y-96396500D01*
X142873000Y-96396500D01*
X142873000Y-94110500D01*
X143127000Y-94110500D01*
X143127000Y-96396500D01*
X145413000Y-96396500D01*
X145413000Y-94110500D01*
X145667000Y-94110500D01*
X145667000Y-96396500D01*
X146860155Y-96396500D01*
X146981476Y-96166610D01*
X146936825Y-96019401D01*
X146811641Y-95756580D01*
X146637588Y-95523231D01*
X146421355Y-95328322D01*
X146295745Y-95253500D01*
X146421355Y-95178678D01*
X146637588Y-94983769D01*
X146811641Y-94750420D01*
X146936825Y-94487599D01*
X146981476Y-94340390D01*
X146860155Y-94110500D01*
X145667000Y-94110500D01*
X145413000Y-94110500D01*
X143127000Y-94110500D01*
X142873000Y-94110500D01*
X141673750Y-94110500D01*
X141515000Y-94269250D01*
X141511928Y-94833500D01*
X135460245Y-94833500D01*
X135453475Y-94823368D01*
X135246632Y-94616525D01*
X135072240Y-94500000D01*
X135246632Y-94383475D01*
X135453475Y-94176632D01*
X135615990Y-93933411D01*
X135727932Y-93663158D01*
X135785000Y-93376260D01*
X135785000Y-93133500D01*
X141511928Y-93133500D01*
X141515000Y-93697750D01*
X141673750Y-93856500D01*
X142873000Y-93856500D01*
X142873000Y-92657250D01*
X143127000Y-92657250D01*
X143127000Y-93856500D01*
X145413000Y-93856500D01*
X145413000Y-92662686D01*
X145667000Y-92662686D01*
X145667000Y-93856500D01*
X146860155Y-93856500D01*
X146981476Y-93626610D01*
X146936825Y-93479401D01*
X146811641Y-93216580D01*
X146749673Y-93133500D01*
X151011928Y-93133500D01*
X151011928Y-94833500D01*
X151024188Y-94957982D01*
X151060498Y-95077680D01*
X151119463Y-95187994D01*
X151198815Y-95284685D01*
X151295506Y-95364037D01*
X151405820Y-95423002D01*
X151478380Y-95445013D01*
X151346525Y-95576868D01*
X151184010Y-95820089D01*
X151072068Y-96090342D01*
X151015000Y-96377240D01*
X151015000Y-96669760D01*
X151072068Y-96956658D01*
X151184010Y-97226911D01*
X151346525Y-97470132D01*
X151553368Y-97676975D01*
X151727760Y-97793500D01*
X151553368Y-97910025D01*
X151346525Y-98116868D01*
X151184010Y-98360089D01*
X151072068Y-98630342D01*
X151015000Y-98917240D01*
X151015000Y-99209760D01*
X151072068Y-99496658D01*
X151184010Y-99766911D01*
X151346525Y-100010132D01*
X151553368Y-100216975D01*
X151796589Y-100379490D01*
X152066842Y-100491432D01*
X152353740Y-100548500D01*
X152646260Y-100548500D01*
X152933158Y-100491432D01*
X153203411Y-100379490D01*
X153446632Y-100216975D01*
X153653475Y-100010132D01*
X153770000Y-99835740D01*
X153886525Y-100010132D01*
X154093368Y-100216975D01*
X154336589Y-100379490D01*
X154606842Y-100491432D01*
X154893740Y-100548500D01*
X155186260Y-100548500D01*
X155473158Y-100491432D01*
X155743411Y-100379490D01*
X155986632Y-100216975D01*
X156193475Y-100010132D01*
X156355990Y-99766911D01*
X156467932Y-99496658D01*
X156525000Y-99209760D01*
X156525000Y-98917240D01*
X156467932Y-98630342D01*
X156355990Y-98360089D01*
X156193475Y-98116868D01*
X155986632Y-97910025D01*
X155812240Y-97793500D01*
X155986632Y-97676975D01*
X156193475Y-97470132D01*
X156355990Y-97226911D01*
X156467932Y-96956658D01*
X156525000Y-96669760D01*
X156525000Y-96377240D01*
X156467932Y-96090342D01*
X156355990Y-95820089D01*
X156193475Y-95576868D01*
X155986632Y-95370025D01*
X155812240Y-95253500D01*
X155986632Y-95136975D01*
X156193475Y-94930132D01*
X156355990Y-94686911D01*
X156467932Y-94416658D01*
X156525000Y-94129760D01*
X156525000Y-93837240D01*
X156467932Y-93550342D01*
X156355990Y-93280089D01*
X156193475Y-93036868D01*
X155986632Y-92830025D01*
X155743411Y-92667510D01*
X155473158Y-92555568D01*
X155186260Y-92498500D01*
X154893740Y-92498500D01*
X154606842Y-92555568D01*
X154336589Y-92667510D01*
X154093368Y-92830025D01*
X153961513Y-92961880D01*
X153939502Y-92889320D01*
X153880537Y-92779006D01*
X153801185Y-92682315D01*
X153704494Y-92602963D01*
X153594180Y-92543998D01*
X153474482Y-92507688D01*
X153350000Y-92495428D01*
X151650000Y-92495428D01*
X151525518Y-92507688D01*
X151405820Y-92543998D01*
X151295506Y-92602963D01*
X151198815Y-92682315D01*
X151119463Y-92779006D01*
X151060498Y-92889320D01*
X151024188Y-93009018D01*
X151011928Y-93133500D01*
X146749673Y-93133500D01*
X146637588Y-92983231D01*
X146421355Y-92788322D01*
X146171252Y-92639343D01*
X145896891Y-92542019D01*
X145667000Y-92662686D01*
X145413000Y-92662686D01*
X145183109Y-92542019D01*
X144908748Y-92639343D01*
X144658645Y-92788322D01*
X144462498Y-92965126D01*
X144439502Y-92889320D01*
X144380537Y-92779006D01*
X144301185Y-92682315D01*
X144204494Y-92602963D01*
X144094180Y-92543998D01*
X143974482Y-92507688D01*
X143850000Y-92495428D01*
X143285750Y-92498500D01*
X143127000Y-92657250D01*
X142873000Y-92657250D01*
X142714250Y-92498500D01*
X142150000Y-92495428D01*
X142025518Y-92507688D01*
X141905820Y-92543998D01*
X141795506Y-92602963D01*
X141698815Y-92682315D01*
X141619463Y-92779006D01*
X141560498Y-92889320D01*
X141524188Y-93009018D01*
X141511928Y-93133500D01*
X135785000Y-93133500D01*
X135785000Y-93083740D01*
X135727932Y-92796842D01*
X135615990Y-92526589D01*
X135453475Y-92283368D01*
X135246632Y-92076525D01*
X135072240Y-91960000D01*
X135246632Y-91843475D01*
X135453475Y-91636632D01*
X135615990Y-91393411D01*
X135727932Y-91123158D01*
X135785000Y-90836260D01*
X135785000Y-90543740D01*
X135727932Y-90256842D01*
X135615990Y-89986589D01*
X135453475Y-89743368D01*
X135246632Y-89536525D01*
X135072240Y-89420000D01*
X135246632Y-89303475D01*
X135453475Y-89096632D01*
X135615990Y-88853411D01*
X135727932Y-88583158D01*
X135785000Y-88296260D01*
X135785000Y-88003740D01*
X135774311Y-87950000D01*
X139211928Y-87950000D01*
X139211928Y-89650000D01*
X139224188Y-89774482D01*
X139260498Y-89894180D01*
X139319463Y-90004494D01*
X139398815Y-90101185D01*
X139495506Y-90180537D01*
X139605820Y-90239502D01*
X139725518Y-90275812D01*
X139850000Y-90288072D01*
X141550000Y-90288072D01*
X141674482Y-90275812D01*
X141794180Y-90239502D01*
X141904494Y-90180537D01*
X142001185Y-90101185D01*
X142080537Y-90004494D01*
X142139502Y-89894180D01*
X142175812Y-89774482D01*
X142188072Y-89650000D01*
X142188072Y-87950000D01*
X142175812Y-87825518D01*
X142139502Y-87705820D01*
X142080537Y-87595506D01*
X142001185Y-87498815D01*
X141904494Y-87419463D01*
X141794180Y-87360498D01*
X141721620Y-87338487D01*
X141853475Y-87206632D01*
X142015990Y-86963411D01*
X142127932Y-86693158D01*
X142185000Y-86406260D01*
X142185000Y-86113740D01*
X142127932Y-85826842D01*
X142015990Y-85556589D01*
X141853475Y-85313368D01*
X141646632Y-85106525D01*
X141472240Y-84990000D01*
X141646632Y-84873475D01*
X141853475Y-84666632D01*
X142015990Y-84423411D01*
X142127932Y-84153158D01*
X142185000Y-83866260D01*
X142185000Y-83573740D01*
X142127932Y-83286842D01*
X142015990Y-83016589D01*
X141853475Y-82773368D01*
X141646632Y-82566525D01*
X141472240Y-82450000D01*
X141646632Y-82333475D01*
X141853475Y-82126632D01*
X142015990Y-81883411D01*
X142127932Y-81613158D01*
X142185000Y-81326260D01*
X142185000Y-81033740D01*
X142127932Y-80746842D01*
X142015990Y-80476589D01*
X141853475Y-80233368D01*
X141646632Y-80026525D01*
X141472240Y-79910000D01*
X141646632Y-79793475D01*
X141853475Y-79586632D01*
X142015990Y-79343411D01*
X142127932Y-79073158D01*
X142185000Y-78786260D01*
X142185000Y-78493740D01*
X142127932Y-78206842D01*
X142015990Y-77936589D01*
X141853475Y-77693368D01*
X141646632Y-77486525D01*
X141472240Y-77370000D01*
X141646632Y-77253475D01*
X141853475Y-77046632D01*
X142015990Y-76803411D01*
X142127932Y-76533158D01*
X142185000Y-76246260D01*
X142185000Y-75953740D01*
X142127932Y-75666842D01*
X142015990Y-75396589D01*
X141853475Y-75153368D01*
X141646632Y-74946525D01*
X141472240Y-74830000D01*
X141646632Y-74713475D01*
X141853475Y-74506632D01*
X142015990Y-74263411D01*
X142127932Y-73993158D01*
X142185000Y-73706260D01*
X142185000Y-73413740D01*
X142127932Y-73126842D01*
X142015990Y-72856589D01*
X141853475Y-72613368D01*
X141646632Y-72406525D01*
X141472240Y-72290000D01*
X141646632Y-72173475D01*
X141853475Y-71966632D01*
X142015990Y-71723411D01*
X142127932Y-71453158D01*
X142185000Y-71166260D01*
X142185000Y-70873740D01*
X142127932Y-70586842D01*
X142015990Y-70316589D01*
X141853475Y-70073368D01*
X141646632Y-69866525D01*
X141472240Y-69750000D01*
X141646632Y-69633475D01*
X141853475Y-69426632D01*
X142015990Y-69183411D01*
X142127932Y-68913158D01*
X142185000Y-68626260D01*
X142185000Y-68333740D01*
X142127932Y-68046842D01*
X142015990Y-67776589D01*
X141853475Y-67533368D01*
X141646632Y-67326525D01*
X141472240Y-67210000D01*
X141646632Y-67093475D01*
X141853475Y-66886632D01*
X141978178Y-66700000D01*
X144625199Y-66700000D01*
X148236201Y-70311003D01*
X148259999Y-70340001D01*
X148375724Y-70434974D01*
X148507753Y-70505546D01*
X148651014Y-70549003D01*
X148762667Y-70560000D01*
X148762676Y-70560000D01*
X148799999Y-70563676D01*
X148837322Y-70560000D01*
X154382678Y-70560000D01*
X154420000Y-70563676D01*
X154457322Y-70560000D01*
X154457333Y-70560000D01*
X154568986Y-70549003D01*
X154712247Y-70505546D01*
X154844276Y-70434974D01*
X154960001Y-70340001D01*
X154983804Y-70310997D01*
X157853592Y-67441210D01*
X158073740Y-67485000D01*
X158366260Y-67485000D01*
X158653158Y-67427932D01*
X158923411Y-67315990D01*
X159166632Y-67153475D01*
X159373475Y-66946632D01*
X159535990Y-66703411D01*
X159647932Y-66433158D01*
X159705000Y-66146260D01*
X159705000Y-65853740D01*
X159647932Y-65566842D01*
X159535990Y-65296589D01*
X159373475Y-65053368D01*
X159166632Y-64846525D01*
X158923411Y-64684010D01*
X158653158Y-64572068D01*
X158366260Y-64515000D01*
X158073740Y-64515000D01*
X157786842Y-64572068D01*
X157516589Y-64684010D01*
X157273368Y-64846525D01*
X157066525Y-65053368D01*
X156950000Y-65227760D01*
X156833475Y-65053368D01*
X156626632Y-64846525D01*
X156383411Y-64684010D01*
X156113158Y-64572068D01*
X155826260Y-64515000D01*
X155533740Y-64515000D01*
X155246842Y-64572068D01*
X154976589Y-64684010D01*
X154733368Y-64846525D01*
X154526525Y-65053368D01*
X154410000Y-65227760D01*
X154293475Y-65053368D01*
X154086632Y-64846525D01*
X153843411Y-64684010D01*
X153573158Y-64572068D01*
X153286260Y-64515000D01*
X152993740Y-64515000D01*
X152706842Y-64572068D01*
X152436589Y-64684010D01*
X152193368Y-64846525D01*
X152061513Y-64978380D01*
X152039502Y-64905820D01*
X151980537Y-64795506D01*
X151901185Y-64698815D01*
X151804494Y-64619463D01*
X151694180Y-64560498D01*
X151574482Y-64524188D01*
X151450000Y-64511928D01*
X150885750Y-64515000D01*
X150727000Y-64673750D01*
X150727000Y-65873000D01*
X150747000Y-65873000D01*
X150747000Y-66127000D01*
X150727000Y-66127000D01*
X150727000Y-67326250D01*
X150885750Y-67485000D01*
X151450000Y-67488072D01*
X151574482Y-67475812D01*
X151694180Y-67439502D01*
X151804494Y-67380537D01*
X151901185Y-67301185D01*
X151980537Y-67204494D01*
X152039502Y-67094180D01*
X152061513Y-67021620D01*
X152193368Y-67153475D01*
X152436589Y-67315990D01*
X152706842Y-67427932D01*
X152993740Y-67485000D01*
X153286260Y-67485000D01*
X153573158Y-67427932D01*
X153843411Y-67315990D01*
X154086632Y-67153475D01*
X154293475Y-66946632D01*
X154410000Y-66772240D01*
X154526525Y-66946632D01*
X154733368Y-67153475D01*
X154976589Y-67315990D01*
X155246842Y-67427932D01*
X155533740Y-67485000D01*
X155660199Y-67485000D01*
X154105199Y-69040000D01*
X149114802Y-69040000D01*
X146924802Y-66850000D01*
X149111928Y-66850000D01*
X149124188Y-66974482D01*
X149160498Y-67094180D01*
X149219463Y-67204494D01*
X149298815Y-67301185D01*
X149395506Y-67380537D01*
X149505820Y-67439502D01*
X149625518Y-67475812D01*
X149750000Y-67488072D01*
X150314250Y-67485000D01*
X150473000Y-67326250D01*
X150473000Y-66127000D01*
X149273750Y-66127000D01*
X149115000Y-66285750D01*
X149111928Y-66850000D01*
X146924802Y-66850000D01*
X145503804Y-65429003D01*
X145480001Y-65399999D01*
X145364276Y-65305026D01*
X145232247Y-65234454D01*
X145088986Y-65190997D01*
X144977333Y-65180000D01*
X144977322Y-65180000D01*
X144940000Y-65176324D01*
X144902678Y-65180000D01*
X141978178Y-65180000D01*
X141958133Y-65150000D01*
X149111928Y-65150000D01*
X149115000Y-65714250D01*
X149273750Y-65873000D01*
X150473000Y-65873000D01*
X150473000Y-64673750D01*
X150314250Y-64515000D01*
X149750000Y-64511928D01*
X149625518Y-64524188D01*
X149505820Y-64560498D01*
X149395506Y-64619463D01*
X149298815Y-64698815D01*
X149219463Y-64795506D01*
X149160498Y-64905820D01*
X149124188Y-65025518D01*
X149111928Y-65150000D01*
X141958133Y-65150000D01*
X141853475Y-64993368D01*
X141646632Y-64786525D01*
X141403411Y-64624010D01*
X141133158Y-64512068D01*
X140846260Y-64455000D01*
X140553740Y-64455000D01*
X140266842Y-64512068D01*
X139996589Y-64624010D01*
X139753368Y-64786525D01*
X139546525Y-64993368D01*
X139384010Y-65236589D01*
X139272068Y-65506842D01*
X139215000Y-65793740D01*
X139215000Y-66086260D01*
X139272068Y-66373158D01*
X139384010Y-66643411D01*
X139546525Y-66886632D01*
X139753368Y-67093475D01*
X139927760Y-67210000D01*
X139753368Y-67326525D01*
X139546525Y-67533368D01*
X139384010Y-67776589D01*
X139272068Y-68046842D01*
X139215000Y-68333740D01*
X139215000Y-68626260D01*
X139272068Y-68913158D01*
X139384010Y-69183411D01*
X139546525Y-69426632D01*
X139753368Y-69633475D01*
X139927760Y-69750000D01*
X139753368Y-69866525D01*
X139546525Y-70073368D01*
X139384010Y-70316589D01*
X139272068Y-70586842D01*
X139215000Y-70873740D01*
X139215000Y-71166260D01*
X139272068Y-71453158D01*
X139384010Y-71723411D01*
X139546525Y-71966632D01*
X139753368Y-72173475D01*
X139927760Y-72290000D01*
X139753368Y-72406525D01*
X139546525Y-72613368D01*
X139384010Y-72856589D01*
X139272068Y-73126842D01*
X139215000Y-73413740D01*
X139215000Y-73706260D01*
X139272068Y-73993158D01*
X139384010Y-74263411D01*
X139546525Y-74506632D01*
X139753368Y-74713475D01*
X139927760Y-74830000D01*
X139753368Y-74946525D01*
X139546525Y-75153368D01*
X139384010Y-75396589D01*
X139272068Y-75666842D01*
X139215000Y-75953740D01*
X139215000Y-76246260D01*
X139272068Y-76533158D01*
X139384010Y-76803411D01*
X139546525Y-77046632D01*
X139753368Y-77253475D01*
X139927760Y-77370000D01*
X139753368Y-77486525D01*
X139546525Y-77693368D01*
X139384010Y-77936589D01*
X139272068Y-78206842D01*
X139215000Y-78493740D01*
X139215000Y-78786260D01*
X139272068Y-79073158D01*
X139384010Y-79343411D01*
X139546525Y-79586632D01*
X139753368Y-79793475D01*
X139927760Y-79910000D01*
X139753368Y-80026525D01*
X139546525Y-80233368D01*
X139384010Y-80476589D01*
X139272068Y-80746842D01*
X139215000Y-81033740D01*
X139215000Y-81326260D01*
X139272068Y-81613158D01*
X139384010Y-81883411D01*
X139546525Y-82126632D01*
X139753368Y-82333475D01*
X139927760Y-82450000D01*
X139753368Y-82566525D01*
X139546525Y-82773368D01*
X139384010Y-83016589D01*
X139272068Y-83286842D01*
X139215000Y-83573740D01*
X139215000Y-83866260D01*
X139272068Y-84153158D01*
X139384010Y-84423411D01*
X139546525Y-84666632D01*
X139753368Y-84873475D01*
X139927760Y-84990000D01*
X139753368Y-85106525D01*
X139546525Y-85313368D01*
X139384010Y-85556589D01*
X139272068Y-85826842D01*
X139215000Y-86113740D01*
X139215000Y-86406260D01*
X139272068Y-86693158D01*
X139384010Y-86963411D01*
X139546525Y-87206632D01*
X139678380Y-87338487D01*
X139605820Y-87360498D01*
X139495506Y-87419463D01*
X139398815Y-87498815D01*
X139319463Y-87595506D01*
X139260498Y-87705820D01*
X139224188Y-87825518D01*
X139211928Y-87950000D01*
X135774311Y-87950000D01*
X135727932Y-87716842D01*
X135615990Y-87446589D01*
X135453475Y-87203368D01*
X135246632Y-86996525D01*
X135072240Y-86880000D01*
X135246632Y-86763475D01*
X135453475Y-86556632D01*
X135615990Y-86313411D01*
X135727932Y-86043158D01*
X135785000Y-85756260D01*
X135785000Y-85463740D01*
X135727932Y-85176842D01*
X135615990Y-84906589D01*
X135453475Y-84663368D01*
X135246632Y-84456525D01*
X135072240Y-84340000D01*
X135246632Y-84223475D01*
X135453475Y-84016632D01*
X135615990Y-83773411D01*
X135727932Y-83503158D01*
X135785000Y-83216260D01*
X135785000Y-82923740D01*
X135727932Y-82636842D01*
X135615990Y-82366589D01*
X135453475Y-82123368D01*
X135246632Y-81916525D01*
X135072240Y-81800000D01*
X135246632Y-81683475D01*
X135453475Y-81476632D01*
X135615990Y-81233411D01*
X135727932Y-80963158D01*
X135785000Y-80676260D01*
X135785000Y-80383740D01*
X135727932Y-80096842D01*
X135615990Y-79826589D01*
X135453475Y-79583368D01*
X135246632Y-79376525D01*
X135064466Y-79254805D01*
X135181355Y-79185178D01*
X135397588Y-78990269D01*
X135571641Y-78756920D01*
X135696825Y-78494099D01*
X135741476Y-78346890D01*
X135620155Y-78117000D01*
X134427000Y-78117000D01*
X134427000Y-78137000D01*
X134173000Y-78137000D01*
X134173000Y-78117000D01*
X132979845Y-78117000D01*
X132858524Y-78346890D01*
X132903175Y-78494099D01*
X133028359Y-78756920D01*
X133202412Y-78990269D01*
X133418645Y-79185178D01*
X133535534Y-79254805D01*
X133353368Y-79376525D01*
X133146525Y-79583368D01*
X132984010Y-79826589D01*
X132872068Y-80096842D01*
X132815000Y-80383740D01*
X132815000Y-80676260D01*
X132872068Y-80963158D01*
X132984010Y-81233411D01*
X133146525Y-81476632D01*
X133353368Y-81683475D01*
X133527760Y-81800000D01*
X133353368Y-81916525D01*
X133146525Y-82123368D01*
X132984010Y-82366589D01*
X132872068Y-82636842D01*
X132815000Y-82923740D01*
X132815000Y-83216260D01*
X132872068Y-83503158D01*
X132984010Y-83773411D01*
X133146525Y-84016632D01*
X133353368Y-84223475D01*
X133527760Y-84340000D01*
X133353368Y-84456525D01*
X133146525Y-84663368D01*
X132984010Y-84906589D01*
X132872068Y-85176842D01*
X132815000Y-85463740D01*
X132815000Y-85756260D01*
X132872068Y-86043158D01*
X132984010Y-86313411D01*
X133146525Y-86556632D01*
X133353368Y-86763475D01*
X133527760Y-86880000D01*
X133353368Y-86996525D01*
X133146525Y-87203368D01*
X132984010Y-87446589D01*
X132872068Y-87716842D01*
X132815000Y-88003740D01*
X132815000Y-88296260D01*
X132872068Y-88583158D01*
X132984010Y-88853411D01*
X133146525Y-89096632D01*
X133353368Y-89303475D01*
X133527760Y-89420000D01*
X133353368Y-89536525D01*
X133146525Y-89743368D01*
X132984010Y-89986589D01*
X132872068Y-90256842D01*
X132815000Y-90543740D01*
X132815000Y-90836260D01*
X132872068Y-91123158D01*
X132984010Y-91393411D01*
X133146525Y-91636632D01*
X133353368Y-91843475D01*
X133527760Y-91960000D01*
X133353368Y-92076525D01*
X133146525Y-92283368D01*
X132984010Y-92526589D01*
X132872068Y-92796842D01*
X132815000Y-93083740D01*
X132815000Y-93376260D01*
X132872068Y-93663158D01*
X132984010Y-93933411D01*
X133146525Y-94176632D01*
X133353368Y-94383475D01*
X133527760Y-94500000D01*
X133353368Y-94616525D01*
X133146525Y-94823368D01*
X132984010Y-95066589D01*
X132872068Y-95336842D01*
X132815000Y-95623740D01*
X132815000Y-95916260D01*
X132872068Y-96203158D01*
X132984010Y-96473411D01*
X133146525Y-96716632D01*
X133353368Y-96923475D01*
X133527760Y-97040000D01*
X133353368Y-97156525D01*
X133146525Y-97363368D01*
X132984010Y-97606589D01*
X132872068Y-97876842D01*
X132815000Y-98163740D01*
X132815000Y-98456260D01*
X132872068Y-98743158D01*
X132984010Y-99013411D01*
X133146525Y-99256632D01*
X133278380Y-99388487D01*
X133205820Y-99410498D01*
X133095506Y-99469463D01*
X132998815Y-99548815D01*
X132919463Y-99645506D01*
X132860498Y-99755820D01*
X132824188Y-99875518D01*
X132811928Y-100000000D01*
X112511361Y-100000000D01*
X112453475Y-99913368D01*
X112246632Y-99706525D01*
X112072240Y-99590000D01*
X112246632Y-99473475D01*
X112453475Y-99266632D01*
X112615990Y-99023411D01*
X112727932Y-98753158D01*
X112785000Y-98466260D01*
X112785000Y-98173740D01*
X112727932Y-97886842D01*
X112615990Y-97616589D01*
X112453475Y-97373368D01*
X112246632Y-97166525D01*
X112072240Y-97050000D01*
X112246632Y-96933475D01*
X112453475Y-96726632D01*
X112615990Y-96483411D01*
X112727932Y-96213158D01*
X112785000Y-95926260D01*
X112785000Y-95633740D01*
X112727932Y-95346842D01*
X112615990Y-95076589D01*
X112453475Y-94833368D01*
X112246632Y-94626525D01*
X112072240Y-94510000D01*
X112246632Y-94393475D01*
X112453475Y-94186632D01*
X112615990Y-93943411D01*
X112727932Y-93673158D01*
X112785000Y-93386260D01*
X112785000Y-93093740D01*
X112727932Y-92806842D01*
X112615990Y-92536589D01*
X112453475Y-92293368D01*
X112246632Y-92086525D01*
X112064466Y-91964805D01*
X112181355Y-91895178D01*
X112397588Y-91700269D01*
X112571641Y-91466920D01*
X112696825Y-91204099D01*
X112741476Y-91056890D01*
X112620155Y-90827000D01*
X111427000Y-90827000D01*
X111427000Y-90847000D01*
X111173000Y-90847000D01*
X111173000Y-90827000D01*
X109979845Y-90827000D01*
X109858524Y-91056890D01*
X109903175Y-91204099D01*
X110028359Y-91466920D01*
X110202412Y-91700269D01*
X110418645Y-91895178D01*
X110535534Y-91964805D01*
X110353368Y-92086525D01*
X110146525Y-92293368D01*
X109984010Y-92536589D01*
X109872068Y-92806842D01*
X109815000Y-93093740D01*
X109815000Y-93386260D01*
X109872068Y-93673158D01*
X109984010Y-93943411D01*
X110146525Y-94186632D01*
X110353368Y-94393475D01*
X110527760Y-94510000D01*
X110353368Y-94626525D01*
X110146525Y-94833368D01*
X109984010Y-95076589D01*
X109872068Y-95346842D01*
X109815000Y-95633740D01*
X109815000Y-95926260D01*
X109872068Y-96213158D01*
X109984010Y-96483411D01*
X110146525Y-96726632D01*
X110353368Y-96933475D01*
X110527760Y-97050000D01*
X110353368Y-97166525D01*
X110146525Y-97373368D01*
X109984010Y-97616589D01*
X109872068Y-97886842D01*
X109815000Y-98173740D01*
X109815000Y-98466260D01*
X109872068Y-98753158D01*
X109984010Y-99023411D01*
X110146525Y-99266632D01*
X110353368Y-99473475D01*
X110527760Y-99590000D01*
X110353368Y-99706525D01*
X110146525Y-99913368D01*
X109984010Y-100156589D01*
X109872068Y-100426842D01*
X109815000Y-100713740D01*
X109815000Y-101006260D01*
X109872068Y-101293158D01*
X109984010Y-101563411D01*
X110146525Y-101806632D01*
X110353368Y-102013475D01*
X110580141Y-102165000D01*
X101435000Y-102165000D01*
X101435000Y-92350000D01*
X104211928Y-92350000D01*
X104211928Y-94050000D01*
X104224188Y-94174482D01*
X104260498Y-94294180D01*
X104319463Y-94404494D01*
X104398815Y-94501185D01*
X104495506Y-94580537D01*
X104605820Y-94639502D01*
X104678380Y-94661513D01*
X104546525Y-94793368D01*
X104384010Y-95036589D01*
X104272068Y-95306842D01*
X104215000Y-95593740D01*
X104215000Y-95886260D01*
X104272068Y-96173158D01*
X104384010Y-96443411D01*
X104546525Y-96686632D01*
X104753368Y-96893475D01*
X104927760Y-97010000D01*
X104753368Y-97126525D01*
X104546525Y-97333368D01*
X104384010Y-97576589D01*
X104272068Y-97846842D01*
X104215000Y-98133740D01*
X104215000Y-98426260D01*
X104272068Y-98713158D01*
X104384010Y-98983411D01*
X104546525Y-99226632D01*
X104753368Y-99433475D01*
X104996589Y-99595990D01*
X105266842Y-99707932D01*
X105553740Y-99765000D01*
X105846260Y-99765000D01*
X106133158Y-99707932D01*
X106403411Y-99595990D01*
X106646632Y-99433475D01*
X106853475Y-99226632D01*
X107015990Y-98983411D01*
X107127932Y-98713158D01*
X107185000Y-98426260D01*
X107185000Y-98133740D01*
X107127932Y-97846842D01*
X107015990Y-97576589D01*
X106853475Y-97333368D01*
X106646632Y-97126525D01*
X106472240Y-97010000D01*
X106646632Y-96893475D01*
X106853475Y-96686632D01*
X107015990Y-96443411D01*
X107127932Y-96173158D01*
X107185000Y-95886260D01*
X107185000Y-95593740D01*
X107127932Y-95306842D01*
X107015990Y-95036589D01*
X106853475Y-94793368D01*
X106721620Y-94661513D01*
X106794180Y-94639502D01*
X106904494Y-94580537D01*
X107001185Y-94501185D01*
X107080537Y-94404494D01*
X107139502Y-94294180D01*
X107175812Y-94174482D01*
X107188072Y-94050000D01*
X107188072Y-92350000D01*
X107175812Y-92225518D01*
X107139502Y-92105820D01*
X107080537Y-91995506D01*
X107001185Y-91898815D01*
X106904494Y-91819463D01*
X106794180Y-91760498D01*
X106674482Y-91724188D01*
X106550000Y-91711928D01*
X104850000Y-91711928D01*
X104725518Y-91724188D01*
X104605820Y-91760498D01*
X104495506Y-91819463D01*
X104398815Y-91898815D01*
X104319463Y-91995506D01*
X104260498Y-92105820D01*
X104224188Y-92225518D01*
X104211928Y-92350000D01*
X101435000Y-92350000D01*
X101435000Y-63935000D01*
X104476574Y-63935000D01*
X104398815Y-63998815D01*
G37*
X104398815Y-63998815D02*
X104319463Y-64095506D01*
X104260498Y-64205820D01*
X104224188Y-64325518D01*
X104211928Y-64450000D01*
X104211928Y-66150000D01*
X104224188Y-66274482D01*
X104260498Y-66394180D01*
X104319463Y-66504494D01*
X104398815Y-66601185D01*
X104495506Y-66680537D01*
X104605820Y-66739502D01*
X104678380Y-66761513D01*
X104546525Y-66893368D01*
X104384010Y-67136589D01*
X104272068Y-67406842D01*
X104215000Y-67693740D01*
X104215000Y-67986260D01*
X104272068Y-68273158D01*
X104384010Y-68543411D01*
X104546525Y-68786632D01*
X104753368Y-68993475D01*
X104927760Y-69110000D01*
X104753368Y-69226525D01*
X104546525Y-69433368D01*
X104384010Y-69676589D01*
X104272068Y-69946842D01*
X104215000Y-70233740D01*
X104215000Y-70526260D01*
X104272068Y-70813158D01*
X104384010Y-71083411D01*
X104546525Y-71326632D01*
X104753368Y-71533475D01*
X104927760Y-71650000D01*
X104753368Y-71766525D01*
X104546525Y-71973368D01*
X104384010Y-72216589D01*
X104272068Y-72486842D01*
X104215000Y-72773740D01*
X104215000Y-73066260D01*
X104272068Y-73353158D01*
X104384010Y-73623411D01*
X104546525Y-73866632D01*
X104753368Y-74073475D01*
X104927760Y-74190000D01*
X104753368Y-74306525D01*
X104546525Y-74513368D01*
X104384010Y-74756589D01*
X104272068Y-75026842D01*
X104215000Y-75313740D01*
X104215000Y-75606260D01*
X104272068Y-75893158D01*
X104384010Y-76163411D01*
X104546525Y-76406632D01*
X104753368Y-76613475D01*
X104927760Y-76730000D01*
X104753368Y-76846525D01*
X104546525Y-77053368D01*
X104384010Y-77296589D01*
X104272068Y-77566842D01*
X104215000Y-77853740D01*
X104215000Y-78146260D01*
X104272068Y-78433158D01*
X104384010Y-78703411D01*
X104546525Y-78946632D01*
X104753368Y-79153475D01*
X104927760Y-79270000D01*
X104753368Y-79386525D01*
X104546525Y-79593368D01*
X104384010Y-79836589D01*
X104272068Y-80106842D01*
X104215000Y-80393740D01*
X104215000Y-80686260D01*
X104272068Y-80973158D01*
X104384010Y-81243411D01*
X104546525Y-81486632D01*
X104753368Y-81693475D01*
X104927760Y-81810000D01*
X104753368Y-81926525D01*
X104546525Y-82133368D01*
X104384010Y-82376589D01*
X104272068Y-82646842D01*
X104215000Y-82933740D01*
X104215000Y-83226260D01*
X104272068Y-83513158D01*
X104384010Y-83783411D01*
X104546525Y-84026632D01*
X104753368Y-84233475D01*
X104927760Y-84350000D01*
X104753368Y-84466525D01*
X104546525Y-84673368D01*
X104384010Y-84916589D01*
X104272068Y-85186842D01*
X104215000Y-85473740D01*
X104215000Y-85766260D01*
X104272068Y-86053158D01*
X104384010Y-86323411D01*
X104546525Y-86566632D01*
X104753368Y-86773475D01*
X104996589Y-86935990D01*
X105266842Y-87047932D01*
X105553740Y-87105000D01*
X105846260Y-87105000D01*
X106133158Y-87047932D01*
X106403411Y-86935990D01*
X106646632Y-86773475D01*
X106853475Y-86566632D01*
X107015990Y-86323411D01*
X107127932Y-86053158D01*
X107185000Y-85766260D01*
X107185000Y-85473740D01*
X107127932Y-85186842D01*
X107015990Y-84916589D01*
X106853475Y-84673368D01*
X106646632Y-84466525D01*
X106472240Y-84350000D01*
X106646632Y-84233475D01*
X106853475Y-84026632D01*
X107015990Y-83783411D01*
X107127932Y-83513158D01*
X107185000Y-83226260D01*
X107185000Y-82933740D01*
X107127932Y-82646842D01*
X107015990Y-82376589D01*
X106853475Y-82133368D01*
X106646632Y-81926525D01*
X106472240Y-81810000D01*
X106646632Y-81693475D01*
X106853475Y-81486632D01*
X107015990Y-81243411D01*
X107127932Y-80973158D01*
X107185000Y-80686260D01*
X107185000Y-80393740D01*
X107127932Y-80106842D01*
X107015990Y-79836589D01*
X106853475Y-79593368D01*
X106646632Y-79386525D01*
X106472240Y-79270000D01*
X106646632Y-79153475D01*
X106853475Y-78946632D01*
X107015990Y-78703411D01*
X107127932Y-78433158D01*
X107185000Y-78146260D01*
X107185000Y-77853740D01*
X107127932Y-77566842D01*
X107015990Y-77296589D01*
X106853475Y-77053368D01*
X106646632Y-76846525D01*
X106472240Y-76730000D01*
X106646632Y-76613475D01*
X106853475Y-76406632D01*
X107015990Y-76163411D01*
X107127932Y-75893158D01*
X107185000Y-75606260D01*
X107185000Y-75313740D01*
X107127932Y-75026842D01*
X107015990Y-74756589D01*
X106853475Y-74513368D01*
X106646632Y-74306525D01*
X106472240Y-74190000D01*
X106646632Y-74073475D01*
X106853475Y-73866632D01*
X107015990Y-73623411D01*
X107127932Y-73353158D01*
X107185000Y-73066260D01*
X107185000Y-72773740D01*
X107127932Y-72486842D01*
X107015990Y-72216589D01*
X106853475Y-71973368D01*
X106646632Y-71766525D01*
X106472240Y-71650000D01*
X106646632Y-71533475D01*
X106853475Y-71326632D01*
X107015990Y-71083411D01*
X107127932Y-70813158D01*
X107185000Y-70526260D01*
X107185000Y-70233740D01*
X107127932Y-69946842D01*
X107015990Y-69676589D01*
X106853475Y-69433368D01*
X106646632Y-69226525D01*
X106472240Y-69110000D01*
X106646632Y-68993475D01*
X106853475Y-68786632D01*
X107015990Y-68543411D01*
X107127932Y-68273158D01*
X107185000Y-67986260D01*
X107185000Y-67693740D01*
X107127932Y-67406842D01*
X107015990Y-67136589D01*
X106853475Y-66893368D01*
X106721620Y-66761513D01*
X106794180Y-66739502D01*
X106904494Y-66680537D01*
X107001185Y-66601185D01*
X107080537Y-66504494D01*
X107139502Y-66394180D01*
X107175812Y-66274482D01*
X107188072Y-66150000D01*
X107188072Y-64450000D01*
X107175812Y-64325518D01*
X107139502Y-64205820D01*
X107080537Y-64095506D01*
X107001185Y-63998815D01*
X106923426Y-63935000D01*
X110076574Y-63935000D01*
X109998815Y-63998815D01*
X109919463Y-64095506D01*
X109860498Y-64205820D01*
X109824188Y-64325518D01*
X109811928Y-64450000D01*
X109811928Y-66150000D01*
X109824188Y-66274482D01*
X109860498Y-66394180D01*
X109919463Y-66504494D01*
X109998815Y-66601185D01*
X110095506Y-66680537D01*
X110205820Y-66739502D01*
X110278380Y-66761513D01*
X110146525Y-66893368D01*
X109984010Y-67136589D01*
X109872068Y-67406842D01*
X109815000Y-67693740D01*
X109815000Y-67986260D01*
X109872068Y-68273158D01*
X109984010Y-68543411D01*
X110146525Y-68786632D01*
X110353368Y-68993475D01*
X110527760Y-69110000D01*
X110353368Y-69226525D01*
X110146525Y-69433368D01*
X109984010Y-69676589D01*
X109872068Y-69946842D01*
X109815000Y-70233740D01*
X109815000Y-70526260D01*
X109872068Y-70813158D01*
X109984010Y-71083411D01*
X110146525Y-71326632D01*
X110353368Y-71533475D01*
X110527760Y-71650000D01*
X110353368Y-71766525D01*
X110146525Y-71973368D01*
X109984010Y-72216589D01*
X109872068Y-72486842D01*
X109815000Y-72773740D01*
X109815000Y-73066260D01*
X109872068Y-73353158D01*
X109984010Y-73623411D01*
X110146525Y-73866632D01*
X110353368Y-74073475D01*
X110527760Y-74190000D01*
X110353368Y-74306525D01*
X110146525Y-74513368D01*
X109984010Y-74756589D01*
X109872068Y-75026842D01*
X109815000Y-75313740D01*
X109815000Y-75606260D01*
X109872068Y-75893158D01*
X109984010Y-76163411D01*
X110146525Y-76406632D01*
X110353368Y-76613475D01*
X110527760Y-76730000D01*
X110353368Y-76846525D01*
X110146525Y-77053368D01*
X109984010Y-77296589D01*
X109872068Y-77566842D01*
X109815000Y-77853740D01*
X109815000Y-78146260D01*
X109872068Y-78433158D01*
X109984010Y-78703411D01*
X110146525Y-78946632D01*
X110353368Y-79153475D01*
X110527760Y-79270000D01*
X110353368Y-79386525D01*
X110146525Y-79593368D01*
X109984010Y-79836589D01*
X109872068Y-80106842D01*
X109815000Y-80393740D01*
X109815000Y-80686260D01*
X109872068Y-80973158D01*
X109984010Y-81243411D01*
X110146525Y-81486632D01*
X110353368Y-81693475D01*
X110527760Y-81810000D01*
X110353368Y-81926525D01*
X110146525Y-82133368D01*
X109984010Y-82376589D01*
X109872068Y-82646842D01*
X109815000Y-82933740D01*
X109815000Y-83226260D01*
X109872068Y-83513158D01*
X109984010Y-83783411D01*
X110146525Y-84026632D01*
X110353368Y-84233475D01*
X110527760Y-84350000D01*
X110353368Y-84466525D01*
X110146525Y-84673368D01*
X109984010Y-84916589D01*
X109872068Y-85186842D01*
X109815000Y-85473740D01*
X109815000Y-85766260D01*
X109872068Y-86053158D01*
X109984010Y-86323411D01*
X110146525Y-86566632D01*
X110353368Y-86773475D01*
X110527760Y-86890000D01*
X110353368Y-87006525D01*
X110146525Y-87213368D01*
X109984010Y-87456589D01*
X109872068Y-87726842D01*
X109815000Y-88013740D01*
X109815000Y-88306260D01*
X109872068Y-88593158D01*
X109984010Y-88863411D01*
X110146525Y-89106632D01*
X110353368Y-89313475D01*
X110535534Y-89435195D01*
X110418645Y-89504822D01*
X110202412Y-89699731D01*
X110028359Y-89933080D01*
X109903175Y-90195901D01*
X109858524Y-90343110D01*
X109979845Y-90573000D01*
X111173000Y-90573000D01*
X111173000Y-90553000D01*
X111427000Y-90553000D01*
X111427000Y-90573000D01*
X112620155Y-90573000D01*
X112741476Y-90343110D01*
X112696825Y-90195901D01*
X112571641Y-89933080D01*
X112397588Y-89699731D01*
X112181355Y-89504822D01*
X112064466Y-89435195D01*
X112246632Y-89313475D01*
X112453475Y-89106632D01*
X112615990Y-88863411D01*
X112727932Y-88593158D01*
X112785000Y-88306260D01*
X112785000Y-88013740D01*
X112727932Y-87726842D01*
X112615990Y-87456589D01*
X112453475Y-87213368D01*
X112246632Y-87006525D01*
X112072240Y-86890000D01*
X112246632Y-86773475D01*
X112453475Y-86566632D01*
X112615990Y-86323411D01*
X112727932Y-86053158D01*
X112785000Y-85766260D01*
X112785000Y-85473740D01*
X112727932Y-85186842D01*
X112615990Y-84916589D01*
X112453475Y-84673368D01*
X112246632Y-84466525D01*
X112072240Y-84350000D01*
X112246632Y-84233475D01*
X112453475Y-84026632D01*
X112615990Y-83783411D01*
X112727932Y-83513158D01*
X112785000Y-83226260D01*
X112785000Y-82933740D01*
X112727932Y-82646842D01*
X112615990Y-82376589D01*
X112453475Y-82133368D01*
X112246632Y-81926525D01*
X112072240Y-81810000D01*
X112246632Y-81693475D01*
X112453475Y-81486632D01*
X112615990Y-81243411D01*
X112727932Y-80973158D01*
X112785000Y-80686260D01*
X112785000Y-80393740D01*
X112727932Y-80106842D01*
X112615990Y-79836589D01*
X112453475Y-79593368D01*
X112246632Y-79386525D01*
X112072240Y-79270000D01*
X112246632Y-79153475D01*
X112453475Y-78946632D01*
X112615990Y-78703411D01*
X112727932Y-78433158D01*
X112785000Y-78146260D01*
X112785000Y-77853740D01*
X112727932Y-77566842D01*
X112615990Y-77296589D01*
X112453475Y-77053368D01*
X112246632Y-76846525D01*
X112072240Y-76730000D01*
X112246632Y-76613475D01*
X112453475Y-76406632D01*
X112615990Y-76163411D01*
X112727932Y-75893158D01*
X112785000Y-75606260D01*
X112785000Y-75313740D01*
X112727932Y-75026842D01*
X112615990Y-74756589D01*
X112453475Y-74513368D01*
X112246632Y-74306525D01*
X112072240Y-74190000D01*
X112246632Y-74073475D01*
X112453475Y-73866632D01*
X112615990Y-73623411D01*
X112727932Y-73353158D01*
X112785000Y-73066260D01*
X112785000Y-72773740D01*
X112727932Y-72486842D01*
X112615990Y-72216589D01*
X112453475Y-71973368D01*
X112246632Y-71766525D01*
X112072240Y-71650000D01*
X112246632Y-71533475D01*
X112453475Y-71326632D01*
X112615990Y-71083411D01*
X112727932Y-70813158D01*
X112785000Y-70526260D01*
X112785000Y-70233740D01*
X112727932Y-69946842D01*
X112615990Y-69676589D01*
X112453475Y-69433368D01*
X112246632Y-69226525D01*
X112072240Y-69110000D01*
X112246632Y-68993475D01*
X112453475Y-68786632D01*
X112615990Y-68543411D01*
X112727932Y-68273158D01*
X112785000Y-67986260D01*
X112785000Y-67693740D01*
X112727932Y-67406842D01*
X112615990Y-67136589D01*
X112453475Y-66893368D01*
X112321620Y-66761513D01*
X112394180Y-66739502D01*
X112504494Y-66680537D01*
X112601185Y-66601185D01*
X112680537Y-66504494D01*
X112739502Y-66394180D01*
X112775812Y-66274482D01*
X112788072Y-66150000D01*
X112788072Y-64450000D01*
X112775812Y-64325518D01*
X112739502Y-64205820D01*
X112680537Y-64095506D01*
X112601185Y-63998815D01*
X112523426Y-63935000D01*
X133690768Y-63935000D01*
X133596589Y-63974010D01*
X133353368Y-64136525D01*
X133146525Y-64343368D01*
X132984010Y-64586589D01*
X132872068Y-64856842D01*
X132815000Y-65143740D01*
X132815000Y-65436260D01*
X132872068Y-65723158D01*
X132984010Y-65993411D01*
X133146525Y-66236632D01*
X133353368Y-66443475D01*
X133527760Y-66560000D01*
X133353368Y-66676525D01*
X133146525Y-66883368D01*
X132984010Y-67126589D01*
X132872068Y-67396842D01*
X132815000Y-67683740D01*
X132815000Y-67976260D01*
X132872068Y-68263158D01*
X132984010Y-68533411D01*
X133146525Y-68776632D01*
X133353368Y-68983475D01*
X133527760Y-69100000D01*
X133353368Y-69216525D01*
X133146525Y-69423368D01*
X132984010Y-69666589D01*
X132872068Y-69936842D01*
X132815000Y-70223740D01*
X132815000Y-70516260D01*
X132872068Y-70803158D01*
X132984010Y-71073411D01*
X133146525Y-71316632D01*
X133353368Y-71523475D01*
X133527760Y-71640000D01*
X133353368Y-71756525D01*
X133146525Y-71963368D01*
X132984010Y-72206589D01*
X132872068Y-72476842D01*
X132815000Y-72763740D01*
X132815000Y-73056260D01*
X132872068Y-73343158D01*
X132984010Y-73613411D01*
X133146525Y-73856632D01*
X133353368Y-74063475D01*
X133527760Y-74180000D01*
X133353368Y-74296525D01*
X133146525Y-74503368D01*
X132984010Y-74746589D01*
X132872068Y-75016842D01*
X132815000Y-75303740D01*
X132815000Y-75596260D01*
X132872068Y-75883158D01*
X132984010Y-76153411D01*
X133146525Y-76396632D01*
X133353368Y-76603475D01*
X133535534Y-76725195D01*
X133418645Y-76794822D01*
X133202412Y-76989731D01*
X133028359Y-77223080D01*
X132903175Y-77485901D01*
X132858524Y-77633110D01*
X132979845Y-77863000D01*
X134173000Y-77863000D01*
X134173000Y-77843000D01*
X134427000Y-77843000D01*
X134427000Y-77863000D01*
X135620155Y-77863000D01*
X135741476Y-77633110D01*
X135696825Y-77485901D01*
X135571641Y-77223080D01*
X135397588Y-76989731D01*
X135181355Y-76794822D01*
X135064466Y-76725195D01*
X135246632Y-76603475D01*
X135453475Y-76396632D01*
X135615990Y-76153411D01*
X135727932Y-75883158D01*
X135785000Y-75596260D01*
X135785000Y-75303740D01*
X135727932Y-75016842D01*
X135615990Y-74746589D01*
X135453475Y-74503368D01*
X135246632Y-74296525D01*
X135072240Y-74180000D01*
X135246632Y-74063475D01*
X135453475Y-73856632D01*
X135615990Y-73613411D01*
X135727932Y-73343158D01*
X135785000Y-73056260D01*
X135785000Y-72763740D01*
X135727932Y-72476842D01*
X135615990Y-72206589D01*
X135453475Y-71963368D01*
X135246632Y-71756525D01*
X135072240Y-71640000D01*
X135246632Y-71523475D01*
X135453475Y-71316632D01*
X135615990Y-71073411D01*
X135727932Y-70803158D01*
X135785000Y-70516260D01*
X135785000Y-70223740D01*
X135727932Y-69936842D01*
X135615990Y-69666589D01*
X135453475Y-69423368D01*
X135246632Y-69216525D01*
X135072240Y-69100000D01*
X135246632Y-68983475D01*
X135453475Y-68776632D01*
X135615990Y-68533411D01*
X135727932Y-68263158D01*
X135785000Y-67976260D01*
X135785000Y-67683740D01*
X135727932Y-67396842D01*
X135615990Y-67126589D01*
X135453475Y-66883368D01*
X135246632Y-66676525D01*
X135072240Y-66560000D01*
X135246632Y-66443475D01*
X135453475Y-66236632D01*
X135615990Y-65993411D01*
X135727932Y-65723158D01*
X135785000Y-65436260D01*
X135785000Y-65143740D01*
X135727932Y-64856842D01*
X135615990Y-64586589D01*
X135453475Y-64343368D01*
X135246632Y-64136525D01*
X135003411Y-63974010D01*
X134909232Y-63935000D01*
X159765000Y-63935000D01*
X159765001Y-102165000D01*
X135584351Y-102165000D01*
X135601185Y-102151185D01*
X135680537Y-102054494D01*
X135739502Y-101944180D01*
X135775812Y-101824482D01*
X135788072Y-101700000D01*
X135785000Y-101135750D01*
X135626250Y-100977000D01*
X134427000Y-100977000D01*
X134427000Y-100997000D01*
X134173000Y-100997000D01*
X134173000Y-100977000D01*
X132973750Y-100977000D01*
X132815000Y-101135750D01*
X132811928Y-101700000D01*
X132824188Y-101824482D01*
X132860498Y-101944180D01*
X132919463Y-102054494D01*
X132998815Y-102151185D01*
X133015649Y-102165000D01*
X112019859Y-102165000D01*
X112246632Y-102013475D01*
X112453475Y-101806632D01*
X112615990Y-101563411D01*
X112727932Y-101293158D01*
X112785000Y-101006260D01*
X112785000Y-100713740D01*
X112727932Y-100426842D01*
X112615990Y-100156589D01*
X112511361Y-100000000D01*
X132811928Y-100000000D01*
X132815000Y-100564250D01*
X132973750Y-100723000D01*
X134173000Y-100723000D01*
X134173000Y-100703000D01*
X134427000Y-100703000D01*
X134427000Y-100723000D01*
X135626250Y-100723000D01*
X135785000Y-100564250D01*
X135788072Y-100000000D01*
X135775812Y-99875518D01*
X135739502Y-99755820D01*
X135680537Y-99645506D01*
X135601185Y-99548815D01*
X135504494Y-99469463D01*
X135412687Y-99420390D01*
X141558524Y-99420390D01*
X141603175Y-99567599D01*
X141728359Y-99830420D01*
X141902412Y-100063769D01*
X142118645Y-100258678D01*
X142368748Y-100407657D01*
X142643109Y-100504981D01*
X142873000Y-100384314D01*
X142873000Y-99190500D01*
X143127000Y-99190500D01*
X143127000Y-100384314D01*
X143356891Y-100504981D01*
X143631252Y-100407657D01*
X143881355Y-100258678D01*
X144097588Y-100063769D01*
X144270000Y-99832620D01*
X144442412Y-100063769D01*
X144658645Y-100258678D01*
X144908748Y-100407657D01*
X145183109Y-100504981D01*
X145413000Y-100384314D01*
X145413000Y-99190500D01*
X145667000Y-99190500D01*
X145667000Y-100384314D01*
X145896891Y-100504981D01*
X146171252Y-100407657D01*
X146421355Y-100258678D01*
X146637588Y-100063769D01*
X146811641Y-99830420D01*
X146936825Y-99567599D01*
X146981476Y-99420390D01*
X146860155Y-99190500D01*
X145667000Y-99190500D01*
X145413000Y-99190500D01*
X143127000Y-99190500D01*
X142873000Y-99190500D01*
X141679845Y-99190500D01*
X141558524Y-99420390D01*
X135412687Y-99420390D01*
X135394180Y-99410498D01*
X135321620Y-99388487D01*
X135453475Y-99256632D01*
X135615990Y-99013411D01*
X135727932Y-98743158D01*
X135785000Y-98456260D01*
X135785000Y-98163740D01*
X135727932Y-97876842D01*
X135615990Y-97606589D01*
X135453475Y-97363368D01*
X135246632Y-97156525D01*
X135072240Y-97040000D01*
X135246632Y-96923475D01*
X135289717Y-96880390D01*
X141558524Y-96880390D01*
X141603175Y-97027599D01*
X141728359Y-97290420D01*
X141902412Y-97523769D01*
X142118645Y-97718678D01*
X142244255Y-97793500D01*
X142118645Y-97868322D01*
X141902412Y-98063231D01*
X141728359Y-98296580D01*
X141603175Y-98559401D01*
X141558524Y-98706610D01*
X141679845Y-98936500D01*
X142873000Y-98936500D01*
X142873000Y-96650500D01*
X143127000Y-96650500D01*
X143127000Y-98936500D01*
X145413000Y-98936500D01*
X145413000Y-96650500D01*
X145667000Y-96650500D01*
X145667000Y-98936500D01*
X146860155Y-98936500D01*
X146981476Y-98706610D01*
X146936825Y-98559401D01*
X146811641Y-98296580D01*
X146637588Y-98063231D01*
X146421355Y-97868322D01*
X146295745Y-97793500D01*
X146421355Y-97718678D01*
X146637588Y-97523769D01*
X146811641Y-97290420D01*
X146936825Y-97027599D01*
X146981476Y-96880390D01*
X146860155Y-96650500D01*
X145667000Y-96650500D01*
X145413000Y-96650500D01*
X143127000Y-96650500D01*
X142873000Y-96650500D01*
X141679845Y-96650500D01*
X141558524Y-96880390D01*
X135289717Y-96880390D01*
X135453475Y-96716632D01*
X135615990Y-96473411D01*
X135727932Y-96203158D01*
X135785000Y-95916260D01*
X135785000Y-95623740D01*
X135727932Y-95336842D01*
X135615990Y-95066589D01*
X135460245Y-94833500D01*
X141511928Y-94833500D01*
X141524188Y-94957982D01*
X141560498Y-95077680D01*
X141619463Y-95187994D01*
X141698815Y-95284685D01*
X141795506Y-95364037D01*
X141905820Y-95423002D01*
X141986466Y-95447466D01*
X141902412Y-95523231D01*
X141728359Y-95756580D01*
X141603175Y-96019401D01*
X141558524Y-96166610D01*
X141679845Y-96396500D01*
X142873000Y-96396500D01*
X142873000Y-94110500D01*
X143127000Y-94110500D01*
X143127000Y-96396500D01*
X145413000Y-96396500D01*
X145413000Y-94110500D01*
X145667000Y-94110500D01*
X145667000Y-96396500D01*
X146860155Y-96396500D01*
X146981476Y-96166610D01*
X146936825Y-96019401D01*
X146811641Y-95756580D01*
X146637588Y-95523231D01*
X146421355Y-95328322D01*
X146295745Y-95253500D01*
X146421355Y-95178678D01*
X146637588Y-94983769D01*
X146811641Y-94750420D01*
X146936825Y-94487599D01*
X146981476Y-94340390D01*
X146860155Y-94110500D01*
X145667000Y-94110500D01*
X145413000Y-94110500D01*
X143127000Y-94110500D01*
X142873000Y-94110500D01*
X141673750Y-94110500D01*
X141515000Y-94269250D01*
X141511928Y-94833500D01*
X135460245Y-94833500D01*
X135453475Y-94823368D01*
X135246632Y-94616525D01*
X135072240Y-94500000D01*
X135246632Y-94383475D01*
X135453475Y-94176632D01*
X135615990Y-93933411D01*
X135727932Y-93663158D01*
X135785000Y-93376260D01*
X135785000Y-93133500D01*
X141511928Y-93133500D01*
X141515000Y-93697750D01*
X141673750Y-93856500D01*
X142873000Y-93856500D01*
X142873000Y-92657250D01*
X143127000Y-92657250D01*
X143127000Y-93856500D01*
X145413000Y-93856500D01*
X145413000Y-92662686D01*
X145667000Y-92662686D01*
X145667000Y-93856500D01*
X146860155Y-93856500D01*
X146981476Y-93626610D01*
X146936825Y-93479401D01*
X146811641Y-93216580D01*
X146749673Y-93133500D01*
X151011928Y-93133500D01*
X151011928Y-94833500D01*
X151024188Y-94957982D01*
X151060498Y-95077680D01*
X151119463Y-95187994D01*
X151198815Y-95284685D01*
X151295506Y-95364037D01*
X151405820Y-95423002D01*
X151478380Y-95445013D01*
X151346525Y-95576868D01*
X151184010Y-95820089D01*
X151072068Y-96090342D01*
X151015000Y-96377240D01*
X151015000Y-96669760D01*
X151072068Y-96956658D01*
X151184010Y-97226911D01*
X151346525Y-97470132D01*
X151553368Y-97676975D01*
X151727760Y-97793500D01*
X151553368Y-97910025D01*
X151346525Y-98116868D01*
X151184010Y-98360089D01*
X151072068Y-98630342D01*
X151015000Y-98917240D01*
X151015000Y-99209760D01*
X151072068Y-99496658D01*
X151184010Y-99766911D01*
X151346525Y-100010132D01*
X151553368Y-100216975D01*
X151796589Y-100379490D01*
X152066842Y-100491432D01*
X152353740Y-100548500D01*
X152646260Y-100548500D01*
X152933158Y-100491432D01*
X153203411Y-100379490D01*
X153446632Y-100216975D01*
X153653475Y-100010132D01*
X153770000Y-99835740D01*
X153886525Y-100010132D01*
X154093368Y-100216975D01*
X154336589Y-100379490D01*
X154606842Y-100491432D01*
X154893740Y-100548500D01*
X155186260Y-100548500D01*
X155473158Y-100491432D01*
X155743411Y-100379490D01*
X155986632Y-100216975D01*
X156193475Y-100010132D01*
X156355990Y-99766911D01*
X156467932Y-99496658D01*
X156525000Y-99209760D01*
X156525000Y-98917240D01*
X156467932Y-98630342D01*
X156355990Y-98360089D01*
X156193475Y-98116868D01*
X155986632Y-97910025D01*
X155812240Y-97793500D01*
X155986632Y-97676975D01*
X156193475Y-97470132D01*
X156355990Y-97226911D01*
X156467932Y-96956658D01*
X156525000Y-96669760D01*
X156525000Y-96377240D01*
X156467932Y-96090342D01*
X156355990Y-95820089D01*
X156193475Y-95576868D01*
X155986632Y-95370025D01*
X155812240Y-95253500D01*
X155986632Y-95136975D01*
X156193475Y-94930132D01*
X156355990Y-94686911D01*
X156467932Y-94416658D01*
X156525000Y-94129760D01*
X156525000Y-93837240D01*
X156467932Y-93550342D01*
X156355990Y-93280089D01*
X156193475Y-93036868D01*
X155986632Y-92830025D01*
X155743411Y-92667510D01*
X155473158Y-92555568D01*
X155186260Y-92498500D01*
X154893740Y-92498500D01*
X154606842Y-92555568D01*
X154336589Y-92667510D01*
X154093368Y-92830025D01*
X153961513Y-92961880D01*
X153939502Y-92889320D01*
X153880537Y-92779006D01*
X153801185Y-92682315D01*
X153704494Y-92602963D01*
X153594180Y-92543998D01*
X153474482Y-92507688D01*
X153350000Y-92495428D01*
X151650000Y-92495428D01*
X151525518Y-92507688D01*
X151405820Y-92543998D01*
X151295506Y-92602963D01*
X151198815Y-92682315D01*
X151119463Y-92779006D01*
X151060498Y-92889320D01*
X151024188Y-93009018D01*
X151011928Y-93133500D01*
X146749673Y-93133500D01*
X146637588Y-92983231D01*
X146421355Y-92788322D01*
X146171252Y-92639343D01*
X145896891Y-92542019D01*
X145667000Y-92662686D01*
X145413000Y-92662686D01*
X145183109Y-92542019D01*
X144908748Y-92639343D01*
X144658645Y-92788322D01*
X144462498Y-92965126D01*
X144439502Y-92889320D01*
X144380537Y-92779006D01*
X144301185Y-92682315D01*
X144204494Y-92602963D01*
X144094180Y-92543998D01*
X143974482Y-92507688D01*
X143850000Y-92495428D01*
X143285750Y-92498500D01*
X143127000Y-92657250D01*
X142873000Y-92657250D01*
X142714250Y-92498500D01*
X142150000Y-92495428D01*
X142025518Y-92507688D01*
X141905820Y-92543998D01*
X141795506Y-92602963D01*
X141698815Y-92682315D01*
X141619463Y-92779006D01*
X141560498Y-92889320D01*
X141524188Y-93009018D01*
X141511928Y-93133500D01*
X135785000Y-93133500D01*
X135785000Y-93083740D01*
X135727932Y-92796842D01*
X135615990Y-92526589D01*
X135453475Y-92283368D01*
X135246632Y-92076525D01*
X135072240Y-91960000D01*
X135246632Y-91843475D01*
X135453475Y-91636632D01*
X135615990Y-91393411D01*
X135727932Y-91123158D01*
X135785000Y-90836260D01*
X135785000Y-90543740D01*
X135727932Y-90256842D01*
X135615990Y-89986589D01*
X135453475Y-89743368D01*
X135246632Y-89536525D01*
X135072240Y-89420000D01*
X135246632Y-89303475D01*
X135453475Y-89096632D01*
X135615990Y-88853411D01*
X135727932Y-88583158D01*
X135785000Y-88296260D01*
X135785000Y-88003740D01*
X135774311Y-87950000D01*
X139211928Y-87950000D01*
X139211928Y-89650000D01*
X139224188Y-89774482D01*
X139260498Y-89894180D01*
X139319463Y-90004494D01*
X139398815Y-90101185D01*
X139495506Y-90180537D01*
X139605820Y-90239502D01*
X139725518Y-90275812D01*
X139850000Y-90288072D01*
X141550000Y-90288072D01*
X141674482Y-90275812D01*
X141794180Y-90239502D01*
X141904494Y-90180537D01*
X142001185Y-90101185D01*
X142080537Y-90004494D01*
X142139502Y-89894180D01*
X142175812Y-89774482D01*
X142188072Y-89650000D01*
X142188072Y-87950000D01*
X142175812Y-87825518D01*
X142139502Y-87705820D01*
X142080537Y-87595506D01*
X142001185Y-87498815D01*
X141904494Y-87419463D01*
X141794180Y-87360498D01*
X141721620Y-87338487D01*
X141853475Y-87206632D01*
X142015990Y-86963411D01*
X142127932Y-86693158D01*
X142185000Y-86406260D01*
X142185000Y-86113740D01*
X142127932Y-85826842D01*
X142015990Y-85556589D01*
X141853475Y-85313368D01*
X141646632Y-85106525D01*
X141472240Y-84990000D01*
X141646632Y-84873475D01*
X141853475Y-84666632D01*
X142015990Y-84423411D01*
X142127932Y-84153158D01*
X142185000Y-83866260D01*
X142185000Y-83573740D01*
X142127932Y-83286842D01*
X142015990Y-83016589D01*
X141853475Y-82773368D01*
X141646632Y-82566525D01*
X141472240Y-82450000D01*
X141646632Y-82333475D01*
X141853475Y-82126632D01*
X142015990Y-81883411D01*
X142127932Y-81613158D01*
X142185000Y-81326260D01*
X142185000Y-81033740D01*
X142127932Y-80746842D01*
X142015990Y-80476589D01*
X141853475Y-80233368D01*
X141646632Y-80026525D01*
X141472240Y-79910000D01*
X141646632Y-79793475D01*
X141853475Y-79586632D01*
X142015990Y-79343411D01*
X142127932Y-79073158D01*
X142185000Y-78786260D01*
X142185000Y-78493740D01*
X142127932Y-78206842D01*
X142015990Y-77936589D01*
X141853475Y-77693368D01*
X141646632Y-77486525D01*
X141472240Y-77370000D01*
X141646632Y-77253475D01*
X141853475Y-77046632D01*
X142015990Y-76803411D01*
X142127932Y-76533158D01*
X142185000Y-76246260D01*
X142185000Y-75953740D01*
X142127932Y-75666842D01*
X142015990Y-75396589D01*
X141853475Y-75153368D01*
X141646632Y-74946525D01*
X141472240Y-74830000D01*
X141646632Y-74713475D01*
X141853475Y-74506632D01*
X142015990Y-74263411D01*
X142127932Y-73993158D01*
X142185000Y-73706260D01*
X142185000Y-73413740D01*
X142127932Y-73126842D01*
X142015990Y-72856589D01*
X141853475Y-72613368D01*
X141646632Y-72406525D01*
X141472240Y-72290000D01*
X141646632Y-72173475D01*
X141853475Y-71966632D01*
X142015990Y-71723411D01*
X142127932Y-71453158D01*
X142185000Y-71166260D01*
X142185000Y-70873740D01*
X142127932Y-70586842D01*
X142015990Y-70316589D01*
X141853475Y-70073368D01*
X141646632Y-69866525D01*
X141472240Y-69750000D01*
X141646632Y-69633475D01*
X141853475Y-69426632D01*
X142015990Y-69183411D01*
X142127932Y-68913158D01*
X142185000Y-68626260D01*
X142185000Y-68333740D01*
X142127932Y-68046842D01*
X142015990Y-67776589D01*
X141853475Y-67533368D01*
X141646632Y-67326525D01*
X141472240Y-67210000D01*
X141646632Y-67093475D01*
X141853475Y-66886632D01*
X141978178Y-66700000D01*
X144625199Y-66700000D01*
X148236201Y-70311003D01*
X148259999Y-70340001D01*
X148375724Y-70434974D01*
X148507753Y-70505546D01*
X148651014Y-70549003D01*
X148762667Y-70560000D01*
X148762676Y-70560000D01*
X148799999Y-70563676D01*
X148837322Y-70560000D01*
X154382678Y-70560000D01*
X154420000Y-70563676D01*
X154457322Y-70560000D01*
X154457333Y-70560000D01*
X154568986Y-70549003D01*
X154712247Y-70505546D01*
X154844276Y-70434974D01*
X154960001Y-70340001D01*
X154983804Y-70310997D01*
X157853592Y-67441210D01*
X158073740Y-67485000D01*
X158366260Y-67485000D01*
X158653158Y-67427932D01*
X158923411Y-67315990D01*
X159166632Y-67153475D01*
X159373475Y-66946632D01*
X159535990Y-66703411D01*
X159647932Y-66433158D01*
X159705000Y-66146260D01*
X159705000Y-65853740D01*
X159647932Y-65566842D01*
X159535990Y-65296589D01*
X159373475Y-65053368D01*
X159166632Y-64846525D01*
X158923411Y-64684010D01*
X158653158Y-64572068D01*
X158366260Y-64515000D01*
X158073740Y-64515000D01*
X157786842Y-64572068D01*
X157516589Y-64684010D01*
X157273368Y-64846525D01*
X157066525Y-65053368D01*
X156950000Y-65227760D01*
X156833475Y-65053368D01*
X156626632Y-64846525D01*
X156383411Y-64684010D01*
X156113158Y-64572068D01*
X155826260Y-64515000D01*
X155533740Y-64515000D01*
X155246842Y-64572068D01*
X154976589Y-64684010D01*
X154733368Y-64846525D01*
X154526525Y-65053368D01*
X154410000Y-65227760D01*
X154293475Y-65053368D01*
X154086632Y-64846525D01*
X153843411Y-64684010D01*
X153573158Y-64572068D01*
X153286260Y-64515000D01*
X152993740Y-64515000D01*
X152706842Y-64572068D01*
X152436589Y-64684010D01*
X152193368Y-64846525D01*
X152061513Y-64978380D01*
X152039502Y-64905820D01*
X151980537Y-64795506D01*
X151901185Y-64698815D01*
X151804494Y-64619463D01*
X151694180Y-64560498D01*
X151574482Y-64524188D01*
X151450000Y-64511928D01*
X150885750Y-64515000D01*
X150727000Y-64673750D01*
X150727000Y-65873000D01*
X150747000Y-65873000D01*
X150747000Y-66127000D01*
X150727000Y-66127000D01*
X150727000Y-67326250D01*
X150885750Y-67485000D01*
X151450000Y-67488072D01*
X151574482Y-67475812D01*
X151694180Y-67439502D01*
X151804494Y-67380537D01*
X151901185Y-67301185D01*
X151980537Y-67204494D01*
X152039502Y-67094180D01*
X152061513Y-67021620D01*
X152193368Y-67153475D01*
X152436589Y-67315990D01*
X152706842Y-67427932D01*
X152993740Y-67485000D01*
X153286260Y-67485000D01*
X153573158Y-67427932D01*
X153843411Y-67315990D01*
X154086632Y-67153475D01*
X154293475Y-66946632D01*
X154410000Y-66772240D01*
X154526525Y-66946632D01*
X154733368Y-67153475D01*
X154976589Y-67315990D01*
X155246842Y-67427932D01*
X155533740Y-67485000D01*
X155660199Y-67485000D01*
X154105199Y-69040000D01*
X149114802Y-69040000D01*
X146924802Y-66850000D01*
X149111928Y-66850000D01*
X149124188Y-66974482D01*
X149160498Y-67094180D01*
X149219463Y-67204494D01*
X149298815Y-67301185D01*
X149395506Y-67380537D01*
X149505820Y-67439502D01*
X149625518Y-67475812D01*
X149750000Y-67488072D01*
X150314250Y-67485000D01*
X150473000Y-67326250D01*
X150473000Y-66127000D01*
X149273750Y-66127000D01*
X149115000Y-66285750D01*
X149111928Y-66850000D01*
X146924802Y-66850000D01*
X145503804Y-65429003D01*
X145480001Y-65399999D01*
X145364276Y-65305026D01*
X145232247Y-65234454D01*
X145088986Y-65190997D01*
X144977333Y-65180000D01*
X144977322Y-65180000D01*
X144940000Y-65176324D01*
X144902678Y-65180000D01*
X141978178Y-65180000D01*
X141958133Y-65150000D01*
X149111928Y-65150000D01*
X149115000Y-65714250D01*
X149273750Y-65873000D01*
X150473000Y-65873000D01*
X150473000Y-64673750D01*
X150314250Y-64515000D01*
X149750000Y-64511928D01*
X149625518Y-64524188D01*
X149505820Y-64560498D01*
X149395506Y-64619463D01*
X149298815Y-64698815D01*
X149219463Y-64795506D01*
X149160498Y-64905820D01*
X149124188Y-65025518D01*
X149111928Y-65150000D01*
X141958133Y-65150000D01*
X141853475Y-64993368D01*
X141646632Y-64786525D01*
X141403411Y-64624010D01*
X141133158Y-64512068D01*
X140846260Y-64455000D01*
X140553740Y-64455000D01*
X140266842Y-64512068D01*
X139996589Y-64624010D01*
X139753368Y-64786525D01*
X139546525Y-64993368D01*
X139384010Y-65236589D01*
X139272068Y-65506842D01*
X139215000Y-65793740D01*
X139215000Y-66086260D01*
X139272068Y-66373158D01*
X139384010Y-66643411D01*
X139546525Y-66886632D01*
X139753368Y-67093475D01*
X139927760Y-67210000D01*
X139753368Y-67326525D01*
X139546525Y-67533368D01*
X139384010Y-67776589D01*
X139272068Y-68046842D01*
X139215000Y-68333740D01*
X139215000Y-68626260D01*
X139272068Y-68913158D01*
X139384010Y-69183411D01*
X139546525Y-69426632D01*
X139753368Y-69633475D01*
X139927760Y-69750000D01*
X139753368Y-69866525D01*
X139546525Y-70073368D01*
X139384010Y-70316589D01*
X139272068Y-70586842D01*
X139215000Y-70873740D01*
X139215000Y-71166260D01*
X139272068Y-71453158D01*
X139384010Y-71723411D01*
X139546525Y-71966632D01*
X139753368Y-72173475D01*
X139927760Y-72290000D01*
X139753368Y-72406525D01*
X139546525Y-72613368D01*
X139384010Y-72856589D01*
X139272068Y-73126842D01*
X139215000Y-73413740D01*
X139215000Y-73706260D01*
X139272068Y-73993158D01*
X139384010Y-74263411D01*
X139546525Y-74506632D01*
X139753368Y-74713475D01*
X139927760Y-74830000D01*
X139753368Y-74946525D01*
X139546525Y-75153368D01*
X139384010Y-75396589D01*
X139272068Y-75666842D01*
X139215000Y-75953740D01*
X139215000Y-76246260D01*
X139272068Y-76533158D01*
X139384010Y-76803411D01*
X139546525Y-77046632D01*
X139753368Y-77253475D01*
X139927760Y-77370000D01*
X139753368Y-77486525D01*
X139546525Y-77693368D01*
X139384010Y-77936589D01*
X139272068Y-78206842D01*
X139215000Y-78493740D01*
X139215000Y-78786260D01*
X139272068Y-79073158D01*
X139384010Y-79343411D01*
X139546525Y-79586632D01*
X139753368Y-79793475D01*
X139927760Y-79910000D01*
X139753368Y-80026525D01*
X139546525Y-80233368D01*
X139384010Y-80476589D01*
X139272068Y-80746842D01*
X139215000Y-81033740D01*
X139215000Y-81326260D01*
X139272068Y-81613158D01*
X139384010Y-81883411D01*
X139546525Y-82126632D01*
X139753368Y-82333475D01*
X139927760Y-82450000D01*
X139753368Y-82566525D01*
X139546525Y-82773368D01*
X139384010Y-83016589D01*
X139272068Y-83286842D01*
X139215000Y-83573740D01*
X139215000Y-83866260D01*
X139272068Y-84153158D01*
X139384010Y-84423411D01*
X139546525Y-84666632D01*
X139753368Y-84873475D01*
X139927760Y-84990000D01*
X139753368Y-85106525D01*
X139546525Y-85313368D01*
X139384010Y-85556589D01*
X139272068Y-85826842D01*
X139215000Y-86113740D01*
X139215000Y-86406260D01*
X139272068Y-86693158D01*
X139384010Y-86963411D01*
X139546525Y-87206632D01*
X139678380Y-87338487D01*
X139605820Y-87360498D01*
X139495506Y-87419463D01*
X139398815Y-87498815D01*
X139319463Y-87595506D01*
X139260498Y-87705820D01*
X139224188Y-87825518D01*
X139211928Y-87950000D01*
X135774311Y-87950000D01*
X135727932Y-87716842D01*
X135615990Y-87446589D01*
X135453475Y-87203368D01*
X135246632Y-86996525D01*
X135072240Y-86880000D01*
X135246632Y-86763475D01*
X135453475Y-86556632D01*
X135615990Y-86313411D01*
X135727932Y-86043158D01*
X135785000Y-85756260D01*
X135785000Y-85463740D01*
X135727932Y-85176842D01*
X135615990Y-84906589D01*
X135453475Y-84663368D01*
X135246632Y-84456525D01*
X135072240Y-84340000D01*
X135246632Y-84223475D01*
X135453475Y-84016632D01*
X135615990Y-83773411D01*
X135727932Y-83503158D01*
X135785000Y-83216260D01*
X135785000Y-82923740D01*
X135727932Y-82636842D01*
X135615990Y-82366589D01*
X135453475Y-82123368D01*
X135246632Y-81916525D01*
X135072240Y-81800000D01*
X135246632Y-81683475D01*
X135453475Y-81476632D01*
X135615990Y-81233411D01*
X135727932Y-80963158D01*
X135785000Y-80676260D01*
X135785000Y-80383740D01*
X135727932Y-80096842D01*
X135615990Y-79826589D01*
X135453475Y-79583368D01*
X135246632Y-79376525D01*
X135064466Y-79254805D01*
X135181355Y-79185178D01*
X135397588Y-78990269D01*
X135571641Y-78756920D01*
X135696825Y-78494099D01*
X135741476Y-78346890D01*
X135620155Y-78117000D01*
X134427000Y-78117000D01*
X134427000Y-78137000D01*
X134173000Y-78137000D01*
X134173000Y-78117000D01*
X132979845Y-78117000D01*
X132858524Y-78346890D01*
X132903175Y-78494099D01*
X133028359Y-78756920D01*
X133202412Y-78990269D01*
X133418645Y-79185178D01*
X133535534Y-79254805D01*
X133353368Y-79376525D01*
X133146525Y-79583368D01*
X132984010Y-79826589D01*
X132872068Y-80096842D01*
X132815000Y-80383740D01*
X132815000Y-80676260D01*
X132872068Y-80963158D01*
X132984010Y-81233411D01*
X133146525Y-81476632D01*
X133353368Y-81683475D01*
X133527760Y-81800000D01*
X133353368Y-81916525D01*
X133146525Y-82123368D01*
X132984010Y-82366589D01*
X132872068Y-82636842D01*
X132815000Y-82923740D01*
X132815000Y-83216260D01*
X132872068Y-83503158D01*
X132984010Y-83773411D01*
X133146525Y-84016632D01*
X133353368Y-84223475D01*
X133527760Y-84340000D01*
X133353368Y-84456525D01*
X133146525Y-84663368D01*
X132984010Y-84906589D01*
X132872068Y-85176842D01*
X132815000Y-85463740D01*
X132815000Y-85756260D01*
X132872068Y-86043158D01*
X132984010Y-86313411D01*
X133146525Y-86556632D01*
X133353368Y-86763475D01*
X133527760Y-86880000D01*
X133353368Y-86996525D01*
X133146525Y-87203368D01*
X132984010Y-87446589D01*
X132872068Y-87716842D01*
X132815000Y-88003740D01*
X132815000Y-88296260D01*
X132872068Y-88583158D01*
X132984010Y-88853411D01*
X133146525Y-89096632D01*
X133353368Y-89303475D01*
X133527760Y-89420000D01*
X133353368Y-89536525D01*
X133146525Y-89743368D01*
X132984010Y-89986589D01*
X132872068Y-90256842D01*
X132815000Y-90543740D01*
X132815000Y-90836260D01*
X132872068Y-91123158D01*
X132984010Y-91393411D01*
X133146525Y-91636632D01*
X133353368Y-91843475D01*
X133527760Y-91960000D01*
X133353368Y-92076525D01*
X133146525Y-92283368D01*
X132984010Y-92526589D01*
X132872068Y-92796842D01*
X132815000Y-93083740D01*
X132815000Y-93376260D01*
X132872068Y-93663158D01*
X132984010Y-93933411D01*
X133146525Y-94176632D01*
X133353368Y-94383475D01*
X133527760Y-94500000D01*
X133353368Y-94616525D01*
X133146525Y-94823368D01*
X132984010Y-95066589D01*
X132872068Y-95336842D01*
X132815000Y-95623740D01*
X132815000Y-95916260D01*
X132872068Y-96203158D01*
X132984010Y-96473411D01*
X133146525Y-96716632D01*
X133353368Y-96923475D01*
X133527760Y-97040000D01*
X133353368Y-97156525D01*
X133146525Y-97363368D01*
X132984010Y-97606589D01*
X132872068Y-97876842D01*
X132815000Y-98163740D01*
X132815000Y-98456260D01*
X132872068Y-98743158D01*
X132984010Y-99013411D01*
X133146525Y-99256632D01*
X133278380Y-99388487D01*
X133205820Y-99410498D01*
X133095506Y-99469463D01*
X132998815Y-99548815D01*
X132919463Y-99645506D01*
X132860498Y-99755820D01*
X132824188Y-99875518D01*
X132811928Y-100000000D01*
X112511361Y-100000000D01*
X112453475Y-99913368D01*
X112246632Y-99706525D01*
X112072240Y-99590000D01*
X112246632Y-99473475D01*
X112453475Y-99266632D01*
X112615990Y-99023411D01*
X112727932Y-98753158D01*
X112785000Y-98466260D01*
X112785000Y-98173740D01*
X112727932Y-97886842D01*
X112615990Y-97616589D01*
X112453475Y-97373368D01*
X112246632Y-97166525D01*
X112072240Y-97050000D01*
X112246632Y-96933475D01*
X112453475Y-96726632D01*
X112615990Y-96483411D01*
X112727932Y-96213158D01*
X112785000Y-95926260D01*
X112785000Y-95633740D01*
X112727932Y-95346842D01*
X112615990Y-95076589D01*
X112453475Y-94833368D01*
X112246632Y-94626525D01*
X112072240Y-94510000D01*
X112246632Y-94393475D01*
X112453475Y-94186632D01*
X112615990Y-93943411D01*
X112727932Y-93673158D01*
X112785000Y-93386260D01*
X112785000Y-93093740D01*
X112727932Y-92806842D01*
X112615990Y-92536589D01*
X112453475Y-92293368D01*
X112246632Y-92086525D01*
X112064466Y-91964805D01*
X112181355Y-91895178D01*
X112397588Y-91700269D01*
X112571641Y-91466920D01*
X112696825Y-91204099D01*
X112741476Y-91056890D01*
X112620155Y-90827000D01*
X111427000Y-90827000D01*
X111427000Y-90847000D01*
X111173000Y-90847000D01*
X111173000Y-90827000D01*
X109979845Y-90827000D01*
X109858524Y-91056890D01*
X109903175Y-91204099D01*
X110028359Y-91466920D01*
X110202412Y-91700269D01*
X110418645Y-91895178D01*
X110535534Y-91964805D01*
X110353368Y-92086525D01*
X110146525Y-92293368D01*
X109984010Y-92536589D01*
X109872068Y-92806842D01*
X109815000Y-93093740D01*
X109815000Y-93386260D01*
X109872068Y-93673158D01*
X109984010Y-93943411D01*
X110146525Y-94186632D01*
X110353368Y-94393475D01*
X110527760Y-94510000D01*
X110353368Y-94626525D01*
X110146525Y-94833368D01*
X109984010Y-95076589D01*
X109872068Y-95346842D01*
X109815000Y-95633740D01*
X109815000Y-95926260D01*
X109872068Y-96213158D01*
X109984010Y-96483411D01*
X110146525Y-96726632D01*
X110353368Y-96933475D01*
X110527760Y-97050000D01*
X110353368Y-97166525D01*
X110146525Y-97373368D01*
X109984010Y-97616589D01*
X109872068Y-97886842D01*
X109815000Y-98173740D01*
X109815000Y-98466260D01*
X109872068Y-98753158D01*
X109984010Y-99023411D01*
X110146525Y-99266632D01*
X110353368Y-99473475D01*
X110527760Y-99590000D01*
X110353368Y-99706525D01*
X110146525Y-99913368D01*
X109984010Y-100156589D01*
X109872068Y-100426842D01*
X109815000Y-100713740D01*
X109815000Y-101006260D01*
X109872068Y-101293158D01*
X109984010Y-101563411D01*
X110146525Y-101806632D01*
X110353368Y-102013475D01*
X110580141Y-102165000D01*
X101435000Y-102165000D01*
X101435000Y-92350000D01*
X104211928Y-92350000D01*
X104211928Y-94050000D01*
X104224188Y-94174482D01*
X104260498Y-94294180D01*
X104319463Y-94404494D01*
X104398815Y-94501185D01*
X104495506Y-94580537D01*
X104605820Y-94639502D01*
X104678380Y-94661513D01*
X104546525Y-94793368D01*
X104384010Y-95036589D01*
X104272068Y-95306842D01*
X104215000Y-95593740D01*
X104215000Y-95886260D01*
X104272068Y-96173158D01*
X104384010Y-96443411D01*
X104546525Y-96686632D01*
X104753368Y-96893475D01*
X104927760Y-97010000D01*
X104753368Y-97126525D01*
X104546525Y-97333368D01*
X104384010Y-97576589D01*
X104272068Y-97846842D01*
X104215000Y-98133740D01*
X104215000Y-98426260D01*
X104272068Y-98713158D01*
X104384010Y-98983411D01*
X104546525Y-99226632D01*
X104753368Y-99433475D01*
X104996589Y-99595990D01*
X105266842Y-99707932D01*
X105553740Y-99765000D01*
X105846260Y-99765000D01*
X106133158Y-99707932D01*
X106403411Y-99595990D01*
X106646632Y-99433475D01*
X106853475Y-99226632D01*
X107015990Y-98983411D01*
X107127932Y-98713158D01*
X107185000Y-98426260D01*
X107185000Y-98133740D01*
X107127932Y-97846842D01*
X107015990Y-97576589D01*
X106853475Y-97333368D01*
X106646632Y-97126525D01*
X106472240Y-97010000D01*
X106646632Y-96893475D01*
X106853475Y-96686632D01*
X107015990Y-96443411D01*
X107127932Y-96173158D01*
X107185000Y-95886260D01*
X107185000Y-95593740D01*
X107127932Y-95306842D01*
X107015990Y-95036589D01*
X106853475Y-94793368D01*
X106721620Y-94661513D01*
X106794180Y-94639502D01*
X106904494Y-94580537D01*
X107001185Y-94501185D01*
X107080537Y-94404494D01*
X107139502Y-94294180D01*
X107175812Y-94174482D01*
X107188072Y-94050000D01*
X107188072Y-92350000D01*
X107175812Y-92225518D01*
X107139502Y-92105820D01*
X107080537Y-91995506D01*
X107001185Y-91898815D01*
X106904494Y-91819463D01*
X106794180Y-91760498D01*
X106674482Y-91724188D01*
X106550000Y-91711928D01*
X104850000Y-91711928D01*
X104725518Y-91724188D01*
X104605820Y-91760498D01*
X104495506Y-91819463D01*
X104398815Y-91898815D01*
X104319463Y-91995506D01*
X104260498Y-92105820D01*
X104224188Y-92225518D01*
X104211928Y-92350000D01*
X101435000Y-92350000D01*
X101435000Y-63935000D01*
X104476574Y-63935000D01*
X104398815Y-63998815D01*
M02*
